<?xml version="1.0" encoding="utf-8"?>
<!-- Generator: Adobe Illustrator 27.5.0, SVG Export Plug-In . SVG Version: 6.00 Build 0)  -->
<svg version="1.1" xmlns="http://www.w3.org/2000/svg" xmlns:xlink="http://www.w3.org/1999/xlink" x="0px" y="0px"
	 viewBox="0 0 3118 1726.5" style="enable-background:new 0 0 3118 1726.5;" xml:space="preserve">
<style type="text/css">
	.st0{fill:#DA8844;}
	.st1{fill:#DFA87F;}
	.st2{fill:#DF975C;}
	.st3{fill:#CB6F48;}
	.st4{fill:#DF926E;}
	.st5{fill:#DA7D4D;}
	.st6{opacity:0.3;fill:#CB6F48;}
	.st7{fill:#CE7651;}
	.st8{opacity:0.3;}
	.st9{opacity:0.5;fill:#DA7D4D;}
	.st10{opacity:0.3;fill:#DA7D4D;}
	.st11{fill:#DC8456;}
	.st12{fill:#EF4760;}
	.st13{fill:#E9786A;}
	.st14{opacity:0.5;}
	.st15{opacity:0.3;fill:#FB9D82;}
	.st16{fill:#FAD5CB;}
	.st17{fill:#FAB7B6;}
	.st18{fill:#995944;}
	.st19{opacity:0.5;fill:#FA9172;}
	.st20{fill:#FA9172;}
	.st21{opacity:0.3;fill:#FA9172;}
	.st22{opacity:0.2;}
	.st23{opacity:0.3;fill:#995944;}
	.st24{opacity:0.5;fill:#DF975C;}
	.st25{fill:#A35F49;}
	.st26{fill:#AD8E82;}
	.st27{opacity:0.5;fill:#CB6F48;}
	.st28{fill:#0996BC;}
	.st29{fill:#06BB92;}
	.st30{fill:#FCCA3A;}
	.st31{fill:#F2F2F2;}
	.st32{opacity:0.5;fill:#FCCA3A;}
	.st33{fill:#FFFFFF;}
	.st34{opacity:0.5;fill:#FB9D82;}
	.st35{fill:#996953;}
</style>
<g id="Layer_4">
</g>
<g id="dark">
	<g id="XMLID_772_">
		<path id="XMLID_142_" class="st0" d="M1657,1599c-47.3-71-94.6-146.6-141-226.8c-18.8-32.4-36.8-64.6-54.1-96.4
			c6-22.3,12.1-44.5,18.1-66.8c0.6-2.4,1.4-6,1.2-10.4c-0.5-10.4-5.9-16.4-11-25.3c-6.8-12.1-2.2-10.8-10.8-30.7
			c-8.7-20-13.3-21.3-13.1-30.6c0.1-2.9,0.7-8.9-3.1-13.3c-0.8-1-2.9-3.1-6-3.7c-4.9-0.9-9.1,2.5-10.1,3.3
			c-10.1,8.2-8.4,28.7-3.7,41.9c0.6,1.7,1.2,3.1,1.6,3.9c1.8,5.4,3.6,12,4.8,19.4c0.8,5.3,1.2,10.3,1.4,14.7
			c-1.9-1.6-4.7-4.1-7.6-7.6c-7-8.1-8.8-14.2-15.4-25c-2-3.4-5.1-8.2-9.4-13.8c-22.7-31-45.3-62-68-93c-0.3-0.4-6.3-9.6-15.8-8.9
			c-0.8,0.1-5,0.4-7.9,3.2c-5.2,5-4.6,16.6,2.8,27.8c-5-7.4-10-14.8-15-22.2c-3.6-6.3-10.5-9.4-16.2-8c-7.5,1.9-12.8,11.7-9,21.2
			c2.2,4.9,4.5,9.9,6.7,14.8c-0.8-0.7-6.2-5.5-12.4-4.2c-7,1.5-12.6,10.1-10.8,20.4c17.6,34.3,35.3,68.6,52.9,102.9
			c-0.8,1.1-1.7,2.2-2.5,3.3c-6.6-9.8-13.3-20.6-19.9-32.4c-7.3-13.1-13.6-25.6-18.9-37.4c-0.9-4.6-4.1-8.1-8.2-8.9
			c-6.5-1.3-10.8,5.4-11.3,6.1c-3.6,5.7-1.3,11.9-1,12.6c3.1,8.4,6.3,16.8,9.4,25.2l20.2,44.5l15.2,20.6
			c10.2,22.4,26.7,51.5,53.5,79.8c11.8,12.5,23.6,22.7,34.6,31c3.2,4,7.9,10.3,12.8,18.5c10.9,18.2,15.5,33.8,16.6,37.5
			c5.2,16.7,25,63.1,81.3,180.5c21.3,53.3,42.5,106.2,63.8,159.5c65,0,129.8,0,194.8,0C1716.6,1683.8,1687,1641.7,1657,1599z"/>
		<path id="XMLID_788_" class="st1" d="M1441.4,1098.1c2.3,2.6,2.6,5.6,2.6,6.6l2.3,9.9c0.8-5.1,0-9.1-0.6-11.3
			c-0.8-2.9-1.7-6-4.5-7.3c-1.5-0.8-3.1-0.8-4.1-0.6C1438.1,1095.5,1439.8,1096.3,1441.4,1098.1z"/>
		<g id="XMLID_787_">
			
				<rect id="XMLID_117_" x="1291.5" y="1073.9" transform="matrix(0.8655 -0.501 0.501 0.8655 -363.1555 796.5731)" class="st2" width="20" height="1"/>
		</g>
		<g id="XMLID_786_">
			
				<rect id="XMLID_116_" x="1315.4" y="1112.5" transform="matrix(0.8501 -0.5267 0.5267 0.8501 -387.4153 865.1559)" class="st2" width="20.8" height="1"/>
		</g>
		<g id="XMLID_785_">
			
				<rect id="XMLID_115_" x="1335.8" y="1152.1" transform="matrix(0.8052 -0.593 0.593 0.8052 -420.7935 1024.3472)" class="st2" width="25.6" height="1"/>
		</g>
		<g id="XMLID_784_">
			
				<rect id="XMLID_114_" x="1321.4" y="1068.1" transform="matrix(0.8355 -0.5495 0.5495 0.8355 -367.9068 908.3557)" class="st2" width="23.3" height="1"/>
		</g>
		<g id="XMLID_783_">
			
				<rect id="XMLID_113_" x="1347.5" y="1102.9" transform="matrix(0.9006 -0.4347 0.4347 0.9006 -344.6111 700.0602)" class="st2" width="21.3" height="1"/>
		</g>
		<g id="XMLID_782_">
			
				<rect id="XMLID_112_" x="1368.1" y="1138.5" transform="matrix(0.956 -0.2933 0.2933 0.956 -273.362 455.0074)" class="st2" width="24.8" height="1"/>
		</g>
		<g id="XMLID_781_">
			
				<rect id="XMLID_111_" x="1271.4" y="1105.7" transform="matrix(0.8398 -0.5429 0.5429 0.8398 -395.2109 872.9473)" class="st2" width="20.5" height="1"/>
		</g>
		<g id="XMLID_780_">
			
				<rect id="XMLID_110_" x="1291.9" y="1140.2" transform="matrix(0.8482 -0.5297 0.5297 0.8482 -406.6655 862.3284)" class="st2" width="18.5" height="1"/>
		</g>
		<g id="XMLID_779_">
			
				<rect id="XMLID_109_" x="1308.2" y="1175.9" transform="matrix(0.8316 -0.5554 0.5554 0.8316 -431.0534 931.2894)" class="st2" width="23.7" height="1"/>
		</g>
		<g id="XMLID_778_">
			
				<rect id="XMLID_108_" x="1255.6" y="1147.6" transform="matrix(0.9235 -0.3837 0.3837 0.9235 -343.7682 572.7805)" class="st2" width="16.4" height="1"/>
		</g>
		<g id="XMLID_777_">
			
				<rect id="XMLID_107_" x="1269.1" y="1177.3" transform="matrix(0.884 -0.4674 0.4674 0.884 -402.2102 734.2664)" class="st2" width="19.3" height="1"/>
		</g>
		<g id="XMLID_776_">
			
				<rect id="XMLID_106_" x="1286.1" y="1205.4" transform="matrix(0.6773 -0.7357 0.7357 0.6773 -468.7535 1343.1112)" class="st2" width="20.9" height="1"/>
		</g>
		<g id="XMLID_775_">
			
				<rect id="XMLID_105_" x="1443.1" y="1173.6" transform="matrix(0.312 -0.9501 0.9501 0.312 -132.9918 2187.1582)" class="st2" width="1" height="23.6"/>
		</g>
		<g id="XMLID_774_">
			
				<rect id="XMLID_104_" x="1427.6" y="1145.8" transform="matrix(0.9837 -0.1796 0.1796 0.9837 -182.574 275.8281)" class="st2" width="9.1" height="1"/>
		</g>
		<g id="XMLID_773_">
			<polygon id="XMLID_103_" class="st2" points="1385.4,1332.9 1384.7,1332.3 1390.2,1325.6 1408.2,1309.1 1408.3,1309.1 
				1428.6,1304.7 1454.3,1292.8 1454.7,1293.7 1428.9,1305.7 1408.7,1310 1391,1326.2 			"/>
		</g>
	</g>
	<g id="XMLID_766_">
		<path id="XMLID_141_" class="st2" d="M1252.5,1305.5c-1.4,7.8-3.5,19.3-6,33.3c-7.4,40-11.9,64.6-17.3,89.5
			c-4.5,20.4-11.3,49-21.3,83.3c-14.3,71.8-28.5,143.1-42.8,214.9c61.3,0,122.7,0,184,0c-9-81.8-13.1-175.5-6.3-279.2
			c2.9-44.3,7.5-86.3,13.3-125.8c10.4-14.9,19.8-26.1,26.2-33.4c16.4-18.7,21.2-20.4,26.7-32.1c4.3-9.1,1.2-7.6,9.7-38.2
			c4.3-15.3,5.9-18.7,6-26.8c0.1-13.4-4.2-14.7-2.4-24.9c2.1-11.9,9.2-17.3,6.1-24.6c-0.2-0.5-2.2-4.9-6.2-5.9
			c-9.2-2.4-20,15.4-21,17.1c-2.8,4.6-7.4,13.9-7.6,27.9c-2.2,5.7-4.4,11.5-6.6,17.2c-0.4-16.8-0.9-33.7-1.3-50.5
			c0.5-18.3,1-36.5,1.6-54.8c1.2-14,2.5-27.9,3.7-41.9c2.1-8.2-0.3-16.1-5.7-19.8c-0.8-0.6-3.8-2.5-7.8-2.2
			c-6.8,0.5-13.2,7.5-15.1,17.5c-1.4,16.1-2.8,32.1-4.2,48.2c-1.2,16.5-2.5,33-3.7,49.5l-2.2-10.4c2.6-31.6,5.2-63.2,7.9-94.8
			c0.8-1.5,3.7-7.3,1.8-14.4c-0.4-1.5-2.1-8-8.3-11.1c-1.1-0.6-5.6-2.9-10.4-1.2c-4,1.4-5.9,4.7-7.6,7.6c-3.6,6.3-4.1,12.7-3.9,16.8
			c-3.9,26.3-7.8,52.7-11.8,79l-5,29.3c1.9-18.1,3.8-36.2,5.7-54.3c2.9-15.4,5.9-30.8,8.8-46.2c1.5-6-1.1-12-5.8-14.4
			c-4.3-2.2-9.3-1.1-12.5,1.2c-4.4,3.2-5.2,8.8-5.8,12.2c-3.1,18.4-5.5,10.1-13.1,45c-1.9,8.9-3.1,15.7-4.4,23.1
			c-2,11.6-3.5,21.4-4.5,28.4c-0.9-9.8-0.4-17.6,0.2-22.8c1-8.3,3.1-17.3,4.7-32.9c0.7-7.2,1-11.6-2-14.9c-2.8-3.2-8-4.7-11.9-3.2
			c-6.3,2.3-8.2,11.5-9.3,16.6c-1.5,7-4.7,13.5-6.4,24.2c-1.2,7.7-1.5,13.5-1.6,15.2c-1.2,23.6-4.1,47.2-6.1,70.7
			c-4,48.1-5.2,45.3-5.1,59.1C1246.3,1274.6,1249.7,1293.4,1252.5,1305.5z"/>
		<path id="XMLID_771_" class="st1" d="M1368.4,1034.7c-0.1,2.2-0.2,4.5-0.3,6.7c0,0.4,0,0.8,0.2,1.2c0.5,1.7,2.5,6.2,8.2,5.1
			c7.1-1.3,6.6-4,6.6-4c0.6-2.6,1.3-5.1,1.9-7.7c0.3-1.3,0-2.6-1-3.5c-2.7-2.6-6.2-3.8-9.6-3c-2.3,0.5-4,1.8-5,2.8
			C1368.8,1032.9,1368.4,1033.8,1368.4,1034.7z"/>
		<path id="XMLID_770_" class="st1" d="M1337.2,1025l1.3,1.6c5.7,0.5,8.9,0.7,14.6,1.2l1.7-1.4c0.5-0.4,0.9-0.9,1.1-1.5
			c0.6-1.5,1.3-4.5,0-7.5c-1.9-4.4-7-7.1-11.6-6c-4.3,1-6.3,4.8-6.8,5.8c-1.1,2.3-1.2,4.6-1.1,6
			C1336.4,1023.7,1336.7,1024.4,1337.2,1025z"/>
		<path id="XMLID_769_" class="st1" d="M1311.9,1046.9l6.5,0.5c1.1,0.1,2.1-0.3,2.8-1l3.2-3.1c0.6-0.6,1-1.4,1.1-2.3
			c0.2-2.5,0-5.7,0.2-8.1c0.1-0.6,0-1.3-0.3-1.9c-1.3-2.7-3.3-3.1-6.6-3.5c-4.2-0.5-8.4,2-10.2,6.1c-0.1,0.2-0.2,0.5-0.2,0.8
			c-0.4,2.3-0.8,4.5-1.3,6.8c-0.2,1.2,0.2,2.4,1,3.2l1.5,1.5C1310.2,1046.5,1311,1046.9,1311.9,1046.9z"/>
		<path id="XMLID_768_" class="st1" d="M1272,1080.4l4.1,0.6c1.6,0.2,3.2-0.3,4.4-1.3l1-0.8c0.9-0.8,1.6-1.9,1.8-3.2
			c0.3-1.5,0.5-3.2,0.7-4.7c0.5-2.4-0.7-4.8-2.9-5.9c-1-0.5-2.1-0.8-3.4-1c-3.6-0.7-7.3,1.1-9,4.3c-0.2,0.4-0.3,0.8-0.4,1.3
			c-0.3,1.4-0.6,2.7-0.9,4.1c-0.4,1.8,0.2,3.7,1.5,5C1269.7,1079.7,1270.8,1080.3,1272,1080.4z"/>
		<path id="XMLID_767_" class="st1" d="M1427.3,1138.8c-1,1.4-2,2.8-2.9,4.2c-0.5,2.1-1,5.7,0.2,9.9c0.4,1.5,1,2.9,1.6,3.9
			c2-4.6,3.9-9.2,5.9-13.8C1430.4,1141.6,1428.9,1140.2,1427.3,1138.8z"/>
	</g>
	<g id="XMLID_749_">
		<path id="XMLID_140_" class="st3" d="M143.6,608.6c36.2,14.8,79.3,29.6,128.6,41.3c39.5,9.4,76.2,15.1,108.9,18.5
			c18.9-13.2,37.9-26.3,56.8-39.5c2-1.4,5.2-3.3,9.4-4.6c10-3,17.4,0.1,27.5,1.8c13.7,2.3,10.9-1.6,32.6-0.1
			c21.8,1.5,24.5,5.4,33.2,2c2.7-1,8.1-3.6,13.5-1.6c1.2,0.5,3.9,1.7,5.5,4.5c2.5,4.3,0.7,9.5,0.3,10.6
			c-4.4,12.3-24.2,17.6-38.2,17.6c-1.8,0-3.3-0.1-4.2-0.2c-5.7,0.1-12.5,0.6-19.9,2c-5.3,1-10.1,2.3-14.3,3.7c2.1,1.2,5.5,3,9.7,4.6
			c10,3.8,16.3,3.6,28.8,6.1c3.9,0.8,9.4,2.1,16.1,4.2c36.8,10.9,73.7,21.8,110.5,32.7c0.5,0.1,11.2,2.7,13.7,11.9
			c0.2,0.8,1.3,4.8-0.3,8.5c-3,6.6-14.1,10-27.2,6.7c8.6,2.2,17.3,4.5,25.9,6.7c7.1,1.3,12.4,6.7,12.9,12.6
			c0.7,7.7-6.7,16-16.9,15.6c-5.4-0.5-10.8-0.9-16.2-1.4c0.9,0.5,7.2,4,8.1,10.2c1,7-5.3,15.2-15.5,17.1
			c-38.2-5.1-76.5-10.2-114.7-15.2c-0.8,1.1-1.5,2.3-2.3,3.4c11.4,2.9,23.9,5.6,37.2,7.9c14.8,2.5,28.7,4.2,41.5,5.2
			c4.6-0.7,9,1.2,11.1,4.7c3.4,5.7-1.4,12-1.9,12.7c-4.1,5.3-10.8,5.2-11.5,5.2c-9-0.1-17.9-0.2-26.9-0.4l-48.7-4.1l-24.5-7.4
			c-24.5-2-57.5-7.8-93.2-23.6c-15.7-6.9-29.3-14.6-40.9-22.2c-4.8-1.7-12.4-4-21.7-5.8c-19.6-3.9-34.9-3.3-40.9-3.1
			c-24.2,0.9-95.3,2.4-192,5c-1.7-19.1-2-49.1,7.6-83.9C119.7,647.3,133.2,623.7,143.6,608.6z"/>
		<path id="XMLID_765_" class="st4" d="M555.4,628c-3.2-1.3-6.1-0.6-7.1-0.3l-10.1,1.2c4.5-2.5,8.5-3.1,10.9-3.2
			c3-0.2,6.2-0.4,8.4,1.8c1.2,1.2,1.7,2.6,2,3.6C558.8,630.2,557.5,628.8,555.4,628z"/>
		<g id="XMLID_764_">
			
				<rect id="XMLID_102_" x="614.7" y="751.3" transform="matrix(0.1806 -0.9836 0.9836 0.1806 -227.5355 1230.3781)" class="st5" width="20" height="1"/>
		</g>
		<g id="XMLID_763_">
			
				<rect id="XMLID_101_" x="569.7" y="741.3" transform="matrix(0.2091 -0.9779 0.9779 0.2091 -266.5794 1154.0471)" class="st5" width="20.8" height="1"/>
		</g>
		<g id="XMLID_762_">
			
				<rect id="XMLID_100_" x="522.4" y="733.1" transform="matrix(0.288 -0.9576 0.9576 0.288 -321.4996 1034.9026)" class="st5" width="25.6" height="1"/>
		</g>
		<g id="XMLID_761_">
			
				<rect id="XMLID_99_" x="607.9" y="719.5" transform="matrix(0.2373 -0.9714 0.9714 0.2373 -226.987 1150.9696)" class="st5" width="23.3" height="1"/>
		</g>
		<g id="XMLID_760_">
			
				<rect id="XMLID_98_" x="567.7" y="707.6" transform="matrix(0.1065 -0.9943 0.9943 0.1065 -187.3925 1207.7324)" class="st5" width="21.3" height="1"/>
		</g>
		<g id="XMLID_759_">
			
				<rect id="XMLID_97_" x="536.8" y="686.6" transform="matrix(0.999 -4.532713e-02 4.532713e-02 0.999 -31.134 25.0721)" class="st5" width="1" height="24.8"/>
		</g>
		<g id="XMLID_758_">
			
				<rect id="XMLID_96_" x="591.1" y="780.6" transform="matrix(0.2285 -0.9736 0.9736 0.2285 -296.4152 1188.1121)" class="st5" width="20.5" height="1"/>
		</g>
		<g id="XMLID_757_">
			
				<rect id="XMLID_95_" x="553.1" y="773.8" transform="matrix(0.213 -0.977 0.977 0.213 -313.9646 1158.8271)" class="st5" width="18.5" height="1"/>
		</g>
		<g id="XMLID_756_">
			
				<rect id="XMLID_94_" x="510.5" y="768.1" transform="matrix(0.2432 -0.97 0.97 0.2432 -350.1541 1088.3402)" class="st5" width="23.7" height="1"/>
		</g>
		<g id="XMLID_755_">
			
				<rect id="XMLID_93_" x="559.7" y="811.4" transform="matrix(5.068046e-02 -0.9987 0.9987 5.068046e-02 -271.7469 1338.0001)" class="st5" width="16.4" height="1"/>
		</g>
		<g id="XMLID_754_">
			
				<rect id="XMLID_92_" x="525.3" y="807.4" transform="matrix(0.1427 -0.9898 0.9898 0.1427 -340.9706 1222.1188)" class="st5" width="19.3" height="1"/>
		</g>
		<g id="XMLID_753_">
			
				<rect id="XMLID_91_" x="492" y="800" transform="matrix(0.4659 -0.8848 0.8848 0.4659 -439.9652 872.1887)" class="st5" width="20.9" height="1"/>
		</g>
		<g id="XMLID_752_">
			
				<rect id="XMLID_90_" x="471.9" y="643.5" transform="matrix(0.7899 -0.6133 0.6133 0.7899 -302.5847 427.3752)" class="st5" width="1" height="23.6"/>
		</g>
		<g id="XMLID_751_">
			
				<rect id="XMLID_89_" x="512.5" y="648.3" transform="matrix(0.9869 -0.1613 0.1613 0.9869 -98.603 91.3159)" class="st5" width="1" height="9.1"/>
		</g>
		<g id="XMLID_750_">
			<polygon id="XMLID_88_" class="st5" points="353.8,760.1 353,759.6 357.4,752.1 366.7,730 364,709.5 364,709.4 366.6,681.2 
				367.6,681.3 365.1,709.4 367.8,730.2 367.7,730.3 358.3,752.5 			"/>
		</g>
	</g>
	<path id="XMLID_748_" class="st6" d="M310.5,736.2C323,737,342,736.5,361,727c27.3-13.7,23.9-30.5,57-54
		c20.3-14.5,50.3-28.5,70.7-27.1c2.5,0.2,10.9,1,22.3,0.1c8.9-0.7,16.1-2.3,20.9-3.5l-56.8,34.9l40.5-3.2l36,9.1
		c48.7,15.9,86.3,43.6,85.6,70.5c-0.8,36.2-70.9,65-126.6,62.1c-64.7-3.3-106.4-49.1-116.7-61c-27.8-0.5-55.7-1-83.5-1.5V736.2z"/>
	<g id="XMLID_742_">
		<path id="XMLID_139_" class="st7" d="M401.5,839.9c-7.5,2.7-18.5,6.8-31.7,11.7c-38.1,14.2-61.5,22.9-85.2,32.6
			c-19.3,7.9-46.3,19.6-78.4,35.4c-2.2,0.6-5.9,1.3-10.3,0.7c-37.5-4.7-72.3-94.2-43.2-127c6.4-7.2,15-10.7,22.9-12.5
			c21.1,0,44.8-1.4,70.5-5.3c49.3-7.4,90.3-21.3,121.6-34.9c12.8-12.8,22.3-24,28.4-31.6c15.6-19.4,16.5-24.4,27-31.9
			c8.2-5.8,7.2-2.5,36-16.2c14.3-6.9,17.4-9,25.4-10.5c13.2-2.4,15.2,1.6,25-1.9c11.4-4.1,15.5-12.1,23.1-10.3
			c0.5,0.1,5.2,1.3,6.9,5.1c3.9,8.7-11.7,22.4-13.2,23.7c-4,3.5-12.4,9.7-26.1,12.3c-5.3,3.1-10.6,6.3-15.8,9.4
			c16.7-2.5,33.3-5,50-7.5c17.9-3.7,35.8-7.3,53.7-11c13.5-3.6,27.1-7.3,40.6-10.9c7.8-3.5,15.9-2.5,20.5,2.2
			c0.7,0.7,3.1,3.4,3.5,7.3c0.7,6.8-5.1,14.3-14.6,17.9c-15.6,4.2-31.2,8.3-46.7,12.5c-16,4.1-32.1,8.1-48.1,12.2l10.6,0.4
			c30.7-8,61.4-16.1,92-24.1c1.3-1,6.6-4.9,13.9-4.3c1.6,0.1,8.2,0.7,12.4,6.2c0.7,1,3.8,5,2.9,10c-0.7,4.2-3.6,6.6-6.2,8.8
			c-5.6,4.7-11.8,6.2-15.9,6.7c-25.3,8.4-50.5,16.8-75.8,25.3l-28,10c17.5-5,35-10,52.5-15c14.7-5.6,29.3-11.1,44-16.7
			c5.6-2.5,12-1,15.2,3.2c3,3.8,2.7,9,1,12.5c-2.4,4.9-7.8,6.7-11,7.8c-17.6,6.2-9,7.2-42,20.7c-8.4,3.4-15,5.8-22,8.4
			c-11.1,4-20.4,7.1-27.2,9.3c9.8-0.8,17.4-2.6,22.5-4.1c8-2.4,16.6-6,31.6-10.3c6.9-2,11.2-2.9,15-0.6c3.6,2.2,6,7.1,5.3,11.2
			c-1.1,6.6-9.9,10.1-14.7,12c-18,7.2-22.7,10.5-22.7,10.5c-44.6,13.9-85.8,24.3-85.8,24.3c-38.7,9.8-39.9,11.1-54.8,13.3
			C433.4,840.3,414.5,840.4,401.5,839.9z"/>
		<path id="XMLID_747_" class="st4" d="M650.1,677.7c-2.8,0.6-5.6,1.2-8.3,1.8c0,0-7.2-0.1-7.1-7.3c0.1-7.2,2.8-7.2,2.8-7.2
			c3-1.3,6-2.7,8.9-4c4.1,2,6.7,6,6.5,10.1C652.9,674.6,650.9,677,650.1,677.7z"/>
		<path id="XMLID_746_" class="st4" d="M664.8,707.6c-1.9-1.1-3.9-2.3-5.8-3.4c-0.8-3.1-1.6-6.1-2.4-9.2c1.1-1.9,2.3-3.9,3.4-5.8
			c0.6-0.4,4.1-2.8,8.3-1.8c4.7,1.1,8.2,5.7,7.9,10.4c-0.2,4.4-3.6,7.1-4.5,7.7C668.9,707.5,665.8,707.6,664.8,707.6z"/>
		<path id="XMLID_745_" class="st4" d="M646.9,737.1l-2.4-9.2l4.2-6c2.6-1,5.2-2,7.8-3c3.8,0.6,6.9,3.2,8,6.8
			c1.3,4.2-0.6,8.9-4.6,11.3c-2.9,1.1-5.8,2.2-8.6,3.2L646.9,737.1z"/>
		<path id="XMLID_744_" class="st4" d="M620.4,784.2l-2.6-8.1l3.2-5.4c2.2-0.9,4.4-1.8,6.6-2.6c3.3,0.5,6.1,2.8,7.3,5.9
			c1.4,3.7,0.1,7.9-3.2,10c-2.4,1-4.8,1.9-7.2,2.9L620.4,784.2z"/>
		<path id="XMLID_743_" class="st4" d="M535.5,638.9c-1.2,1.2-2.4,2.4-3.6,3.6c-2,0.8-5.5,1.9-9.8,1.5c-1.6-0.2-3-0.5-4.2-0.9
			c4.2-2.7,8.4-5.4,12.6-8.2C532.2,636.3,533.8,637.6,535.5,638.9z"/>
	</g>
	<g id="XMLID_723_">
		<path id="XMLID_138_" class="st5" d="M3016.9,622.5c-38.9,4.7-84.3,7.6-134.9,5.8c-40.6-1.4-77.5-5.6-110-10.9
			c-14.8-17.7-29.5-35.4-44.3-53.1c-1.6-1.9-4.1-4.6-7.8-6.9c-8.8-5.6-16.8-4.5-27-5.5c-13.8-1.4-10.1-4.4-31.4-8.7
			c-21.4-4.4-25.1-1.3-32.5-6.8c-2.3-1.7-6.9-5.6-12.6-5.1c-1.3,0.1-4.2,0.6-6.5,2.9c-3.6,3.5-3.2,8.9-3.1,10.2
			c1,13,18.7,23.4,32.2,27.1c1.8,0.5,3.2,0.8,4.1,1c5.5,1.6,11.9,3.9,18.7,7.2c4.9,2.4,9.1,4.9,12.8,7.3c-2.4,0.6-6.1,1.4-10.6,1.9
			c-10.6,1.1-16.7-0.9-29.4-1.7c-3.9-0.3-9.7-0.5-16.6-0.2c-38.4,0.8-76.8,1.6-115.2,2.4c-0.5,0-11.5-0.4-16.3,7.8
			c-0.4,0.7-2.6,4.3-1.9,8.3c1.1,7.1,11,13.3,24.4,13.6c-8.9-0.1-17.8-0.3-26.8-0.4c-7.2-0.7-13.7,3.2-15.8,8.7
			c-2.7,7.2,2.2,17.2,12.2,19.5c5.3,1,10.7,2,16,3c-1,0.2-8,1.9-10.5,7.7c-2.8,6.5,1.1,16.1,10.5,20.6
			c38.2,5.2,76.5,10.4,114.7,15.7c0.4,1.3,0.8,2.6,1.3,3.9c-11.8-0.2-24.5-0.9-37.9-2.3c-14.9-1.5-28.8-3.6-41.4-6
			c-4.2-1.9-9-1.3-12,1.6c-4.7,4.6-1.8,11.9-1.5,12.7c2.6,6.2,9,7.9,9.7,8.1c8.7,2.2,17.3,4.5,26,6.7l48,8.9l25.5-0.6
			c24.2,4.5,57.5,7.7,96.1,1.9c17-2.5,32.1-6.4,45.3-10.6c5.1-0.3,13-0.6,22.5,0.1c19.9,1.4,34.6,6.1,40.3,7.9
			c23.1,7.2,91.3,27.5,183.8,55.6c6.7-18,14.9-46.8,14.8-82.9C3029.6,666.2,3022.8,639.9,3016.9,622.5z"/>
		<path id="XMLID_741_" class="st4" d="M2614.6,532.3c3.5-0.4,6.1,1.1,6.9,1.6l9.4,3.8c-3.7-3.6-7.4-5.2-9.6-6c-2.9-1-5.9-2-8.6-0.5
			c-1.5,0.8-2.4,2.1-2.9,3C2610.7,533.5,2612.3,532.6,2614.6,532.3z"/>
		<g id="XMLID_740_" class="st8">
			
				<rect id="XMLID_87_" x="2505" y="632.9" transform="matrix(8.591744e-02 -0.9963 0.9963 8.591744e-02 1667.9138 3084.6655)" class="st3" width="20" height="1"/>
		</g>
		<g id="XMLID_739_" class="st8">
			
				<rect id="XMLID_86_" x="2550.2" y="635.1" transform="matrix(5.671649e-02 -0.9984 0.9984 5.671649e-02 1780.823 3155.9983)" class="st3" width="20.8" height="1"/>
		</g>
		<g id="XMLID_738_" class="st8">
			
				<rect id="XMLID_85_" x="2605.6" y="626.8" transform="matrix(0.9997 -2.419202e-02 2.419202e-02 0.9997 -14.7099 63.2345)" class="st3" width="1" height="25.6"/>
		</g>
		<g id="XMLID_737_" class="st8">
			
				<rect id="XMLID_84_" x="2516.7" y="603.7" transform="matrix(2.828867e-02 -0.9996 0.9996 2.828867e-02 1852.9584 3114.4431)" class="st3" width="23.3" height="1"/>
		</g>
		<g id="XMLID_736_" class="st8">
			
				<rect id="XMLID_83_" x="2560.6" y="603.1" transform="matrix(0.1603 -0.9871 0.9871 0.1603 1563.3177 3044.8284)" class="st3" width="21.3" height="1"/>
		</g>
		<g id="XMLID_735_" class="st8">
			
				<rect id="XMLID_82_" x="2600.8" y="605.2" transform="matrix(0.3077 -0.9515 0.9515 0.3077 1232.8921 2905.7739)" class="st3" width="24.8" height="1"/>
		</g>
		<g id="XMLID_734_" class="st8">
			
				<rect id="XMLID_81_" x="2519.5" y="667.3" transform="matrix(3.707450e-02 -0.9993 0.9993 3.707450e-02 1768.6011 3171.0281)" class="st3" width="20.5" height="1"/>
		</g>
		<g id="XMLID_733_" class="st8">
			
				<rect id="XMLID_80_" x="2559.9" y="671.1" transform="matrix(5.272687e-02 -0.9986 0.9986 5.272687e-02 1763.0231 3201.7683)" class="st3" width="18.5" height="1"/>
		</g>
		<g id="XMLID_732_" class="st8">
			
				<rect id="XMLID_79_" x="2597.3" y="676.1" transform="matrix(2.249431e-02 -0.9997 0.9997 2.249431e-02 1874.0493 3269.9668)" class="st3" width="23.7" height="1"/>
		</g>
		<g id="XMLID_731_" class="st8">
			
				<rect id="XMLID_78_" x="2545.6" y="705.9" transform="matrix(0.2149 -0.9766 0.9766 0.2149 1315.0264 3048.7366)" class="st3" width="16.4" height="1"/>
		</g>
		<g id="XMLID_730_" class="st8">
			
				<rect id="XMLID_77_" x="2577" y="710.7" transform="matrix(0.124 -0.9923 0.9923 0.124 1560.1865 3189.7546)" class="st3" width="19.3" height="1"/>
		</g>
		<g id="XMLID_729_" class="st8">
			
				<rect id="XMLID_76_" x="2619.4" y="702.3" transform="matrix(0.9766 -0.2149 0.2149 0.9766 -91.9504 579.5931)" class="st3" width="1" height="20.9"/>
		</g>
		<g id="XMLID_728_" class="st8">
			
				<rect id="XMLID_75_" x="2675.7" y="580.1" transform="matrix(0.8005 -0.5994 0.5994 0.8005 188.2275 1726.5889)" class="st3" width="23.6" height="1"/>
		</g>
		<g id="XMLID_727_" class="st8">
			
				<rect id="XMLID_74_" x="2644.4" y="567" transform="matrix(0.4173 -0.9088 0.9088 0.4173 1027.8663 2737.9819)" class="st3" width="9.1" height="1"/>
		</g>
		<g id="XMLID_726_">
			<polygon id="XMLID_73_" class="st3" points="2774,713.1 2771.7,704.6 2768.5,680.5 2776.6,661.2 2781.6,633.4 2782.6,633.6 
				2777.5,661.6 2769.5,680.6 2772.7,704.5 2775,712.8 			"/>
		</g>
		<path id="XMLID_725_" class="st9" d="M2508.9,618.9c6.5-0.3,13-0.5,19.5-0.8c5.6,0.3,11.6,0.5,17.7,0.6c8.3,0,16.1-0.2,23.4-0.7
			c6.7,0.5,13.8,0.7,21.4,0.7c6.5,0,12.7-0.3,18.6-0.7c1.5,0.3,3.1,0.5,4.6,0.8c-2.7,1.1-5.4,2.3-8.1,3.4c-7.4-0.8-15.4-1.3-24-1.5
			c-7.4-0.1-14.3,0.1-20.7,0.5c-1.9,0-3.8-0.1-5.7-0.1c-13.3-0.3-26.5-0.5-39.7-0.6c-5.8,0-11.6,0-17.3-0.1
			c-1.6-0.2-3.3-0.6-3.3-0.8C2495.5,619.2,2500,618.9,2508.9,618.9z"/>
		<polygon id="XMLID_724_" class="st9" points="2494.5,649.7 2608,657.5 2490.5,653.6 		"/>
	</g>
	<g id="XMLID_703_">
		<path id="XMLID_137_" class="st5" d="M3016.9,622.5c-38.9,4.7-84.3,7.6-134.9,5.8c-40.6-1.4-77.5-5.6-110-10.9
			c-14.8-17.7-29.5-35.4-44.3-53.1c-1.6-1.9-4.1-4.6-7.8-6.9c-8.8-5.6-16.8-4.5-27-5.5c-13.8-1.4-10.1-4.4-31.4-8.7
			c-21.4-4.4-25.1-1.3-32.5-6.8c-2.3-1.7-6.9-5.6-12.6-5.1c-1.3,0.1-4.2,0.6-6.5,2.9c-3.6,3.5-3.2,8.9-3.1,10.2
			c1,13,18.7,23.4,32.2,27.1c1.8,0.5,3.2,0.8,4.1,1c5.5,1.6,11.9,3.9,18.7,7.2c4.9,2.4,9.1,4.9,12.8,7.3c-2.4,0.6-6.1,1.4-10.6,1.9
			c-10.6,1.1-16.7-0.9-29.4-1.7c-3.9-0.3-9.7-0.5-16.6-0.2c-38.4,0.8-76.8,1.6-115.2,2.4c-0.5,0-11.5-0.4-16.3,7.8
			c-0.4,0.7-2.6,4.3-1.9,8.3c1.1,7.1,11,13.3,24.4,13.6c-8.9-0.1-17.8-0.3-26.8-0.4c-7.2-0.7-13.7,3.2-15.8,8.7
			c-2.7,7.2,2.2,17.2,12.2,19.5c5.3,1,10.7,2,16,3c-1,0.2-8,1.9-10.5,7.7c-2.8,6.5,1.1,16.1,10.5,20.6
			c38.2,5.2,76.5,10.4,114.7,15.7c0.4,1.3,0.8,2.6,1.3,3.9c-11.8-0.2-24.5-0.9-37.9-2.3c-14.9-1.5-28.8-3.6-41.4-6
			c-4.2-1.9-9-1.3-12,1.6c-4.7,4.6-1.8,11.9-1.5,12.7c2.6,6.2,9,7.9,9.7,8.1c8.7,2.2,17.3,4.5,26,6.7l48,8.9l25.5-0.6
			c24.2,4.5,57.5,7.7,96.1,1.9c17-2.5,32.1-6.4,45.3-10.6c5.1-0.3,13-0.6,22.5,0.1c19.9,1.4,34.6,6.1,40.3,7.9
			c23.1,7.2,91.3,27.5,183.8,55.6c6.7-18,14.9-46.8,14.8-82.9C3029.6,666.2,3022.8,639.9,3016.9,622.5z"/>
		<path id="XMLID_722_" class="st10" d="M2580,675c-31.5-4.9-67.7,0.8-92.7-21.8c-1.3,1.1-2.5,2.5-3.2,4.2
			c-2.8,6.5,1.1,16.1,10.5,20.6c38.2,5.2,76.5,10.4,114.7,15.7c0.4,1.3,0.8,2.6,1.3,3.9c-11.8-0.2-24.5-0.9-37.9-2.3
			c-14.9-1.5-28.8-3.6-41.4-6c-4.2-1.9-9-1.3-12,1.6c-4.7,4.6-1.8,11.9-1.5,12.7c2.6,6.2,9,7.9,9.7,8.1c8.7,2.2,17.3,4.5,26,6.7
			l48,8.9l25.5-0.6c16.2,3,36.5,5.4,59.7,5c56.8-3.9,69.6-8.6,69.7-12.4c0.4-9.3-76-16.9-142.3-36.4
			C2606.5,680.8,2595.6,677.4,2580,675z"/>
		<path id="XMLID_721_" class="st4" d="M2614.6,532.3c3.5-0.4,6.1,1.1,6.9,1.6l9.4,3.8c-3.7-3.6-7.4-5.2-9.6-6c-2.9-1-5.9-2-8.6-0.5
			c-1.5,0.8-2.4,2.1-2.9,3C2610.7,533.5,2612.3,532.6,2614.6,532.3z"/>
		<g id="XMLID_720_" class="st8">
			
				<rect id="XMLID_72_" x="2505" y="632.9" transform="matrix(8.591744e-02 -0.9963 0.9963 8.591744e-02 1667.9138 3084.6655)" class="st3" width="20" height="1"/>
		</g>
		<g id="XMLID_719_" class="st8">
			
				<rect id="XMLID_71_" x="2550.2" y="635.1" transform="matrix(5.671649e-02 -0.9984 0.9984 5.671649e-02 1780.823 3155.9983)" class="st3" width="20.8" height="1"/>
		</g>
		<g id="XMLID_718_" class="st8">
			
				<rect id="XMLID_70_" x="2605.6" y="626.8" transform="matrix(0.9997 -2.419202e-02 2.419202e-02 0.9997 -14.7099 63.2345)" class="st3" width="1" height="25.6"/>
		</g>
		<g id="XMLID_717_" class="st8">
			
				<rect id="XMLID_69_" x="2516.7" y="603.7" transform="matrix(2.828867e-02 -0.9996 0.9996 2.828867e-02 1852.9584 3114.4431)" class="st3" width="23.3" height="1"/>
		</g>
		<g id="XMLID_716_" class="st8">
			
				<rect id="XMLID_68_" x="2560.6" y="603.1" transform="matrix(0.1603 -0.9871 0.9871 0.1603 1563.3177 3044.8284)" class="st3" width="21.3" height="1"/>
		</g>
		<g id="XMLID_715_" class="st8">
			
				<rect id="XMLID_67_" x="2600.8" y="605.2" transform="matrix(0.3077 -0.9515 0.9515 0.3077 1232.8921 2905.7739)" class="st3" width="24.8" height="1"/>
		</g>
		<g id="XMLID_714_" class="st8">
			
				<rect id="XMLID_66_" x="2519.5" y="667.3" transform="matrix(3.707450e-02 -0.9993 0.9993 3.707450e-02 1768.6011 3171.0281)" class="st3" width="20.5" height="1"/>
		</g>
		<g id="XMLID_713_" class="st8">
			
				<rect id="XMLID_65_" x="2559.9" y="671.1" transform="matrix(5.272687e-02 -0.9986 0.9986 5.272687e-02 1763.0231 3201.7683)" class="st3" width="18.5" height="1"/>
		</g>
		<g id="XMLID_712_" class="st8">
			
				<rect id="XMLID_64_" x="2597.3" y="676.1" transform="matrix(2.249431e-02 -0.9997 0.9997 2.249431e-02 1874.0493 3269.9668)" class="st3" width="23.7" height="1"/>
		</g>
		<g id="XMLID_711_" class="st8">
			
				<rect id="XMLID_63_" x="2545.6" y="705.9" transform="matrix(0.2149 -0.9766 0.9766 0.2149 1315.0264 3048.7366)" class="st3" width="16.4" height="1"/>
		</g>
		<g id="XMLID_710_" class="st8">
			
				<rect id="XMLID_62_" x="2577" y="710.7" transform="matrix(0.124 -0.9923 0.9923 0.124 1560.1865 3189.7546)" class="st3" width="19.3" height="1"/>
		</g>
		<g id="XMLID_709_" class="st8">
			
				<rect id="XMLID_58_" x="2619.4" y="702.3" transform="matrix(0.9766 -0.2149 0.2149 0.9766 -91.9504 579.5931)" class="st3" width="1" height="20.9"/>
		</g>
		<g id="XMLID_708_" class="st8">
			
				<rect id="XMLID_57_" x="2675.7" y="580.1" transform="matrix(0.8005 -0.5994 0.5994 0.8005 188.2275 1726.5889)" class="st3" width="23.6" height="1"/>
		</g>
		<g id="XMLID_707_" class="st8">
			
				<rect id="XMLID_55_" x="2644.4" y="567" transform="matrix(0.4173 -0.9088 0.9088 0.4173 1027.8663 2737.9819)" class="st3" width="9.1" height="1"/>
		</g>
		<g id="XMLID_706_">
			<polygon id="XMLID_54_" class="st3" points="2774,713.1 2771.7,704.6 2768.5,680.5 2776.6,661.2 2781.6,633.4 2782.6,633.6 
				2777.5,661.6 2769.5,680.6 2772.7,704.5 2775,712.8 			"/>
		</g>
		<path id="XMLID_705_" class="st9" d="M2508.9,618.9c6.5-0.3,13-0.5,19.5-0.8c5.6,0.3,11.6,0.5,17.7,0.6c8.3,0,16.1-0.2,23.4-0.7
			c6.7,0.5,13.8,0.7,21.4,0.7c6.5,0,12.7-0.3,18.6-0.7c1.5,0.3,3.1,0.5,4.6,0.8c-2.7,1.1-5.4,2.3-8.1,3.4c-7.4-0.8-15.4-1.3-24-1.5
			c-7.4-0.1-14.3,0.1-20.7,0.5c-1.9,0-3.8-0.1-5.7-0.1c-13.3-0.3-26.5-0.5-39.7-0.6c-5.8,0-11.6,0-17.3-0.1
			c-1.6-0.2-3.3-0.6-3.3-0.8C2495.5,619.2,2500,618.9,2508.9,618.9z"/>
		<polygon id="XMLID_704_" class="st9" points="2494.5,649.7 2608,657.5 2490.5,653.6 		"/>
	</g>
	<g id="XMLID_697_">
		<path id="XMLID_136_" class="st11" d="M2646.7,900.9c6.8,4,16.9,10,29.1,17.3c34.9,20.9,56.4,33.7,77.8,47.5
			c17.6,11.3,42,27.6,70.6,49c2,0.9,5.5,2.3,10,2.6c37.7,2.2,88.2-79.5,65.5-117c-5-8.3-12.8-13.3-20.2-16.4
			c-20.7-3.9-43.8-9.5-68.4-18c-47.1-16.2-85-37.4-113.3-56.4c-10.3-14.9-17.6-27.6-22.2-36.2c-11.8-21.9-11.8-27-20.8-36.2
			c-7-7.2-6.7-3.8-32.4-22.5c-12.9-9.3-15.5-12.1-23-14.9c-12.5-4.8-15.2-1.1-24.2-6.4c-10.4-6.1-13-14.7-20.9-14.3
			c-0.5,0-5.3,0.3-7.7,3.7c-5.5,7.8,7.5,24.1,8.7,25.7c3.3,4.2,10.5,11.8,23.5,16.8c4.6,4.1,9.2,8.1,13.9,12.2
			c-15.9-5.5-31.9-10.9-47.8-16.4c-16.9-6.9-33.8-13.7-50.8-20.6c-12.7-6-25.3-12.1-38-18.1c-7-4.8-15.2-5.4-20.6-1.6
			c-0.8,0.6-3.7,2.7-4.8,6.5c-1.9,6.6,2.4,15,11.1,20.2c14.6,6.9,29.1,13.8,43.7,20.8c15,6.9,30.1,13.8,45.1,20.8l-10.5-1.6
			c-28.7-13.5-57.4-27-86.1-40.4c-1.1-1.2-5.6-6-12.9-6.7c-1.6-0.2-8.2-0.8-13.3,3.9c-0.9,0.8-4.6,4.2-4.7,9.3
			c-0.1,4.2,2.4,7.2,4.5,9.8c4.6,5.6,10.5,8.3,14.4,9.5c23.3,12.9,46.6,25.7,70,38.6l25.7,14.9c-16.3-8.1-32.6-16.2-48.9-24.3
			c-13.4-8.1-26.8-16.3-40.3-24.4c-5.1-3.5-11.6-3.2-15.6,0.4c-3.6,3.2-4.3,8.4-3.2,12.1c1.5,5.3,6.4,8,9.4,9.7
			c16.2,9.3,7.5,8.7,37.6,28c7.7,4.9,13.6,8.4,20.1,12.2c10.2,6,18.8,10.7,25.1,14.1c-9.5-2.5-16.6-5.7-21.3-8.1
			c-7.5-3.8-15.2-8.9-29.2-15.9c-6.5-3.2-10.5-4.9-14.6-3.3c-4,1.6-7.2,5.9-7.2,10.1c-0.1,6.7,7.9,11.7,12.3,14.5
			c33.3,21.1,20.2,19.5,53.3,37.7c19.7,10.8,35.6,17.6,41.6,20.1c21.9,9.1,39.1,14.1,57.1,19.2
			C2607.6,892,2625.5,896.6,2646.7,900.9z"/>
		<path id="XMLID_702_" class="st4" d="M2432.2,696.5c2.4,1,4.8,2,7.2,3c0.1,0.1,0.3,0.1,0.4,0.1c1.2,0.1,7,0.4,8.1-5.9
			c1.2-7.1-1.5-7.6-1.5-7.6c-2.5-1.7-4.9-3.4-7.4-5.1c-0.4-0.3-0.9-0.4-1.4-0.2c-4,1.4-6.9,4.7-7.5,8.5c-0.4,3,0.7,5.4,1.3,6.6
			C2431.6,696.1,2431.8,696.4,2432.2,696.5z"/>
		<path id="XMLID_701_" class="st4" d="M2412.4,722.8c1.6-0.6,3.3-1.2,4.9-1.8c0.5-0.2,1-0.6,1.2-1.1c1.1-2.4,2.1-5.2,3.2-7.6
			c0.3-0.6,0.2-1.4-0.1-2c-1.4-2.1-2.7-3.9-4.1-6.1c-0.2-0.3-0.5-0.6-0.9-0.8c-1.1-0.5-2.7-1.1-4.6-1c-4.5,0.2-9,3.9-9.7,8.7
			c-0.6,4.4,2.3,7.6,3.1,8.4c2.1,2.1,4.5,2.9,5.8,3.2C2411.6,723,2412,722.9,2412.4,722.8z"/>
		<path id="XMLID_700_" class="st4" d="M2424.7,753.7l2.6-5.5c0.5-1,0.5-2.2,0.2-3.3l-0.4-1.1c-0.3-0.8-0.8-1.5-1.5-2.1
			c-1.9-1.4-4.4-3.7-6.3-5.2c-1-0.7-2.2-1-3.4-0.8c-3,0.5-5.7,2.4-7,5c-1.9,3.7-1.1,8.5,2.1,11.6c0.2,0.2,0.5,0.4,0.8,0.6
			c1.8,1.1,3.7,2.2,5.5,3.3c1.2,0.7,2.8,0.8,4.1,0.2l1.3-0.6C2423.5,755.4,2424.3,754.7,2424.7,753.7z"/>
		<path id="XMLID_699_" class="st4" d="M2442.2,805.2l2.4-4.4c0.7-1.2,0.6-2.7-0.1-3.9l-2.6-4.4c-0.3-0.6-0.8-1.1-1.4-1.4
			c-1.2-0.7-2.3-1.2-3.5-1.9c-1-0.6-2.1-0.7-3.2-0.3c-2,0.7-3.3,2.6-4.6,4.8c-1.9,3.2-1.5,7.4,1,10.1c0.2,0.2,0.5,0.4,0.8,0.6
			c1.5,0.9,2.9,1.8,4.4,2.8c1.1,0.7,2.5,0.8,3.7,0.3l1.3-0.6C2441.1,806.5,2441.8,805.9,2442.2,805.2z"/>
		<path id="XMLID_698_" class="st4" d="M2552,679.7c0.8,1.2,1.6,2.3,2.4,3.5c2,1.3,5.2,2.9,9.3,3.3c1.1,0.1,2.1,0.1,3,0
			c-3.2-3.5-6.4-7-9.6-10.4c-2.9-0.4-5.1,0.7-5.5,2C2551.5,678.2,2551.4,678.8,2552,679.7z"/>
	</g>
	<polygon id="XMLID_696_" class="st12" points="1525,1685 1710,1643 1771.8,1726.5 1536.7,1726.5 	"/>
	<path id="XMLID_695_" class="st12" d="M1729.8,1655.4l-199.4,62.9c-4.4,1.4-9.1-1-10.4-5.4l-8.5-27c-1.4-4.4,1-9.1,5.4-10.4
		l199.4-62.9c4.4-1.4,9.1,1,10.4,5.4l8.5,27C1736.7,1649.3,1734.2,1654,1729.8,1655.4z"/>
	<path id="XMLID_694_" class="st13" d="M2822.1,861.1l-56.2,114.7c-1.7,3.5-6,5-9.5,3.2l-24-11.7c-3.5-1.7-5-6-3.2-9.5l56.2-114.7
		c1.7-3.5,6-5,9.5-3.2l24,11.7C2822.4,853.3,2823.8,857.6,2822.1,861.1z"/>
	<path id="XMLID_693_" class="st13" d="M2916,626l-16.4,126.7c-0.5,3.9-4,6.6-7.9,6.1l-26.5-3.4c-3.9-0.5-6.6-4-6.1-7.9l16.4-126.7
		c0.5-3.9,4-6.6,7.9-6.1l26.5,3.4C2913.8,618.6,2916.5,622.1,2916,626z"/>
	<g id="XMLID_692_" class="st14">
		
			<rect id="XMLID_53_" x="2871.3" y="727.7" transform="matrix(0.1762 -0.9844 0.9844 0.1762 1637.3579 3444.9839)" class="st13" width="11" height="33.1"/>
	</g>
	<g id="XMLID_691_" class="st14">
		
			<rect id="XMLID_52_" x="2875.8" y="700.6" transform="matrix(0.1361 -0.9907 0.9907 0.1361 1777.2291 3475.1199)" class="st13" width="11" height="35.8"/>
	</g>
	<g id="XMLID_690_" class="st14">
		
			<rect id="XMLID_51_" x="2880.7" y="666.6" transform="matrix(0.1522 -0.9883 0.9883 0.1522 1769.3896 3433.6504)" class="st13" width="11" height="37.7"/>
	</g>
	<g id="XMLID_689_" class="st14">
		
			<rect id="XMLID_42_" x="2884.4" y="632.8" transform="matrix(0.1443 -0.9895 0.9895 0.1443 1828.7643 3416.6062)" class="st13" width="11" height="36.2"/>
	</g>
	<g id="XMLID_688_" class="st14">
		
			<rect id="XMLID_41_" x="2888.2" y="608.7" transform="matrix(9.517154e-02 -0.9955 0.9955 9.517154e-02 1993.4762 3448.4956)" class="st13" width="11" height="37.8"/>
	</g>
	<polygon id="XMLID_687_" class="st15" points="1304.7,1050.2 1294.3,1088.8 1284.9,1139 1283.7,1142.6 1281.7,1128.1 
		1286.4,1077.9 1284.1,1067 1288.4,1072.5 1283.5,1131.7 1298.6,1064.5 	"/>
	<polygon id="XMLID_686_" class="st16" points="704.4,1106 714.6,1104.9 715.7,1112.7 710.1,1111.7 	"/>
	<polygon id="XMLID_685_" class="st16" points="582.2,1059.3 585.8,1055.5 592.4,1060.9 593.4,1068.4 592.6,1070.2 	"/>
	<polygon id="XMLID_684_" class="st17" points="668.8,1158 685.1,1157.6 686.8,1163.8 683.2,1169.8 678.8,1174.1 	"/>
	<path id="XMLID_135_" class="st18" d="M265.3,1209.9c37.4-5.6,65.8-13.4,85.2-19.7c18.9-6.2,31.5-11.6,58.8-18.8
		c26.6-7,27.2-5.2,34.3-9.5c23.4-14.3,22.4-41.6,44.8-52.8c8.3-4.2,17.4-7.9,17.4-7.9c9.7-4,11.9-4.3,18.3-7.5
		c6.6-3.4,11.4-6.7,15.6-9.7c7.4-5.2,9.6-8.8,14.4-11.3c8.9-4.6,17.8-9.2,26.8-13.8c7.4,2.6,12.4,8.1,12.6,13.9
		c0.1,1.3-0.1,3.4-1.4,5.9c8.2-3.1,16.3-6.2,24.5-9.3c14.5-1.9,29-3.8,43.5-5.7c15.4,0.3,30.8,0.6,46.2,0.9
		c0.4,0.6,3.3,5.4,1.1,10.2c-0.7,1.5-1.7,2.6-2.5,3.3c7.2,0.1,14.4,0.2,21.5,0.3c0.7,1.6,2.7,6.9,0.4,12.1c-1.9,4.3-5.8,6.1-9.8,7.8
		c-6.3,2.8-10.7,2.7-24.4,3.9c-5.4,0.5-9.7,1-12.5,1.3c-2.6,1.1-5.2,2.2-7.8,3.2c-8.3,3.3-16.3,6-24.1,8.4c11.5-2.4,23-4.9,34.5-7.3
		c8.6-0.7,17.2-1.5,25.8-2.2c1.3,1.4,4.3,5.2,4.3,10.5c0,0,0,2.5-1,5c-2.3,5.9-15.9,10.6-34.2,11.7c-4.3,2.5-10.4,5.6-18.3,7.5
		c-6.2,1.5-11.7,2-16,2c-6.2,3.7-12.5,7.6-18.9,11.6c-5.6,3.5-11,7-16.3,10.5c4.7-1,9.3-2,14-3c12.6-1.2,25-2.4,37.6-3.7l16.2,0.2
		c0.9-0.1,2.5-0.3,4.1,0.6c3.7,2,3.3,7.4,3.2,7.8c0,0-0.3,2.9-2.3,5.5c-5.8,7.5-24.3,5.8-25.2,5.7c-4.2,1.8-10,3.8-17.2,4.8
		c-4.6,0.6-8.7,0.6-12.1,0.4c-3.9,3.1-9.2,6.6-15.9,9.6c-4.1,1.8-8,3.1-11.4,3.9c-2.8,2.9-7.4,7.1-14.1,10.4
		c-5.8,2.9-11.2,4.1-14.9,4.6c-9.5,7.5-24.6,17.3-44.7,21.4c-22.5,4.6-34.2-1.4-57.8,0.8c-16.7,1.5-28.1,6.1-58.2,20.1
		c-26.7,12.4-60.5,28.8-99.7,49.4c-6.5-13.7-13-27.3-19.5-41C281.9,1244.8,273.6,1227.3,265.3,1209.9z"/>
	<path id="XMLID_134_" class="st19" d="M591.9,1110.1c4.6-0.3,11.7-1.4,19.4-4.9c5.8-2.7,10.3-5.9,13.3-8.5c5.8,0,13.9-0.6,23.1-3.4
		c7.9-2.4,14.2-5.7,18.7-8.4c3.6,0.9,8.2,1.5,13.5,1.3c11.8-0.5,20.5-5.1,25-8l-17,10.1l-21.6-0.6c0,0-22.8,9.8-24.9,12.2
		c-2.1,2.4-16.7,0.1-16.7,0.1l-16.9,13l-20.1,1.4l1.3-3.2L591.9,1110.1z"/>
	<path id="XMLID_133_" class="st19" d="M651.6,1113.8c-5,2.7-10.8,5.4-17.4,7.9c-5.8,2.2-11.3,3.9-16.2,5.1c-4.8,2-9.6,3.9-14.4,5.9
		c-1.2,2-2.4,4-3.6,6.1l8.8-5l21.5-7.3l16-6.5l31.1-9.5l27.1-4.5l-31,2.8L651.6,1113.8z"/>
	<g id="XMLID_132_">
		<path id="XMLID_40_" class="st20" d="M776.5,1291.6l-1-0.2c1.7-6.9,4.1-13.5,7.2-19.9c3.3-6.7,7.4-13,12.1-18.7
			c-1.1-7.4-1.9-15-2.4-22.5c-0.7-10.8-0.9-21.7-0.4-32.6c-2.9-3.8-6.5-10-7.5-18.4c-1.1-8.5,0.9-15.4,2.7-19.7l0.9,0.4
			c-1.8,4.2-3.7,11-2.7,19.2c1,8.3,4.6,14.4,7.4,18.1l0.1,0.1l0,0.2c-0.5,10.8-0.3,21.8,0.4,32.6c0.5,7.5,1.3,15.2,2.4,22.7l0,0.2
			l-0.1,0.2c-4.7,5.7-8.8,12-12.1,18.7C780.5,1278.2,778.1,1284.8,776.5,1291.6z"/>
	</g>
	<path id="XMLID_131_" class="st18" d="M653,1591.8c15.4-28.9,25.9-54.2,32.9-73c15.6-42,25.8-70.1,18.5-90.9
		c-2-5.6-9.4-22.5-11.1-38.2c-0.2-1.6-0.6-5.5-2.1-10.6c-2.5-8.3-6.2-13.7-8.8-17.8c-12.1-18.7-8.5-21-19-35
		c-6.5-8.7-8.7-8.8-12.8-16.2c-4.6-8.5-6.3-16.7-6.9-22.4c-3.3-6.1-6.5-12.1-9.8-18.2c7.4-6,13.4-5.7,15.3-5.5
		c9.7,1,15.8,10.8,20.5,18.3c3.4,5.4,5.3,10.3,6.3,13.5c12.5,13.2,25,26.3,37.4,39.5c11.9-13.8,16.9-24.6,19.1-32.1
		c0.8-2.5,2.4-8.6,6.6-15.7c3.3-5.6,6.9-9.7,9.5-12.3c1.2-5.9,2.7-12.2,4.6-18.7c2.6-9.3,5.5-17.9,8.6-25.7
		c4.4-16.6,6-30.1,6.7-39.5c1-13,1.2-32.5,9.7-41.5c1.4-1.5,4.5-4.7,8.2-4.1c3.1,0.5,5,3.4,5.7,4.5c0.7,7.5,1.5,15.1,2.2,22.6
		l-1.8,58.8l3.1-7.4l6-43c0.5-11.4,1-22.7,1.5-34.1c0.4-1.1,1.1-2.8,2.8-4.2c3.5-2.8,8.7-2.5,12.1-0.4c4.3,2.6,6.3,8.3,4.8,13.9
		c0.4,4.2,0.9,8.3,1.3,12.5c1.5-3.1,4.9-4.9,8.2-4.1c3.2,0.7,5.6,3.5,5.8,6.8l2.7,53.2c0.6-1.2,4.3-8.3,7.5-7.7
		c2.2,0.4,3.2,4.2,3.8,7c3.9,17.3,2,34.5,2,55c0,4.2,0.1,6.1,0.1,7.6c0,12.8-4.9,41.7-42,110.3l-13.8,27.8l-5.5,18.3l2,29
		l-11.1,21.4l-30.7,128.1c-0.8,2.2-2.3,5.7-5.5,8.6c-22.6,20.5-98-16.1-95.7-35.6C652.3,1593.3,652.7,1592.3,653,1591.8z"/>
	<path id="XMLID_130_" class="st16" d="M778.8,1149l0.9,11.8c0,0.4-0.2,4.6,3,7.2c2.7,2.3,6.8,2.5,10.1,0.4l1.9-17.6
		c-0.1-4-3.1-7.3-7-7.8C783.6,1142.5,779.8,1145,778.8,1149z"/>
	<polygon id="XMLID_129_" class="st21" points="657.4,1178 655.2,1163.6 654.8,1178.3 	"/>
	<polygon id="XMLID_128_" class="st21" points="626.5,1183 625.2,1170.5 625.7,1183.7 	"/>
	<polygon id="XMLID_127_" class="st21" points="678.6,1132.8 673.6,1117 675.4,1134.8 677.8,1132.9 	"/>
	<polygon id="XMLID_126_" class="st21" points="634.6,1160.2 620.8,1165.5 602.9,1172.1 596.7,1179.2 602.1,1166.3 616.1,1155.9 
		607.4,1166.4 	"/>
	<path id="XMLID_125_" class="st16" d="M706.8,1065.9c-3.9-0.2-7.8-0.4-11.7-0.5l-0.2-1c4.5,0,9,0,13.5,0.1c0,0.2-0.1,0.6-0.4,0.9
		C707.6,1065.9,706.9,1065.9,706.8,1065.9z"/>
	<g id="XMLID_124_" class="st22">
		<path id="XMLID_39_" class="st20" d="M314.8,1298.1l-4.3-9c26.2-12.4,51.5-25.1,75.2-37.8l3.9-2.1c20.7-11.1,40.3-21.6,69.1-27.1
			c7.4-1.4,14.9-2.4,22.3-2.9l0.9-0.1l0.8,0.2c10.2,2.8,26.2,5.3,44.7,1.2c19.6-4.3,33.6-14.1,41.9-21.6l1.3-1.1l1.7-0.1
			c4.5-0.4,8.8-1.5,12.9-3.3c4.6-2,8.7-4.8,12.2-8.4l0.7-0.7l19.5-8.8l4.1,9.1l-17.9,8.1c-4.2,4.1-9.1,7.4-14.6,9.8
			c-4.6,2-9.5,3.4-14.5,3.9c-9.3,8.1-24.4,18.2-45.2,22.8c-20.1,4.4-37.4,1.9-48.7-1.1c-6.8,0.5-13.6,1.4-20.4,2.7
			c-27.3,5.2-46.2,15.3-66.2,26l-3.9,2.1C366.6,1272.9,341.1,1285.7,314.8,1298.1z"/>
	</g>
	<path id="XMLID_683_" class="st16" d="M808.8,1138.9l1.6,16.9l10.3,6.5c0.2,0.1,0.5,0.4,0.9,0.4c0.7,0,1.4-0.5,1.6-1.3
		c-0.6-6.4-1.1-12.8-1.7-19.3c-0.7-3.1-3.2-5.5-6.2-5.9C811.6,1135.7,809,1138.7,808.8,1138.9z"/>
	<path id="XMLID_682_" class="st16" d="M826.4,1166.8l1.7,16.7l6.5,5.1l3.3,1.4c0,0,1.1-1.3,1.2-1.5c0-0.2-1.3-20.2-1.3-20.2
		c0-0.2-0.7-3.5-3.5-4.7C831.6,1162.5,828.2,1163.7,826.4,1166.8z"/>
	<path id="XMLID_681_" class="st16" d="M843.8,1220.3l2.4,13.3c0.5,1.1,1.5,3,3.5,4.7c1.9,1.6,3.7,2.4,4.9,2.8l-2.1-22.2
		c-0.3-0.3-1.7-1.7-3.9-1.6C846.5,1217.2,844.7,1218.4,843.8,1220.3z"/>
	<path id="XMLID_680_" class="st17" d="M642.4,1267.7l4.3,10.5c0.4,2.6,0.7,5.6,0.6,8.9c0,1.1-0.1,2.2-0.2,3.2l-3.6-3
		c-3.8-6.9-7.6-13.8-11.5-20.6c0.6-0.5,2-1.4,3.9-1.6C639.6,1264.6,642.1,1267.3,642.4,1267.7z"/>
	<polygon id="XMLID_679_" class="st19" points="777.9,1316.7 778.2,1287.5 785.7,1259.2 793.1,1233.6 792.9,1230.3 796.4,1225.8 
		799.1,1243.9 787.8,1290.5 781.3,1306.1 780,1314.3 	"/>
	<polygon id="XMLID_678_" class="st19" points="824.1,1169.1 825,1188.8 824.5,1231 817.8,1282.6 810.9,1322.4 821.8,1276.5 
		831.6,1242.7 830.1,1220.3 829.9,1188.1 826.6,1168 	"/>
	<polygon id="XMLID_677_" class="st19" points="840.9,1224.9 842.4,1250.9 834.9,1288.1 832.5,1321 840.1,1295 845.9,1250.8 
		844.3,1223.2 	"/>
	<polygon id="XMLID_676_" class="st19" points="588.4,1084.7 580.3,1095.1 560.9,1104.9 519.7,1139.1 514.9,1150.6 511.4,1173.9 
		500.8,1196.6 522.6,1167.8 523.8,1146.6 543.2,1130.1 564.6,1109.1 583.5,1096.4 	"/>
	<polygon id="XMLID_675_" class="st16" points="713.2,1078.3 729,1078.4 730.1,1085.3 716.1,1080.6 	"/>
	<path id="XMLID_674_" class="st18" d="M2915.1,1539c0.3,0.6,1,2.2,2.5,3c16.7,9,95.2-84,81.7-101.9c-0.8-1.1-1.8-1.7-2.1-1.8
		c-32.1-16.9-64.1-33.8-96.2-50.7c0,0-49.4-33.5-58.3-39.2c-9-5.7-33.3-20-33.3-20l-27.1-35.9c0,0-14.7-28.6-18.9-32.3
		c-4.1-3.7-14-11.7-14-11.7l-3.9-13.1l-4.8-15.4c0,0-13.1-16.1-17-22.5c-3.9-6.4-8.7-15.1-8.7-15.1s-13.6,2.8-16.3,9.2
		c-2.8,6.4-10.8,13-5.1,29c5.8,16,14,23.3,14,23.3l-14.5-12.9l-76.7-45.2l-20-13.3l-31.5-15.4l-20.7-11.7l-35.1-11.2l-7.1-1.1
		c-1.6,0.4-3.9,1.3-5.3,3.4c-2.5,3.7-0.5,8.8,1.2,12.9c1.2,2.9,3.5,7.6,8.4,12.3l35.9,18.3l42.9,27.8l39.7,29.4l-45.6-29.6
		l-11.8-7.3l-27.1-14.5l-24.8-15.4l-47.1-14.4c-0.8,0.1-7.5,1.1-10.6,6.9c-3,5.6-1.3,13.3,4.6,18.1c13.9,6.9,27.7,13.8,41.6,20.6
		l46,31.1l47,31.6l-8.6-1.5l-39.6-23.9l-31.4-20l-41.6-17.9c-0.8,0.1-7.8,0.9-11.7,7.3c-4.3,7.1-0.9,14.4-0.7,14.9
		c13.7,8.7,27.3,17.5,41,26.2l51.3,35.9l29.4,15.7l-36.4-14.2c-3.8-3.2-9.1-7-16-10.1c-11.2-5.1-21.4-6.1-27.8-6.2
		c-4.1-0.3-8,1.8-9.9,5.3c-2.1,4-1.2,9.2,2.3,12.4c8.1,4.7,16.2,9.5,24.3,14.2c23.2,14.2,46.4,28.4,69.6,42.6l20.9,15.6l20.2,6
		c0,0,34.2,26.4,58.5,31.5c24.4,5.2,64.3,5.2,64.3,5.2l89.8,66.6L2915.1,1539z"/>
	<path id="XMLID_673_" class="st23" d="M2797,1338c-8-18-30-26-48-39c-6-4-9-12-16-14c-6-3-10-7-15-11c-20.5-14-37.5-32.2-46.2-55.7
		l-55.2-32.6l-20-13.3l-31.5-15.4l-20.7-11.7l-3.5-1.1c-9.9,6.9-29.6,0.8-39.9,6.7c-0.6,0.3-1.1,0.7-1.6,1.1
		c1.4,2.7,3.6,6.1,7.1,9.5l35.9,18.3l42.9,27.8l39.7,29.4l-45.6-29.6l-11.8-7.3l-27.1-14.5l-24.8-15.4l-25.6-7.9
		c-5.1,8.3-7.5,18.8-7,28.6c7,3.5,14.1,7,21.1,10.5l46,31.1l47,31.6l-8.6-1.5l-39.6-23.9l-31.4-20l-31.1-13.4
		c5,11.4,12.6,21.2,16.5,34.7c1,4,5,8,7,12c0.2,0.4,0.4,0.9,0.6,1.3l45.4,31.8l29.4,15.7l-36.4-14.2c-3.8-3.2-9.1-7-16-10.1
		c-7.9-3.6-15.4-5.2-21.3-5.8c0,0.8,0.1,1.5,0.2,2.3c1.5,10.3-8.3,10.9-15.2,14c0.3,0.3,0.6,0.7,0.9,1c8.1,4.7,16.2,9.5,24.3,14.2
		c23.2,14.2,46.4,28.4,69.6,42.6l20.9,15.6l20.2,6c0,0,34.2,26.4,58.5,31.5s64.3,5.2,64.3,5.2l39,28.9
		C2805.1,1401.3,2808.6,1366.9,2797,1338z"/>
	<path id="XMLID_672_" class="st18" d="M2512,1273c-0.1-0.8-0.2-1.5-0.2-2.3c-2.5-0.3-4.6-0.4-6.5-0.4c-4.1-0.3-8,1.8-9.9,5.3
		c-1.9,3.6-1.4,8.2,1.4,11.4C2503.7,1283.9,2513.5,1283.3,2512,1273z"/>
	<polygon id="XMLID_671_" class="st1" points="2711.4,1213.1 2717.8,1215.8 2727,1209.5 2725.6,1200.2 2715.1,1182.3 2710.9,1192 
		2704.3,1198.6 	"/>
	<polygon id="XMLID_670_" class="st24" points="2707.7,1243.8 2715.8,1273.9 2726.3,1318.2 2745,1351 2715.4,1315.1 2710.4,1270.7 
		2699.4,1236.4 	"/>
	<g id="XMLID_663_">
		<path id="XMLID_669_" class="st25" d="M2799.9,1690.3c0,0-11.3-31.4-41.6-80.6c-30.3-49.1-47.1-67.7-50.8-76.9
			c-3.7-9.2-13.8-34.4-13.8-34.4s-43.4-25.2-62-41.8c-18.6-16.5-38.6-43.1-38.6-43.1s-16.5-8-23-17.4c-6.4-9.4-31.5-42-31.5-42
			l-42.3-52.3c-7.6-6.9-7.3-18.1-1.4-23.4c4.5-4,12.1-4.5,18.4-0.7c14.8,14.9,29.7,29.8,44.5,44.8l24,31.7l2.6,1.6l-1.6-7.3
			l-18.4-32.6L2502,1209c-2.5-5.4-2.4-11.5,0.7-14.9c4.4-5,15.3-5.2,22.5,3c28.9,39.9,57.7,79.9,86.6,119.8l-90.5-132.9
			c-3.5-6.6-7-13.2-10.6-19.7c-4.2-6-2.8-14.4,3.2-18.6s14.4-2.8,18.6,3.2c11.2,12.4,22.4,24.8,33.5,37.2c0,0,13.3,20,16.8,25.2
			c3.4,5.3,13.3,13.3,17.2,19.7c3.9,6.4,17.7,27.5,29.9,41.3c12.2,13.8,26.9,23.9,26.9,23.9l-16.1-26.9c0,0-13.3-13.3-22.3-25.7
			s-24.6-38.1-24.6-38.1l-21.5-24.9c-3.9-4.5-7.1-9.5-9.6-14.8l-5.7-12.1c-2.8-5.2-1.2-11.6,3.4-14.7c4.1-2.8,9.9-2.4,13.8,1.1
			c9.5,8.2,19,16.4,28.5,24.6c0,0,14.5,19.5,22.5,29.6s14.2,15.6,21.4,23.4s9.2,16.3,20,26.6c10.8,10.3,25.9,21.6,39.5,38.8
			c13.5,17.2,30.8,30.3,30.8,30.3l13.5,3.9l18.8-52.8c-2.7-8.9-1.9-15.9-1.2-19.5c2.1-10.6,9.5-23.9,22.3-27.6
			c3.7-1.1,6.9-1.1,9-0.9c-3.2,16-1.9,28-0.2,36c1.7,7.8,4.4,14.3,3,24.1c-1.1,7.6-3.6,9.7-6.4,17.2c-3.7,9.9-3.3,16.9-1.6,52.6
			c0,0-4.1,9.6-7.1,32.1s1.2,59.5,1.2,59.5l61.8,104.4l63.6,75.7c1.3,2.4,3.1,6.6,3.4,11.9c2.7,41.3-88.6,90.1-111.3,71.2
			C2801.9,1698.2,2800.5,1693.7,2799.9,1690.3z"/>
		<path id="XMLID_668_" class="st26" d="M2578.2,1166.5c1.6-0.7,2.6-1.9,3-2.5c2.3-3.3,1.8-8.3-1.2-12.9c-3.2-3.6-6.4-7.2-9.6-10.8
			c-0.4-0.3-4.2-3.1-8.7-1.8c-4.2,1.2-6.9,5.4-6.9,9.4c0,3.7,2.1,6.2,2.8,6.9c2.9,2.8,5.8,5.7,8.7,8.5
			C2570.1,1166.9,2574.7,1168.1,2578.2,1166.5z"/>
		<path id="XMLID_667_" class="st26" d="M2526.6,1147.2c3.1,4.5,6.3,9,9.4,13.5c0.4,1.1,1.6,4.2,0.5,7.8c-1.1,3.5-4.4,7.5-8.9,7.6
			c-3.4,0.1-5.8-2-6.5-2.7c-4.2-5.3-8.5-10.5-12.7-15.8c-1.7-4.5-0.5-9.5,2.8-12.2C2515.4,1141.9,2522.4,1142.4,2526.6,1147.2z"/>
		<path id="XMLID_666_" class="st26" d="M2510.3,1216.3c0.2,0.3,3.3,4,8,3.4c0.5-0.1,4.3-0.5,6.3-3.9c1.8-3,1.3-7.1-1.3-10.1
			c-2.8-4.7-5.5-9.3-8.3-14c-4.4-4.7-11.4-4.5-14.9-0.7c-2.8,3-3.1,8.1-0.5,12.2C2503.3,1207.6,2506.8,1212,2510.3,1216.3z"/>
		<path id="XMLID_665_" class="st26" d="M2490.1,1285.7c4.3,4.1,8.6,8.1,12.9,12.2c0.5,0.3,2.9,1.4,5.5,0.5c3.4-1.2,4.2-4.9,4.4-5.7
			c0.8-3.8-1.2-6.8-1.6-7.3c-3-4.1-6-8.3-9-12.4c-3.4-3.1-8-3.9-11.5-2.1c-3.5,1.8-4.3,5.5-4.4,5.7
			C2485.7,1279.8,2487.2,1283.4,2490.1,1285.7z"/>
		<path id="XMLID_664_" class="st26" d="M2795.7,1216.5l4.9-0.6c2.4-0.3,4.4,1.9,4,4.3l-5.1,26.9L2795.7,1216.5z"/>
	</g>
	<polygon id="XMLID_662_" class="st15" points="642.5,743.8 606.7,761.5 559.4,780.7 556,782.5 570.7,781.6 619,767.2 630.1,767.3 
		623.8,764.2 566.8,780.5 629.7,752.6 	"/>
	<path id="XMLID_661_" class="st15" d="M639.7,686.1c-34,8.5-67.9,16.9-101.9,25.4c5.6,0.8,11.1,1.6,16.7,2.5
		c28.8-7.2,57.7-14.4,86.5-21.6c1.6-1.6,3.2-3.1,4.9-4.7c-30.7,8-61.4,16.1-92,24.1c-3.2-0.1-6.4-0.3-9.6-0.4
		C576.1,703,607.9,694.5,639.7,686.1z"/>
	<path id="XMLID_660_" class="st15" d="M660.1,711.3c-38.4,13.4-76.9,26.8-115.3,40.2c19.6-4.9,39.2-9.8,58.7-14.7
		c15.8-6.8,31.6-13.6,47.3-20.5l-3.6,0.4c-15.2,6.2-30.3,12.4-45.5,18.6c-16.2,4.6-32.4,9.2-48.7,13.8c15.9-5.5,32-11,48.1-16.7
		C621.1,725.5,640.7,718.4,660.1,711.3z"/>
	<g id="XMLID_646_">
		<path id="XMLID_659_" class="st3" d="M2198.2,1465.6c-25.7-31.3-44.5-59.6-57.6-81.3c-25.6-42.4-42.4-80.6-54.9-109
			c-5.7-13-3.3-8.2-18-42.6c-21.3-50.1-24.5-55.8-27.8-70.9c-6.4-29.4-4.1-52.4-3.2-59.5c2.4-19.6,7.9-35.4,12.5-46.1l10.2-25.7
			c-2.5-1.5-6.9-3.6-12.4-3.5c-8.7,0.3-15,6.1-22.1,12.7c-2.7,2.5-6.7,6.3-10.7,12.1c-10.6,15.3-10.7,29.6-15.3,51
			c-1.9,8.7-5.1,21.2-10.7,36.1c-3.5-5.3-9.3-12.2-18.2-14.8c-12.2-3.7-17,4.5-39.5,6.8c-16.4,1.7-23.9-1.7-31.8,4.6
			c-4.9,4-7.2,9.4-8.3,13.5c-0.4,1.8-0.7,4.4-0.4,7.6c0.3,3.4,1.3,6,2.1,7.7c-0.9-0.1-12.7-1.4-19.1,2.8c-2.4,1.6-4,3.6-4,3.6
			c-1,1.3-2,3-2.9,6.2c-1.1,3.9-2.9,10.7,0.3,17.7c1,2.1,2.2,3.9,3.5,5.2c0,0.8-0.1,1.7-0.1,2.5c-1.4,0.5-3.4,1.5-5.2,3.5
			c-5,5.4-3.6,13.2-3.3,15c1.4,7.5,6.6,11.9,8.2,13.1c-1.5,2.4-2.3,4.6-2.9,6.2c-1,3-2.5,7.7-0.7,12.6c0.7,1.8,1.6,3,2.3,3.9
			c3.6,4.6,7.6,5.5,12.2,8.2c6.8,4,5.5,6.3,12.1,10.7c3,2,7.8,4.6,14.8,5.8c8.5,8.4,21.3,19.2,38.9,28.6c17.8,9.4,34.1,14,45.9,16.3
			c1.7,6.5,4.6,16.4,8.6,28.2c11.2,32.9,23.3,56,27,63.3c10.8,21.3,25.5,56.3,41.9,115.9c0.3,0.5,1.1,1.5,2.4,2.7
			c26.2,23.5,134-35.5,128.4-65.2C2200,1468.3,2198.8,1466.5,2198.2,1465.6z"/>
		<path id="XMLID_658_" class="st4" d="M2057.5,1029.5c-3.2,6.8-5.7,11.7-7.6,15.4c-1.3,2.5-3.3,6.3-1.7,8.7
			c0.5,0.7,1.1,1.2,1.6,1.4c5.3-6.5,10.5-13,15.8-19.4c0.4-1.2,0.3-2,0.1-2.5C2065,1030.8,2061.7,1029.2,2057.5,1029.5z"/>
		<path id="XMLID_657_" class="st4" d="M1951,1196.3c0.7-2.3,2-5.4,4.2-8.6c2.3-3.4,4.8-5.7,6.7-7.2c1.3,0.1,2.5,0.1,3.8,0.2
			c0.6,0.3,2.7,1.4,3.6,4c0.9,2.5,0.2,5.4-1.7,7.5c-1.5,0.8-3.2,1.6-5.2,2.3C1958,1195.9,1954,1196.3,1951,1196.3z"/>
		<path id="XMLID_656_" class="st27" d="M1892.1,1164.1c4,4.8,7.9,9.7,11.9,14.5c2.1,3.3,9.4,13.3,23.1,17.6
			c9.3,3,17.3,1.9,21.4,1.1c-1.2,0.7-2.9,1.6-5.2,2.3c-9.9,3.1-19-0.9-22.6-2.5c-4.9-2.1-8.1-4.6-11-6.9
			c-12.7-10-22.1-24.3-20.1-26.3C1889.9,1163.7,1890.5,1163.5,1892.1,1164.1z"/>
		<polygon id="XMLID_655_" class="st27" points="1870,1199.6 1893.2,1214.7 1910.1,1229.5 1931.8,1230.6 1950.5,1230.3 1953,1230.5 
			1941.5,1233.7 1908.8,1230.7 1867,1203.6 1869.9,1202.1 		"/>
		<polygon id="XMLID_654_" class="st27" points="1869.5,1233.6 1898.3,1252.8 1927.6,1256.9 1925,1259.3 1900,1254.2 1885,1247.1 		
			"/>
		<polygon id="XMLID_653_" class="st27" points="1988.1,1138.9 1984.4,1162.7 1978.5,1201.5 1996.1,1251.7 1971.1,1204.9 
			1970.7,1168 1984.7,1134.2 		"/>
		<path id="XMLID_652_" class="st27" d="M1948.4,1197.4l8.3-1.6l9.6-2.5c0.6,4.2,1.2,8.5,1.9,12.7c0,8,0,16,0,24
			c-4,1.1-8.1,2.1-12.1,3.2c-1.7,3.3-3.3,6.5-5,9.8c-1,3.7-2.1,7.5-3.1,11.2c-3,0.7-6,1.4-8.9,2.1c-2.2,1.1-4.3,2.3-6.5,3.4
			c-2.5,0.3-5.1,0.6-7.6,0.9c2,2.6,3.9,5.3,5.9,7.9c-1.9,3.7-3.8,7.4-5.6,11.1c-2.7,2.8-5.3,5.6-8,8.4c-1.6-0.9-3.3-1.9-4.9-2.8
			c-2-1.8-4-3.6-6-5.4l9.3-3.6l8.1-17.3l8.5-4.3l4-0.6l8.7-15.2l-0.8-3.7l1.5-3.7l5.6-3l4.4-19.2l2.9-6.2L1948.4,1197.4z"/>
		<path id="XMLID_651_" class="st4" d="M1959.5,1227c-4.7,0.6-9.3,1.2-14,1.8c-0.2-1.5-0.3-3.8,0.3-6.3c1.4-5.6,5.4-8.8,6.8-9.7
			c3.4,0.2,6.7,0.4,10.1,0.5c2.6,1.7,4,4.8,3.4,7.8C1965.5,1224.3,1962.8,1226.7,1959.5,1227z"/>
		<path id="XMLID_650_" class="st4" d="M1929,1254.5c0-7.1,3-12.5,7-13.5c0.8-0.2,2.1-0.3,3.8,0.2c2.5,0.1,5,0.3,7.6,0.4
			c0,0.4,0.7,7.3-4.4,11.1c-2.5,1.9-5.2,2.1-6.4,2.2C1934,1254.7,1931.5,1254.6,1929,1254.5z"/>
		<path id="XMLID_649_" class="st4" d="M1912.7,1276.3c2.2-4.2,4.2-6.9,5.5-8.5c0.6-0.8,1.4-1.7,2.7-2.4c2-1.1,4-1.1,5.1-1
			c0.3,0.2,0.8,0.6,1.2,1.3c1.4,2.6-0.2,6.7-3,8.7c-0.2,0.2-0.9,0.6-2.6,1.1C1919.7,1276.1,1916.7,1276.7,1912.7,1276.3z"/>
		<path id="XMLID_648_" class="st27" d="M1923.3,1146.8l32.2,1.7l28.7-13.1c-3.3,8.9-6.6,17.8-9.9,26.7c-1.2,1.9-2.4,3.9-3.6,5.8
			l-17.9-9.5l-13.8,1.8L1923.3,1146.8z"/>
		<polygon id="XMLID_647_" class="st6" points="2027.7,1417.5 2032.1,1426.4 2134.6,1374.2 2129.1,1364.5 		"/>
	</g>
</g>
<g id="Layer_6">
	<polygon id="XMLID_121_" class="st12" points="1147.3,1726.5 1155,1679 1358.9,1679 1358.9,1726.5 	"/>
	<path id="XMLID_624_" class="st23" d="M294,654c11.7,2.3,23.3,4.7,35,7c-4.6,8.1-9.4,18.5-13,31c-7,24.3-6.1,45.6-4.3,59.1
		c-13.3,2.4-26.6,4.8-39.9,7.2L294,654z"/>
	<path id="XMLID_623_" class="st23" d="M317,762c11-4.7,22-9.3,33-14c-0.5,10.3-0.4,22.1,1.2,35c3.5,28.9,12.7,52,20.8,68
		c-11.3,4.3-22.7,8.7-34,13C331,830,324,796,317,762z"/>
	<path id="XMLID_622_" class="st28" d="M2351.7,1726.5h-197.6l-119.8-260.4c-1.4-3.1-0.1-6.7,2.9-8.2l123.2-62.2
		c3-1.5,6.7-0.4,8.3,2.5L2351.7,1726.5z"/>
	<path id="XMLID_621_" class="st29" d="M754.1,1726.5c-61.3-0.3-122.8-0.2-184.1-0.5c0.5-10.3,2.4-26.4,10-44
		c12.5-28.9,25.1-32.5,38-63c10.1-23.7,4-26.3,15-51c12.4-28,32.2-52.1,40-49c7.2,2.9,0.2,27.6,10,32c7.4,3.3,14.7-9.3,25-7
		c12.6,2.8,10.2,23.5,24,32c19,11.6,46.9-13,54-5c6.1,6.9-16.4,23-23,58c-4.6,24.3,2.6,34.8-3,71
		C758.2,1711.5,756,1720.3,754.1,1726.5z"/>
	<path id="XMLID_620_" class="st29" d="M3006.6,1726.5h-198.9c-28.3-53.3-56.4-106.2-84.7-159.5c36.3-21.3,72.7-42.7,109-64
		C2890.3,1577.7,2948.3,1651.8,3006.6,1726.5z"/>
	<polygon id="XMLID_619_" class="st29" points="3118,1505 3118,1720 2834,1471 2901,1382 	"/>
	<path id="XMLID_618_" class="st30" d="M0,784V599c30.6-2.1,65.2-2.4,103,1c88.6,7.9,160.7,32.8,212,56c-6.5,11.3-13.1,26.1-17,44
		c-12.1,55.7,11.1,102,20,118c-64.7,0.6-137.7-3.1-217-15C65.4,797.7,31.7,791.2,0,784z"/>
	<path id="XMLID_617_" class="st13" d="M3118,975v220.2l-346.8-193.4c-14-7.8-19.3-25.2-12.1-39.5l48.3-95.8
		c7.2-14.3,24.4-20.3,38.9-13.8L3118,975z"/>
	<path id="XMLID_616_" class="st13" d="M3118,624v184l-211.7-36.1c-7.5-1.3-12.7-8.3-11.7-15.8l17.6-136.2c1-7.5,7.7-13,15.3-12.3
		L3118,624z"/>
	<path id="XMLID_615_" class="st29" d="M0,1498v-202c5.8-4.7,15-11.5,27-18c30.5-16.4,47.4-13.6,82-23c42.1-11.4,41.6-22.3,86-35
		c26.3-7.5,48.7-10,63-11c26.4-16.4,35.1-16.9,38-14c3.9,3.9-4.1,12.7,0,23c4.6,11.4,17.4,8.3,28,22c7.8,10,8.6,21.7,9,27
		c1.1,14.4-4.2,18.6-5,30c-1.9,26.7,24.7,37.8,20,50c-5.3,13.9-40.3,0.9-90,19c-7.7,2.8-3.7,2-42,20c-40.8,19.2-43.6,19.3-59,27
		c-45.1,22.4-48,34.4-90,57C52.4,1477.9,29.9,1488.7,0,1498z"/>
	<path id="XMLID_614_" class="st31" d="M2037.9,1457.6l-11-23.5c-1.1-2.3-0.1-5,2.1-6.1l110-55.9c2.2-1.1,5-0.3,6.2,1.9l12.8,23.1
		C2118,1417.2,2078,1437.4,2037.9,1457.6z"/>
	<g id="XMLID_613_">
		
			<rect id="XMLID_38_" x="2075.3" y="1445.4" transform="matrix(0.9041 -0.4273 0.4273 0.9041 -442.2356 1031.1865)" class="st28" width="2" height="110.9"/>
	</g>
	<path id="XMLID_612_" class="st32" d="M0,725.1c31.9,9.7,72.5,18.8,120,21.9c72.6,4.8,133.1-6.3,174.6-17.5
		c0.5,8.2,1,16.4,1.5,24.6l17.5,55.7L0.9,791.1L0,725.1z"/>
	<path id="XMLID_611_" class="st30" d="M0,1006c0.3-81.3-0.3-162.5,0-243.9c35.4,4.6,75.6,7.6,118,7.9c88.2,0.5,164.7-11.4,226-26
		c-1.9,11.6-3.2,25-3,40c0.4,30.5,6.7,55.8,13,74c-28.6,29.2-76.6,71-146,103C122,1000.6,44.1,1006.2,0,1006z"/>
	<path id="XMLID_610_" class="st29" d="M2831,1507.3l-101.4,64.1c-3.5,2.2-8.1,1.2-10.3-2.3c-2.2-3.5-1.2-8.1,2.3-10.3l101.4-64.1
		c3.5-2.2,8.1-1.2,10.3,2.3S2834.5,1505.1,2831,1507.3z"/>
	<path id="XMLID_609_" class="st29" d="M2902.6,1382.9l-69.4,89.5c-2.3,2.9-6.5,3.5-9.4,1.2l-1.2-1c-2.9-2.3-3.5-6.5-1.2-9.4
		l69.4-89.5c2.3-2.9,6.5-3.5,9.4-1.2l1.2,1C2904.3,1375.8,2904.8,1380,2902.6,1382.9z"/>
	<g id="XMLID_608_" class="st8">
		<polygon id="XMLID_37_" class="st29" points="3118,1549.2 2890.4,1399.3 2896.5,1390.1 3118,1536 		"/>
	</g>
	<g id="XMLID_607_" class="st8">
		<polygon id="XMLID_36_" class="st29" points="3118,1618.8 2867.2,1428.9 2873.8,1420.1 3118,1605 		"/>
	</g>
	<g id="XMLID_606_" class="st8">
		<polygon id="XMLID_35_" class="st29" points="3118,1709.5 2846.7,1453.5 2854.3,1445.5 3118,1694.4 		"/>
	</g>
	<circle id="XMLID_605_" class="st33" cx="93.5" cy="1354.5" r="13.5"/>
	<circle id="XMLID_604_" class="st33" cx="26.5" cy="1316.5" r="13.5"/>
	<circle id="XMLID_603_" class="st33" cx="40.5" cy="1431.5" r="13.5"/>
	<circle id="XMLID_602_" class="st33" cx="154.5" cy="1285.5" r="13.5"/>
	<circle id="XMLID_601_" class="st33" cx="154.5" cy="1359.5" r="13.5"/>
	<circle id="XMLID_600_" class="st33" cx="221.5" cy="1303.5" r="13.5"/>
	<circle id="XMLID_599_" class="st33" cx="621.5" cy="1699.5" r="13.5"/>
	<circle id="XMLID_598_" class="st33" cx="643.5" cy="1622.5" r="13.5"/>
	<circle id="XMLID_597_" class="st33" cx="736.5" cy="1646.5" r="13.5"/>
	<circle id="XMLID_596_" class="st33" cx="697.5" cy="1692.5" r="13.5"/>
	<circle id="XMLID_595_" class="st33" cx="695.5" cy="1588.5" r="13.5"/>
	<circle id="XMLID_594_" class="st33" cx="260.5" cy="1250.5" r="13.5"/>
	<circle id="XMLID_593_" class="st33" cx="292.5" cy="1330.5" r="13.5"/>
	<path id="XMLID_592_" class="st32" d="M219.4,621.3l39.7,12.4c-5.1,1.7-42.3,14.9-55.6,52.9c-7.1,20.4-4.1,38.5-2,47
		c-3-3.8-20.9-26.5-16.5-58.6C189.7,641.1,215.6,623.8,219.4,621.3z"/>
	<path id="XMLID_591_" class="st32" d="M63.1,768.1C54.4,777.8,30,807.5,27,852c-4.5,66,41.7,109.3,48,115
		c-5.2-7.7-36.7-56.3-21-117.3c11.7-45.4,42.7-70.9,53-78.6L63.1,768.1z"/>
	<circle id="XMLID_590_" class="st28" cx="2082.5" cy="1473.5" r="8.5"/>
	<circle id="XMLID_589_" class="st28" cx="2100.5" cy="1509.5" r="8.5"/>
	<g id="XMLID_588_" class="st8">
		<polygon id="XMLID_34_" class="st29" points="2955.5,1726.5 2810,1520.7 2819,1514.3 2968.9,1726.5 		"/>
	</g>
	<g id="XMLID_587_" class="st8">
		<polygon id="XMLID_33_" class="st29" points="2887.1,1726.5 2774.8,1542.4 2784.2,1536.6 2899.9,1726.5 		"/>
	</g>
	<g id="XMLID_586_" class="st8">
		<polygon id="XMLID_32_" class="st29" points="2828.3,1726.5 2740.7,1564.1 2750.3,1558.9 2840.7,1726.5 		"/>
	</g>
	<g id="XMLID_585_" class="st14">
		
			<rect id="XMLID_31_" x="2741.5" y="943.9" transform="matrix(0.4831 -0.8756 0.8756 0.4831 578.9942 2901.7161)" class="st13" width="11" height="33.1"/>
	</g>
	<g id="XMLID_584_" class="st14">
		
			<rect id="XMLID_30_" x="2754" y="919.6" transform="matrix(0.4472 -0.8944 0.8944 0.4472 686.8886 2986.4092)" class="st13" width="11" height="35.8"/>
	</g>
	<polygon id="XMLID_583_" class="st12" points="1151.4,1701.6 1358.9,1701.6 1358.9,1712.8 1149.6,1712.8 	"/>
	<path id="XMLID_582_" class="st12" d="M1534,1717c62.3-19.7,124.7-39.3,187-59c1.7,2.3,3.3,4.7,5,7c-63.3,19.7-126.7,39.3-190,59
		C1535.3,1721.7,1534.7,1719.3,1534,1717z"/>
	<g id="XMLID_581_" class="st14">
		
			<rect id="XMLID_29_" x="2769.3" y="888.9" transform="matrix(0.4617 -0.887 0.887 0.4617 688.4227 2949.9839)" class="st13" width="11" height="37.7"/>
	</g>
	<g id="XMLID_580_" class="st14">
		
			<rect id="XMLID_28_" x="2783.9" y="858.2" transform="matrix(0.4546 -0.8907 0.8907 0.4546 740.868 2962.4265)" class="st13" width="11" height="36.2"/>
	</g>
	<g id="XMLID_579_" class="st14">
		
			<rect id="XMLID_27_" x="2794.9" y="836.6" transform="matrix(0.4099 -0.9121 0.9121 0.4099 872.1353 3059.1208)" class="st13" width="11" height="37.8"/>
	</g>
	<path id="XMLID_578_" class="st12" d="M1355.7,1703h-199.4c-5.1,0-9.3-4.2-9.3-9.3v-26.4c0-5.1,4.2-9.3,9.3-9.3h199.4
		c5.1,0,9.3,4.2,9.3,9.3v26.4C1365,1698.8,1360.8,1703,1355.7,1703z"/>
	<polygon id="XMLID_577_" class="st31" points="2152.9,1387.8 2158,1397 2037.9,1457.6 2033.1,1447.4 	"/>
	<polygon id="XMLID_576_" class="st15" points="1363.3,1042.5 1357.3,1151.2 1350.4,1135.3 1356.9,1042.5 1361.1,1036.7 
		1352.3,1133.3 1354.9,1139.4 	"/>
	<polygon id="XMLID_575_" class="st15" points="1333.1,1026.6 1317.6,1147.8 1312.3,1137.6 1329.9,1036.7 1330.2,1040.3 
		1315.3,1137.1 1316.9,1139 	"/>
	<polygon id="XMLID_574_" class="st34" points="1296.6,1100.6 1307.5,1100.6 1302.8,1104.8 	"/>
	<polygon id="XMLID_573_" class="st34" points="1264.8,1116.4 1275.7,1116.4 1270.9,1118.9 	"/>
	<polygon id="XMLID_572_" class="st34" points="1334.4,1093.4 1342.8,1092.4 1342.1,1094.6 1337.6,1094 1333.9,1095.6 	"/>
	<polygon id="XMLID_571_" class="st34" points="1339,1048.1 1347.4,1047.1 1346.7,1049.2 1342.3,1048.7 1338.5,1050.2 	"/>
	<polygon id="XMLID_570_" class="st34" points="1309.6,1053.8 1317.9,1052.8 1317.3,1055 1312.8,1054.5 1309,1056 	"/>
	<polygon id="XMLID_569_" class="st34" points="1267.5,1086.6 1275.9,1085.6 1275.2,1087.8 1270.8,1087.3 1267,1088.8 	"/>
	<polygon id="XMLID_568_" class="st34" points="1371.2,1055.4 1379.5,1054.4 1378.8,1056.6 1374.4,1056.1 1370.6,1057.6 	"/>
	<polygon id="XMLID_567_" class="st34" points="1369.6,1103.9 1374.1,1105.7 1369.6,1105.7 	"/>
	<g id="XMLID_566_" class="st8">
		<path id="XMLID_26_" class="st35" d="M2501.3,1070.1c-1.1,0-2.1-0.7-2.4-1.8l-20-73.2c-0.4-1.3,0.4-2.7,1.8-3.1
			c1.3-0.4,2.7,0.4,3.1,1.8l20,73.2c0.4,1.3-0.4,2.7-1.8,3.1C2501.8,1070.1,2501.5,1070.1,2501.3,1070.1z"/>
	</g>
	<g id="XMLID_565_" class="st8">
		<path id="XMLID_25_" class="st35" d="M2620.4,1148.5c-0.4,0-0.8-0.1-1.1-0.3c-1.2-0.6-1.7-2.1-1.1-3.4l26.6-53
			c0.6-1.2,2.1-1.7,3.4-1.1c1.2,0.6,1.7,2.1,1.1,3.4l-26.6,53C2622.2,1148,2621.3,1148.5,2620.4,1148.5z"/>
	</g>
	<g id="XMLID_564_" class="st8">
		<path id="XMLID_24_" class="st35" d="M2602.8,1116.1c-1.3,0-2.4-1.1-2.5-2.4l-2.3-59.3c-0.1-1.4,1-2.5,2.4-2.6
			c1.4,0,2.5,1,2.6,2.4l2.3,59.3C2605.4,1114.8,2604.3,1116,2602.8,1116.1C2602.9,1116.1,2602.8,1116.1,2602.8,1116.1z"/>
	</g>
	<g id="XMLID_563_" class="st8">
		<path id="XMLID_23_" class="st35" d="M2639.9,1151.4c-0.7,0-1.5-0.3-2-0.9c-0.9-1.1-0.7-2.7,0.4-3.5l46.9-37.1
			c1.1-0.9,2.7-0.7,3.5,0.4c0.9,1.1,0.7,2.7-0.4,3.5l-46.9,37.1C2641,1151.2,2640.5,1151.4,2639.9,1151.4z"/>
	</g>
	<g id="XMLID_562_" class="st8">
		<path id="XMLID_22_" class="st35" d="M2754.3,1169.2c-0.5,0-0.9-0.1-1.3-0.4c-1.2-0.7-1.5-2.3-0.8-3.4l24.7-39.8
			c0.7-1.2,2.3-1.5,3.4-0.8c1.2,0.7,1.5,2.3,0.8,3.4l-24.7,39.8C2756,1168.7,2755.2,1169.2,2754.3,1169.2z"/>
	</g>
	<g id="XMLID_561_" class="st8">
		<path id="XMLID_21_" class="st35" d="M2769.4,1172c-0.8,0-1.6-0.4-2.1-1.1c-0.8-1.1-0.5-2.7,0.6-3.5l39.3-27
			c1.1-0.8,2.7-0.5,3.5,0.6c0.8,1.1,0.5,2.7-0.6,3.5l-39.3,27C2770.3,1171.9,2769.8,1172,2769.4,1172z"/>
	</g>
	<g id="XMLID_560_" class="st8">
		<path id="XMLID_20_" class="st35" d="M2448.3,1064.7c-0.9,0-1.8-0.5-2.2-1.3l-51.9-99.1c-0.6-1.2-0.2-2.7,1.1-3.4
			c1.2-0.6,2.7-0.2,3.4,1.1l51.9,99.1c0.6,1.2,0.2,2.7-1.1,3.4C2449.1,1064.6,2448.7,1064.7,2448.3,1064.7z"/>
	</g>
	<g id="XMLID_559_" class="st8">
		<path id="XMLID_19_" class="st35" d="M2399.3,1080.9c-0.7,0-1.3-0.3-1.8-0.8l-85.1-91.8c-0.9-1-0.9-2.6,0.1-3.5
			c1-0.9,2.6-0.9,3.5,0.1l85.1,91.8c0.9,1,0.9,2.6-0.1,3.5C2400.5,1080.7,2399.9,1080.9,2399.3,1080.9z"/>
	</g>
	<g id="XMLID_558_" class="st8">
		<path id="XMLID_18_" class="st35" d="M2414.5,1141.3c-0.3,0-0.6-0.1-0.9-0.2l-94.7-37.2c-1.3-0.5-1.9-2-1.4-3.2
			c0.5-1.3,2-1.9,3.2-1.4l94.7,37.2c1.3,0.5,1.9,2,1.4,3.2C2416.5,1140.7,2415.5,1141.3,2414.5,1141.3z"/>
	</g>
	<g id="XMLID_557_" class="st8">
		<path id="XMLID_17_" class="st35" d="M2350.4,1199.2c-1.4,0-2.5-1.1-2.5-2.5c0-1.4,1.1-2.5,2.5-2.5l72.6-1.4
			c1.4,0,2.5,1.1,2.5,2.5c0,1.4-1.1,2.5-2.5,2.5L2350.4,1199.2C2350.4,1199.2,2350.4,1199.2,2350.4,1199.2z"/>
	</g>
	<g id="XMLID_556_" class="st8">
		<path id="XMLID_15_" class="st35" d="M763.3,759.5c-0.2,0-0.4,0-0.6-0.1l-63.1-16.8c-1.3-0.4-2.1-1.7-1.8-3.1
			c0.4-1.3,1.7-2.1,3.1-1.8l63.1,16.8c1.3,0.4,2.1,1.7,1.8,3.1C765.4,758.8,764.4,759.5,763.3,759.5z"/>
	</g>
	<g id="XMLID_555_" class="st8">
		<path id="XMLID_14_" class="st35" d="M698.8,705c-1.3,0-2.4-1-2.5-2.3c-0.1-1.4,0.9-2.6,2.3-2.7l86.3-6.8c1.4-0.1,2.6,0.9,2.7,2.3
			c0.1,1.4-0.9,2.6-2.3,2.7L699,705C698.9,705,698.9,705,698.8,705z"/>
	</g>
	<g id="XMLID_554_" class="st8">
		<path id="XMLID_13_" class="st35" d="M685,653.5c-0.8,0-1.5-0.3-2-1c-0.8-1.1-0.6-2.7,0.5-3.5l81.9-61.2c1.1-0.8,2.7-0.6,3.5,0.5
			c0.8,1.1,0.6,2.7-0.5,3.5L686.5,653C686,653.4,685.5,653.5,685,653.5z"/>
	</g>
	<g id="XMLID_553_" class="st8">
		<path id="XMLID_12_" class="st35" d="M656.6,640.6c-0.5,0-1.1-0.2-1.5-0.5c-1.1-0.9-1.3-2.4-0.4-3.5l43.6-55.7
			c0.9-1.1,2.4-1.3,3.5-0.4c1.1,0.9,1.3,2.4,0.4,3.5l-43.6,55.7C658.1,640.3,657.3,640.6,656.6,640.6z"/>
	</g>
	<g id="XMLID_552_" class="st8">
		<path id="XMLID_11_" class="st35" d="M622.2,632.7c-0.2,0-0.3,0-0.5,0c-1.4-0.2-2.3-1.6-2-2.9l8.8-47.8c0.2-1.4,1.6-2.3,2.9-2
			c1.4,0.2,2.3,1.6,2,2.9l-8.8,47.8C624.4,631.8,623.4,632.7,622.2,632.7z"/>
	</g>
	<g id="XMLID_551_" class="st8">
		<path id="XMLID_10_" class="st35" d="M537.3,605.5c-1.3,0-2.4-1-2.5-2.3l-3.5-48.5c-0.1-1.4,0.9-2.6,2.3-2.7
			c1.4-0.1,2.6,0.9,2.7,2.3l3.5,48.5c0.1,1.4-0.9,2.6-2.3,2.7C537.4,605.5,537.3,605.5,537.3,605.5z"/>
	</g>
	<g id="XMLID_550_" class="st8">
		<path id="XMLID_9_" class="st35" d="M511.5,608.7c-0.8,0-1.6-0.4-2.1-1.1l-27.7-40c-0.8-1.1-0.5-2.7,0.6-3.5
			c1.1-0.8,2.7-0.5,3.5,0.6l27.7,40c0.8,1.1,0.5,2.7-0.6,3.5C512.5,608.6,512,608.7,511.5,608.7z"/>
	</g>
	<g id="XMLID_549_" class="st8">
		<path id="XMLID_8_" class="st35" d="M1241.3,1041.1c-0.7,0-1.3-0.3-1.8-0.8l-55.6-58.7c-0.9-1-0.9-2.6,0.1-3.5
			c1-1,2.6-0.9,3.5,0.1l55.6,58.7c0.9,1,0.9,2.6-0.1,3.5C1242.5,1040.8,1241.9,1041.1,1241.3,1041.1z"/>
	</g>
	<g id="XMLID_548_" class="st8">
		<path id="XMLID_7_" class="st35" d="M1253.2,1024.7c-0.9,0-1.7-0.4-2.2-1.3l-48.8-84.7c-0.7-1.2-0.3-2.7,0.9-3.4
			c1.2-0.7,2.7-0.3,3.4,0.9l48.8,84.7c0.7,1.2,0.3,2.7-0.9,3.4C1254,1024.6,1253.6,1024.7,1253.2,1024.7z"/>
	</g>
	<g id="XMLID_547_" class="st8">
		<path id="XMLID_6_" class="st35" d="M1425.3,1049.2c-0.9,0-1.8-0.5-2.2-1.4c-0.6-1.2-0.1-2.7,1.1-3.4l60.4-30.7
			c1.2-0.6,2.7-0.1,3.4,1.1c0.6,1.2,0.1,2.7-1.1,3.4l-60.4,30.7C1426,1049.1,1425.7,1049.2,1425.3,1049.2z"/>
	</g>
	<g id="XMLID_546_" class="st8">
		<path id="XMLID_5_" class="st35" d="M1413.1,1041.1c-0.6,0-1.1-0.2-1.6-0.6c-1.1-0.9-1.2-2.4-0.4-3.5l65.7-80.3
			c0.9-1.1,2.4-1.2,3.5-0.4s1.2,2.4,0.4,3.5l-65.7,80.3C1414.5,1040.7,1413.8,1041.1,1413.1,1041.1z"/>
	</g>
	<g id="XMLID_545_" class="st8">
		<path id="XMLID_4_" class="st35" d="M1301.2,983.5c-1.2,0-2.3-0.9-2.5-2.1l-13.9-81.9c-0.2-1.4,0.7-2.7,2-2.9
			c1.4-0.2,2.7,0.7,2.9,2l13.9,81.9c0.2,1.4-0.7,2.7-2,2.9C1301.4,983.5,1301.3,983.5,1301.2,983.5z"/>
	</g>
	<g id="XMLID_544_" class="st8">
		<path id="XMLID_3_" class="st35" d="M1315.1,977.2c-1.4,0-2.5-1.1-2.5-2.5V846.1c0-1.4,1.1-2.5,2.5-2.5s2.5,1.1,2.5,2.5v128.6
			C1317.6,976.1,1316.5,977.2,1315.1,977.2z"/>
	</g>
	<g id="XMLID_543_" class="st8">
		<path id="XMLID_2_" class="st35" d="M1373.2,991.6c-0.1,0-0.2,0-0.3,0c-1.4-0.2-2.4-1.4-2.2-2.8l12-107.6c0.2-1.4,1.4-2.4,2.8-2.2
			c1.4,0.2,2.4,1.4,2.2,2.8l-12,107.6C1375.5,990.6,1374.4,991.6,1373.2,991.6z"/>
	</g>
	<g id="XMLID_542_" class="st8">
		<path id="XMLID_1_" class="st35" d="M1387.1,996.1c-0.3,0-0.7-0.1-1-0.2c-1.3-0.5-1.8-2-1.3-3.3l22.5-51.8c0.5-1.3,2-1.8,3.3-1.3
			c1.3,0.5,1.8,2,1.3,3.3l-22.5,51.8C1389,995.5,1388.1,996.1,1387.1,996.1z"/>
	</g>
</g>
</svg>
