<?xml version="1.0" encoding="UTF-8"?><svg xmlns="http://www.w3.org/2000/svg" viewBox="0 0 2621.06 1005.43"><defs><style>.cls-1,.cls-2{fill:#0996bc;}.cls-3{fill:#fab7b6;}.cls-4{fill:#fff;}.cls-5{fill:#ce7651;}.cls-6,.cls-7,.cls-8{fill:#995944;}.cls-9,.cls-10,.cls-11,.cls-7,.cls-12,.cls-13,.cls-8,.cls-14,.cls-15,.cls-16,.cls-17,.cls-18,.cls-19,.cls-20,.cls-21,.cls-2,.cls-22,.cls-23,.cls-24{mix-blend-mode:multiply;}.cls-9,.cls-11,.cls-16,.cls-18,.cls-20,.cls-21,.cls-24{opacity:.5;}.cls-9,.cls-25{fill:#fcca3a;}.cls-26,.cls-23{fill:#ef4760;}.cls-10{opacity:.2;}.cls-11,.cls-19,.cls-27{fill:#cb6f48;}.cls-28{isolation:isolate;}.cls-29,.cls-20{fill:#df975c;}.cls-7,.cls-12,.cls-30,.cls-14,.cls-15,.cls-31,.cls-17,.cls-19{opacity:.3;}.cls-32{fill:#a35f49;}.cls-12,.cls-33,.cls-21{fill:#fa9172;}.cls-34,.cls-17,.cls-18{fill:#da7d4d;}.cls-13,.cls-35{fill:#f2f2f2;}.cls-36{fill:#df926e;}.cls-15,.cls-24{fill:#fb9d82;}.cls-37{fill:#dfa87f;}.cls-31{mix-blend-mode:screen;}.cls-38{fill:#996953;}.cls-39{fill:#dc8456;}.cls-40{fill:#fad5cb;}.cls-41{fill:#da8844;}.cls-42{fill:#e9786a;}.cls-43{fill:#06bb92;}.cls-44{fill:#ad8e82;}</style></defs><g class="cls-28"><g id="dark"><path class="cls-41" d="m1392.95,898.26c-39.78-59.71-79.5-123.25-118.52-190.68-15.77-27.26-30.92-54.28-45.47-81.01,5.07-18.7,10.13-37.41,15.2-56.11.54-1.98,1.15-5.04.97-8.72-.43-8.77-4.99-13.75-9.22-21.28-5.72-10.19-1.86-9.08-9.12-25.8-7.31-16.83-11.19-17.88-10.99-25.69.06-2.41.56-7.47-2.57-11.14-.71-.83-2.46-2.59-5.09-3.08-4.14-.77-7.69,2.12-8.49,2.78-8.48,6.92-7.08,24.15-3.11,35.22.52,1.44,1.01,2.59,1.33,3.31,1.55,4.57,3.03,10.05,4.02,16.33.7,4.49,1.03,8.64,1.14,12.36-1.58-1.34-3.92-3.47-6.42-6.38-5.86-6.82-7.43-11.91-12.97-21.05-1.72-2.84-4.32-6.88-7.87-11.57-19.05-26.07-38.11-52.14-57.16-78.22-.22-.35-5.29-8.07-13.26-7.47-.66.05-4.19.31-6.62,2.67-4.36,4.23-3.89,13.98,2.38,23.39-4.21-6.21-8.42-12.41-12.63-18.62-3.03-5.29-8.8-7.92-13.59-6.7-6.28,1.61-10.73,9.81-7.57,17.79,1.89,4.15,3.77,8.31,5.66,12.46-.64-.58-5.19-4.59-10.38-3.5-5.84,1.23-10.58,8.49-9.12,17.13,14.83,28.84,29.66,57.69,44.49,86.53-.7.92-1.39,1.84-2.09,2.76-5.53-8.24-11.18-17.31-16.74-27.22-6.16-10.98-11.4-21.52-15.87-31.42-.72-3.83-3.47-6.82-6.86-7.49-5.44-1.06-9.1,4.5-9.48,5.1-3.03,4.77-1.09,9.99-.86,10.6,2.63,7.06,5.26,14.11,7.89,21.17l16.99,37.37,12.74,17.3c8.55,18.85,22.43,43.3,44.99,67.1,9.92,10.47,19.87,19.07,29.1,26.08,2.68,3.37,6.64,8.65,10.75,15.53,9.15,15.32,13.02,28.42,13.99,31.53,4.37,14.01,21.05,53.03,68.37,151.73,17.93,44.83,35.73,89.24,53.67,134.07h163.75c-25.22-35.87-50.14-71.31-75.36-107.18Z"/><path class="cls-37" d="m1211.68,477.17c1.94,2.19,2.18,4.69,2.22,5.51l1.94,8.32c.67-4.29.03-7.61-.51-9.54-.7-2.47-1.45-5.01-3.77-6.17-1.28-.64-2.57-.64-3.42-.54.8.3,2.26.97,3.54,2.42Z"/><g class="cls-22"><rect class="cls-29" x="1085.68" y="456.86" width="16.81" height=".84" transform="translate(-81.89 609.65) rotate(-30.07)"/></g><g class="cls-22"><rect class="cls-29" x="1105.79" y="489.31" width="17.49" height=".84" transform="translate(-90.82 660.44) rotate(-31.78)"/></g><g class="cls-22"><rect class="cls-29" x="1122.97" y="522.59" width="21.48" height=".84" transform="translate(-89.29 774.24) rotate(-36.37)"/></g><g class="cls-22"><rect class="cls-29" x="1110.86" y="451.99" width="19.58" height=".84" transform="translate(-64.24 690.25) rotate(-33.33)"/></g><g class="cls-22"><rect class="cls-29" x="1132.78" y="481.24" width="17.87" height=".84" transform="translate(-95.86 544.18) rotate(-25.77)"/></g><g class="cls-22"><rect class="cls-29" x="1150.07" y="511.15" width="20.88" height=".84" transform="translate(-99.01 362.89) rotate(-17.06)"/></g><g class="cls-22"><rect class="cls-29" x="1068.83" y="483.59" width="17.25" height=".84" transform="translate(-90.16 662.43) rotate(-32.88)"/></g><g class="cls-22"><rect class="cls-29" x="1086.05" y="512.57" width="15.59" height=".84" transform="translate(-105.68 657.23) rotate(-31.98)"/></g><g class="cls-22"><rect class="cls-29" x="1099.71" y="542.58" width="19.94" height=".84" transform="translate(-114.69 707.79) rotate(-33.74)"/></g><g class="cls-22"><rect class="cls-29" x="1055.57" y="518.8" width="13.82" height=".84" transform="translate(-117.9 447.39) rotate(-22.56)"/></g><g class="cls-22"><rect class="cls-29" x="1066.89" y="543.75" width="16.24" height=".84" transform="translate(-129.69 565.56) rotate(-27.87)"/></g><g class="cls-22"><rect class="cls-29" x="1081.21" y="567.38" width="17.58" height=".84" transform="translate(-65.98 985.18) rotate(-47.37)"/></g><g class="cls-22"><rect class="cls-29" x="1213.13" y="540.69" width=".84" height="19.8" transform="translate(311.87 1531.82) rotate(-71.82)"/></g><g class="cls-22"><rect class="cls-29" x="1200.16" y="517.32" width="7.63" height=".84" transform="translate(-73.4 224.63) rotate(-10.35)"/></g><g class="cls-22"><polygon class="cls-29" points="1164.67 674.6 1164.02 674.06 1168.71 668.4 1183.81 654.56 1183.92 654.53 1200.97 650.86 1222.53 640.89 1222.89 641.65 1201.19 651.67 1184.21 655.33 1169.31 668.98 1164.67 674.6"/></g><path class="cls-29" d="m1052.93,651.55c-1.17,6.57-2.91,16.26-5.07,27.99-6.19,33.62-10,54.28-14.58,75.25-3.75,17.16-9.46,41.15-17.92,70.03-11.99,60.35-23.99,120.27-35.98,180.62h154.67c-7.59-68.79-10.99-147.49-5.25-234.67,2.45-37.25,6.34-72.56,11.2-105.77,8.75-12.5,16.6-21.94,22-28.09,13.77-15.7,17.81-17.17,22.45-26.99,3.6-7.61,1-6.36,8.19-32.14,3.59-12.87,4.95-15.75,5.02-22.53.11-11.26-3.57-12.32-2.04-20.97,1.77-10.02,7.76-14.56,5.13-20.65-.16-.38-1.82-4.08-5.2-4.95-7.77-2-16.83,12.97-17.68,14.38-2.33,3.85-6.23,11.69-6.36,23.41-1.84,4.83-3.67,9.66-5.51,14.49-.37-14.16-.74-28.33-1.1-42.49.44-15.34.88-30.69,1.31-46.03,1.04-11.74,2.07-23.48,3.11-35.22,1.74-6.93-.21-13.53-4.79-16.65-.68-.46-3.23-2.09-6.52-1.86-5.73.4-11.1,6.29-12.65,14.71-1.18,13.51-2.36,27.01-3.54,40.52-1.04,13.88-2.07,27.76-3.11,41.64l-1.85-8.74c2.2-26.57,4.4-53.13,6.6-79.7.66-1.23,3.12-6.16,1.51-12.15-.35-1.29-1.8-6.7-6.98-9.36-.91-.46-4.67-2.4-8.72-.97-3.35,1.18-4.96,3.97-6.38,6.42-3.06,5.29-3.42,10.7-3.27,14.14-3.3,22.14-6.6,44.29-9.89,66.43l-4.16,24.64c1.6-15.23,3.2-30.46,4.8-45.69,2.47-12.96,4.94-25.91,7.4-38.87,1.23-5.03-.91-10.05-4.89-12.13-3.61-1.89-7.85-.9-10.48,1.02-3.71,2.71-4.4,7.42-4.87,10.24-2.61,15.47-4.66,8.47-11.01,37.82-1.62,7.49-2.62,13.22-3.72,19.45-1.71,9.75-2.93,17.95-3.75,23.91-.79-8.2-.37-14.76.15-19.19.82-7.01,2.57-14.58,3.93-27.67.63-6.03.81-9.72-1.67-12.5-2.39-2.68-6.71-3.92-10.03-2.73-5.34,1.91-6.9,9.69-7.8,13.94-1.24,5.85-3.93,11.38-5.37,20.34-1.03,6.43-1.27,11.33-1.35,12.8-1.01,19.87-3.43,39.64-5.1,59.46-3.4,40.42-4.38,38.05-4.26,49.65.21,19.43,3.06,35.22,5.4,45.41Z"/><path class="cls-37" d="m1150.33,423.88c-.08,1.89-.16,3.78-.25,5.66-.02.35.03.7.13,1.03.46,1.46,2.12,5.17,6.93,4.27,5.96-1.12,5.56-3.4,5.56-3.4.55-2.15,1.09-4.3,1.64-6.44.27-1.05-.04-2.18-.82-2.93-2.24-2.16-5.25-3.16-8.07-2.56-1.96.41-3.36,1.49-4.23,2.36-.54.54-.86,1.26-.89,2.02Z"/><path class="cls-37" d="m1124.1,415.72l1.12,1.31c4.76.38,7.48.6,12.23.99l1.43-1.21c.41-.35.71-.8.9-1.3.46-1.29,1.05-3.76-.03-6.34-1.56-3.72-5.88-5.94-9.73-5.05-3.61.83-5.33,4.05-5.73,4.87-.96,1.97-1.01,3.86-.9,5.07.06.62.31,1.2.71,1.67Z"/><path class="cls-37" d="m1102.84,434.19l5.45.44c.88.07,1.75-.25,2.38-.87l2.66-2.63c.53-.52.84-1.22.9-1.96.16-2.08-.01-4.82.21-6.77.06-.55-.02-1.1-.26-1.6-1.09-2.24-2.8-2.61-5.53-2.94-3.54-.43-7.07,1.65-8.57,5.11-.09.21-.15.43-.19.65-.35,1.9-.71,3.8-1.06,5.71-.18.99.13,2,.84,2.71l1.28,1.28c.51.51,1.18.82,1.9.87Z"/><path class="cls-37" d="m1069.33,462.34l3.45.48c1.33.19,2.67-.21,3.68-1.09l.81-.71c.79-.69,1.33-1.62,1.51-2.65.22-1.25.39-2.7.63-3.91.39-2.01-.61-4.08-2.45-4.96-.81-.39-1.77-.63-2.86-.83-3.06-.55-6.15.91-7.58,3.62-.18.33-.29.7-.36,1.07-.24,1.15-.48,2.29-.72,3.44-.31,1.51.14,3.07,1.22,4.17.73.74,1.66,1.22,2.67,1.36Z"/><path class="cls-37" d="m1199.85,511.42c-.82,1.17-1.64,2.35-2.46,3.52-.4,1.78-.8,4.82.17,8.29.36,1.3.85,2.4,1.33,3.31,1.65-3.87,3.29-7.73,4.94-11.6-1.33-1.17-2.66-2.35-3.98-3.52Z"/><path class="cls-27" d="m120.76,65.71c30.46,12.47,66.65,24.88,108.06,34.68,33.23,7.86,64.05,12.69,91.58,15.58,15.91-11.06,31.82-22.12,47.73-33.18,1.69-1.17,4.36-2.78,7.89-3.85,8.4-2.54,14.63.08,23.14,1.52,11.52,1.96,9.18-1.31,27.37-.09,18.31,1.22,20.61,4.53,27.89,1.72,2.25-.87,6.85-3.04,11.36-1.33,1.02.39,3.26,1.44,4.61,3.75,2.12,3.64.58,7.95.24,8.93-3.67,10.31-20.37,14.79-32.12,14.77-1.53,0-2.78-.08-3.56-.14-4.83.08-10.49.52-16.72,1.71-4.47.85-8.49,1.94-12.02,3.09,1.79,1.03,4.59,2.52,8.17,3.9,8.39,3.22,13.72,3,24.18,5.14,3.25.67,7.93,1.75,13.54,3.52,30.96,9.18,61.92,18.35,92.88,27.53.4.09,9.38,2.27,11.5,9.98.18.64,1.11,4.05-.29,7.13-2.52,5.53-11.86,8.37-22.83,5.63,7.26,1.88,14.52,3.76,21.78,5.63,6,1.08,10.42,5.63,10.88,10.55.6,6.45-5.63,13.41-14.21,13.11-4.55-.38-9.09-.76-13.64-1.14.77.41,6.07,3.34,6.79,8.6.81,5.92-4.44,12.82-13.07,14.35-32.15-4.27-64.3-8.53-96.45-12.8-.63.97-1.27,1.93-1.9,2.9,9.62,2.44,20.06,4.7,31.26,6.61,12.41,2.11,24.1,3.5,34.92,4.38,3.85-.61,7.59.97,9.36,3.95,2.83,4.76-1.18,10.08-1.62,10.64-3.48,4.46-9.04,4.39-9.69,4.37-7.53-.1-15.06-.21-22.59-.31l-40.91-3.43-20.57-6.18c-20.63-1.71-48.32-6.57-78.32-19.8-13.2-5.82-24.64-12.3-34.35-18.63-4.08-1.39-10.38-3.34-18.24-4.9-16.47-3.26-29.36-2.75-34.4-2.57-20.32.72-80.14,1.98-161.38,4.22-1.42-16.08-1.69-41.27,6.4-70.53,7.3-26.4,18.68-46.25,27.35-58.98Z"/><path class="cls-36" d="m466.91,82c-2.72-1.09-5.15-.47-5.94-.24l-8.49.97c3.82-2.07,7.16-2.59,9.16-2.73,2.56-.17,5.2-.32,7.08,1.47,1.03.99,1.47,2.21,1.66,3.04-.55-.65-1.68-1.8-3.47-2.52Z"/><g class="cls-22"><rect class="cls-34" x="516.78" y="185.64" width="16.81" height=".84" transform="translate(247.32 669.01) rotate(-79.59)"/></g><g class="cls-22"><rect class="cls-34" x="479.01" y="177.3" width="17.49" height=".84" transform="translate(211.98 617.53) rotate(-77.93)"/></g><g class="cls-22"><rect class="cls-34" x="439.22" y="170.42" width="21.48" height=".84" transform="translate(156.78 552.55) rotate(-73.26)"/></g><g class="cls-22"><rect class="cls-34" x="511.05" y="158.99" width="19.58" height=".84" transform="translate(242.38 627.54) rotate(-76.27)"/></g><g class="cls-22"><rect class="cls-34" x="477.28" y="148.98" width="17.87" height=".84" transform="translate(285.87 616.93) rotate(-83.89)"/></g><g class="cls-22"><rect class="cls-34" x="451.3" y="131.33" width=".84" height="20.88" transform="translate(-5.96 20.62) rotate(-2.6)"/></g><g class="cls-22"><rect class="cls-34" x="496.98" y="210.29" width="17.25" height=".84" transform="translate(184.96 654.81) rotate(-76.79)"/></g><g class="cls-22"><rect class="cls-34" x="465.01" y="204.6" width="15.59" height=".84" transform="translate(171.77 623.3) rotate(-77.7)"/></g><g class="cls-22"><rect class="cls-34" x="429.24" y="199.78" width="19.94" height=".84" transform="translate(138.19 577.53) rotate(-75.92)"/></g><g class="cls-22"><rect class="cls-34" x="470.58" y="236.24" width="13.82" height=".84" transform="translate(216.93 701.54) rotate(-87.09)"/></g><g class="cls-22"><rect class="cls-34" x="441.65" y="232.82" width="16.24" height=".84" transform="translate(154.75 645.14) rotate(-81.8)"/></g><g class="cls-22"><rect class="cls-34" x="413.69" y="226.66" width="17.58" height=".84" transform="translate(24.72 495.1) rotate(-62.23)"/></g><g class="cls-22"><rect class="cls-34" x="396.72" y="95.03" width=".84" height="19.8" transform="translate(19.1 265.61) rotate(-37.83)"/></g><g class="cls-22"><rect class="cls-34" x="430.88" y="99.09" width=".84" height="7.63" transform="translate(-10.95 70.93) rotate(-9.28)"/></g><g class="cls-22"><polygon class="cls-34" points="297.51 193.1 296.79 192.67 300.54 186.35 308.36 167.79 306.09 150.52 306.1 150.47 308.24 126.76 309.08 126.84 306.94 150.5 309.23 167.91 309.18 168.01 301.29 186.73 297.51 193.1"/></g><path class="cls-19" d="m261.1,172.98c10.51.72,26.47.27,42.44-7.72,22.94-11.48,20.1-25.61,47.91-45.39,17.08-12.15,42.27-23.98,59.43-22.75,2.06.15,9.13.85,18.75.06,7.46-.62,13.53-1.9,17.54-2.9l-47.76,29.35,34.05-2.66,30.29,7.61c40.96,13.36,72.52,36.64,71.99,59.25-.71,30.47-59.57,54.64-106.39,52.24-54.4-2.79-89.47-41.27-98.08-51.28-23.39-.43-46.79-.86-70.18-1.28v-14.53Z"/><path class="cls-5" d="m337.61,260.19c-6.27,2.29-15.51,5.68-26.69,9.84-32.04,11.92-51.73,19.24-71.59,27.38-16.26,6.66-38.89,16.44-65.87,29.76-1.82.47-4.93,1.06-8.63.6-31.48-3.97-60.75-79.18-36.27-106.75,5.38-6.06,12.63-9.01,19.24-10.5,17.71-.02,37.65-1.2,59.27-4.43,41.44-6.18,75.93-17.92,102.24-29.33,10.8-10.78,18.73-20.15,23.86-26.53,13.08-16.28,13.83-20.51,22.7-26.78,6.87-4.86,6.09-2.09,30.24-13.63,12.05-5.76,14.65-7.6,21.32-8.84,11.07-2.05,12.75,1.38,21-1.62,9.56-3.48,13-10.16,19.45-8.63.4.1,4.34,1.09,5.78,4.27,3.32,7.31-9.86,18.82-11.1,19.9-3.39,2.96-10.44,8.16-21.96,10.32-4.44,2.65-8.88,5.29-13.32,7.94,14.01-2.09,28.03-4.18,42.04-6.26,15.04-3.09,30.07-6.17,45.11-9.26,11.38-3.05,22.77-6.1,34.15-9.16,6.52-2.91,13.36-2.13,17.23,1.84.57.59,2.62,2.82,2.96,6.1.59,5.72-4.28,12.02-12.3,15.01-13.1,3.5-26.2,7-39.29,10.49-13.49,3.42-26.98,6.85-40.47,10.27l8.93.31c25.79-6.76,51.57-13.53,77.36-20.29,1.1-.86,5.53-4.14,11.7-3.59,1.33.12,6.91.61,10.43,5.25.61.81,3.17,4.18,2.46,8.42-.58,3.5-3.05,5.58-5.22,7.4-4.68,3.93-9.95,5.22-13.36,5.67-21.24,7.08-42.48,14.16-63.72,21.24l-23.55,8.37c14.72-4.21,29.44-8.42,44.17-12.63,12.33-4.67,24.67-9.34,37-14.02,4.74-2.08,10.05-.85,12.79,2.72,2.48,3.23,2.25,7.58.81,10.5-2.03,4.13-6.54,5.61-9.24,6.57-14.79,5.24-7.54,6.06-35.34,17.38-7.1,2.89-12.57,4.87-18.51,7.03-9.3,3.37-17.18,5.99-22.9,7.83,8.21-.64,14.6-2.19,18.87-3.46,6.76-2.02,13.91-5.05,26.57-8.66,5.83-1.66,9.43-2.48,12.6-.51,3.05,1.89,5.02,5.93,4.42,9.41-.96,5.59-8.35,8.48-12.38,10.1-15.1,6.08-19.11,8.81-19.11,8.81-37.46,11.65-72.15,20.41-72.15,20.41-32.5,8.21-33.54,9.35-46.08,11.22-18.89,2.81-34.78,2.94-45.66,2.54Z"/><path class="cls-36" d="m546.59,123.85c-2.34.52-4.68,1.03-7.01,1.55,0,0-6.06-.07-5.99-6.13s2.39-6.06,2.39-6.06c2.51-1.13,5.01-2.25,7.52-3.38,3.45,1.71,5.61,5.02,5.5,8.46-.1,2.92-1.8,4.92-2.4,5.57Z"/><path class="cls-36" d="m558.88,148.95l-4.86-2.86c-.67-2.57-1.34-5.15-2.01-7.72l2.86-4.86c.52-.37,3.43-2.37,7.01-1.55,3.94.9,6.86,4.76,6.66,8.71-.19,3.7-3.06,5.95-3.81,6.48-2.41,1.74-4.95,1.81-5.85,1.8Z"/><path class="cls-36" d="m543.9,173.72l-2.01-7.72,3.52-5.08c2.2-.83,4.39-1.66,6.59-2.49,3.18.52,5.8,2.73,6.69,5.67,1.07,3.51-.49,7.48-3.84,9.51-2.42.9-4.84,1.81-7.26,2.71l-3.7-2.61Z"/><path class="cls-36" d="m521.61,213.33l-2.21-6.82,2.72-4.51c1.84-.74,3.68-1.48,5.52-2.23,2.77.45,5.16,2.39,6.12,4.99,1.14,3.1.05,6.62-2.71,8.43-2.03.81-4.05,1.62-6.08,2.42l-3.35-2.29Z"/><path class="cls-36" d="m450.21,91.24l-3.04,3.03c-1.68.7-4.61,1.62-8.2,1.27-1.34-.13-2.51-.42-3.49-.74,3.52-2.29,7.05-4.58,10.57-6.87,1.39,1.1,2.77,2.21,4.16,3.31Z"/><path class="cls-34" d="m2536.06,77.45c-32.68,3.97-70.86,6.36-113.39,4.86-34.12-1.2-65.12-4.71-92.44-9.2-12.42-14.87-24.84-29.75-37.26-44.62-1.32-1.58-3.47-3.83-6.59-5.8-7.43-4.68-14.13-3.79-22.72-4.65-11.63-1.16-8.51-3.69-26.37-7.33-17.98-3.66-21.07-1.09-27.35-5.72-1.94-1.43-5.8-4.74-10.6-4.28-1.09.1-3.53.53-5.44,2.4-3.01,2.95-2.67,7.52-2.59,8.55.81,10.92,15.73,19.65,27.07,22.74,1.47.4,2.7.66,3.47.8,4.64,1.35,9.98,3.28,15.68,6.07,4.08,2,7.67,4.11,10.78,6.16-2,.52-5.09,1.22-8.91,1.6-8.94.89-14.02-.74-24.68-1.44-3.31-.22-8.11-.41-13.99-.19-32.29.66-64.57,1.32-96.86,1.98-.41-.02-9.64-.3-13.73,6.58-.34.57-2.14,3.61-1.61,6.95.96,6,9.23,11.21,20.53,11.46-7.5-.11-15-.22-22.5-.33-6.07-.55-11.54,2.67-13.28,7.3-2.28,6.07,1.88,14.42,10.23,16.4,4.48.83,8.97,1.67,13.45,2.5-.85.19-6.74,1.62-8.83,6.5-2.35,5.49.89,13.54,8.81,17.29,32.13,4.39,64.27,8.78,96.4,13.17.36,1.1.71,2.2,1.07,3.3-9.93-.19-20.59-.77-31.9-1.89-12.53-1.25-24.17-3-34.84-5.02-3.55-1.61-7.58-1.07-10.07,1.33-3.99,3.85-1.53,10.04-1.26,10.69,2.17,5.22,7.56,6.62,8.19,6.78,7.29,1.89,14.58,3.78,21.87,5.67l40.36,7.51,21.47-.52c20.35,3.8,48.34,6.45,80.77,1.62,14.27-2.12,27.01-5.34,38.05-8.88,4.3-.26,10.9-.48,18.89.1,16.75,1.21,29.05,5.11,33.85,6.62,19.41,6.07,76.76,23.1,154.52,46.76,5.62-15.13,12.54-39.36,12.48-69.71-.06-27.39-5.78-49.54-10.78-64.12Z"/><path class="cls-36" d="m2197.92,1.6c2.91-.33,5.1.91,5.79,1.34l7.93,3.18c-3.13-3.01-6.22-4.39-8.11-5.05-2.42-.85-4.93-1.68-7.22-.45-1.26.68-2,1.74-2.41,2.49.71-.48,2.09-1.29,4.01-1.51Z"/><g class="cls-14"><rect class="cls-27" x="2105.79" y="86.13" width="16.81" height=".84" transform="translate(1846.32 2185.49) rotate(-85.07)"/></g><g class="cls-14"><rect class="cls-27" x="2143.76" y="87.98" width="17.49" height=".84" transform="translate(1942.17 2232.43) rotate(-86.75)"/></g><g class="cls-14"><rect class="cls-27" x="2190.35" y="81.03" width=".84" height="21.48" transform="translate(-1.58 53.03) rotate(-1.39)"/></g><g class="cls-14"><rect class="cls-27" x="2115.65" y="61.57" width="19.58" height=".84" transform="translate(2003.35 2184.82) rotate(-88.38)"/></g><g class="cls-14"><rect class="cls-27" x="2152.55" y="61.08" width="17.87" height=".84" transform="translate(1754.28 2185.17) rotate(-80.78)"/></g><g class="cls-14"><rect class="cls-27" x="2186.33" y="62.84" width="20.88" height=".84" transform="translate(1460.65 2133.99) rotate(-72.08)"/></g><g class="cls-14"><rect class="cls-27" x="2117.93" y="115.07" width="17.25" height=".84" transform="translate(1932.31 2236.31) rotate(-87.88)"/></g><g class="cls-14"><rect class="cls-27" x="2151.9" y="118.27" width="15.59" height=".84" transform="translate(1927.3 2269.12) rotate(-86.98)"/></g><g class="cls-14"><rect class="cls-27" x="2183.4" y="122.5" width="19.94" height=".84" transform="translate(2021.14 2312.97) rotate(-88.71)"/></g><g class="cls-14"><rect class="cls-27" x="2139.91" y="147.54" width="13.82" height=".84" transform="translate(1540.91 2212.8) rotate(-77.59)"/></g><g class="cls-14"><rect class="cls-27" x="2166.32" y="151.57" width="16.24" height=".84" transform="translate(1753.97 2290.81) rotate(-82.88)"/></g><g class="cls-14"><rect class="cls-27" x="2201.98" y="144.48" width=".84" height="17.58" transform="translate(18.51 476.81) rotate(-12.41)"/></g><g class="cls-14"><rect class="cls-27" x="2249.24" y="41.75" width="19.8" height=".84" transform="translate(425.47 1362.45) rotate(-36.82)"/></g><g class="cls-14"><rect class="cls-27" x="2222.92" y="30.76" width="7.63" height=".84" transform="translate(1269.25 2041.79) rotate(-65.34)"/></g><g class="cls-22"><polygon class="cls-27" points="2331.91 153.55 2329.95 146.47 2327.27 126.16 2334.08 109.98 2338.28 86.59 2339.1 86.74 2334.87 110.26 2328.13 126.28 2330.78 146.3 2332.72 153.33 2331.91 153.55"/></g><path class="cls-18" d="m2109.08,74.38c5.47-.22,10.95-.45,16.42-.67,4.74.28,9.71.45,14.89.48,6.94.03,13.52-.2,19.7-.61,5.61.39,11.63.62,18,.58,5.49-.03,10.7-.24,15.61-.58,1.29.23,2.58.46,3.88.69-2.26.96-4.51,1.91-6.77,2.87-6.19-.66-12.95-1.11-20.2-1.22-6.18-.09-12,.08-17.41.42-1.59-.04-3.18-.07-4.78-.11-11.18-.24-22.3-.39-33.34-.46-4.86-.02-9.72-.03-14.57-.05-1.35-.2-2.78-.46-2.77-.69.02-.38,3.8-.6,11.35-.65Z"/><polygon class="cls-18" points="2096.99 100.26 2192.37 106.87 2093.62 103.56 2096.99 100.26"/><path class="cls-34" d="m2536.06,77.45c-32.68,3.97-70.86,6.36-113.39,4.86-34.12-1.2-65.12-4.71-92.44-9.2-12.42-14.87-24.84-29.75-37.26-44.62-1.32-1.58-3.47-3.83-6.59-5.8-7.43-4.68-14.13-3.79-22.72-4.65-11.63-1.16-8.51-3.69-26.37-7.33-17.98-3.66-21.07-1.09-27.35-5.72-1.94-1.43-5.8-4.74-10.6-4.28-1.09.1-3.53.53-5.44,2.4-3.01,2.95-2.67,7.52-2.59,8.55.81,10.92,15.73,19.65,27.07,22.74,1.47.4,2.7.66,3.47.8,4.64,1.35,9.98,3.28,15.68,6.07,4.08,2,7.67,4.11,10.78,6.16-2,.52-5.09,1.22-8.91,1.6-8.94.89-14.02-.74-24.68-1.44-3.31-.22-8.11-.41-13.99-.19-32.29.66-64.57,1.32-96.86,1.98-.41-.02-9.64-.3-13.73,6.58-.34.57-2.14,3.61-1.61,6.95.96,6,9.23,11.21,20.53,11.46-7.5-.11-15-.22-22.5-.33-6.07-.55-11.54,2.67-13.28,7.3-2.28,6.07,1.88,14.42,10.23,16.4,4.48.83,8.97,1.67,13.45,2.5-.85.19-6.74,1.62-8.83,6.5-2.35,5.49.89,13.54,8.81,17.29,32.13,4.39,64.27,8.78,96.4,13.17.36,1.1.71,2.2,1.07,3.3-9.93-.19-20.59-.77-31.9-1.89-12.53-1.25-24.17-3-34.84-5.02-3.55-1.61-7.58-1.07-10.07,1.33-3.99,3.85-1.53,10.04-1.26,10.69,2.17,5.22,7.56,6.62,8.19,6.78,7.29,1.89,14.58,3.78,21.87,5.67l40.36,7.51,21.47-.52c20.35,3.8,48.34,6.45,80.77,1.62,14.27-2.12,27.01-5.34,38.05-8.88,4.3-.26,10.9-.48,18.89.1,16.75,1.21,29.05,5.11,33.85,6.62,19.41,6.07,76.76,23.1,154.52,46.76,5.62-15.13,12.54-39.36,12.48-69.71-.06-27.39-5.78-49.54-10.78-64.12Z"/><path class="cls-17" d="m2168.82,121.55c-26.44-4.13-56.95.66-77.94-18.35-1.09.91-2.08,2.07-2.72,3.56-2.35,5.49.89,13.54,8.81,17.29,32.13,4.39,64.27,8.78,96.4,13.17.36,1.1.71,2.2,1.07,3.3-9.93-.19-20.59-.77-31.9-1.89-12.53-1.25-24.17-3-34.84-5.02-3.55-1.61-7.58-1.07-10.07,1.33-3.99,3.85-1.53,10.04-1.26,10.69,2.17,5.22,7.56,6.62,8.19,6.78,7.29,1.89,14.58,3.78,21.87,5.67l40.36,7.51,21.47-.52c13.61,2.54,30.65,4.56,50.15,4.17,47.73-3.29,58.47-7.24,58.61-10.4.33-7.8-63.88-14.2-119.63-30.57-6.28-1.84-15.43-4.67-28.58-6.72Z"/><path class="cls-36" d="m2197.92,1.6c2.91-.33,5.1.91,5.79,1.34l7.93,3.18c-3.13-3.01-6.22-4.39-8.11-5.05-2.42-.85-4.93-1.68-7.22-.45-1.26.68-2,1.74-2.41,2.49.71-.48,2.09-1.29,4.01-1.51Z"/><g class="cls-14"><rect class="cls-27" x="2105.79" y="86.13" width="16.81" height=".84" transform="translate(1846.32 2185.49) rotate(-85.07)"/></g><g class="cls-14"><rect class="cls-27" x="2143.76" y="87.98" width="17.49" height=".84" transform="translate(1942.17 2232.43) rotate(-86.75)"/></g><g class="cls-14"><rect class="cls-27" x="2190.35" y="81.03" width=".84" height="21.48" transform="translate(-1.58 53.03) rotate(-1.39)"/></g><g class="cls-14"><rect class="cls-27" x="2115.65" y="61.57" width="19.58" height=".84" transform="translate(2003.35 2184.82) rotate(-88.38)"/></g><g class="cls-14"><rect class="cls-27" x="2152.55" y="61.08" width="17.87" height=".84" transform="translate(1754.28 2185.17) rotate(-80.78)"/></g><g class="cls-14"><rect class="cls-27" x="2186.33" y="62.84" width="20.88" height=".84" transform="translate(1460.65 2133.99) rotate(-72.08)"/></g><g class="cls-14"><rect class="cls-27" x="2117.93" y="115.07" width="17.25" height=".84" transform="translate(1932.31 2236.31) rotate(-87.88)"/></g><g class="cls-14"><rect class="cls-27" x="2151.9" y="118.27" width="15.59" height=".84" transform="translate(1927.3 2269.12) rotate(-86.98)"/></g><g class="cls-14"><rect class="cls-27" x="2183.4" y="122.5" width="19.94" height=".84" transform="translate(2021.14 2312.97) rotate(-88.71)"/></g><g class="cls-14"><rect class="cls-27" x="2139.91" y="147.54" width="13.82" height=".84" transform="translate(1540.91 2212.8) rotate(-77.59)"/></g><g class="cls-14"><rect class="cls-27" x="2166.32" y="151.57" width="16.24" height=".84" transform="translate(1753.97 2290.81) rotate(-82.88)"/></g><g class="cls-14"><rect class="cls-27" x="2201.98" y="144.48" width=".84" height="17.58" transform="translate(18.51 476.81) rotate(-12.41)"/></g><g class="cls-14"><rect class="cls-27" x="2249.24" y="41.75" width="19.8" height=".84" transform="translate(425.47 1362.45) rotate(-36.82)"/></g><g class="cls-14"><rect class="cls-27" x="2222.92" y="30.76" width="7.63" height=".84" transform="translate(1269.25 2041.79) rotate(-65.34)"/></g><g class="cls-22"><polygon class="cls-27" points="2331.91 153.55 2329.95 146.47 2327.27 126.16 2334.08 109.98 2338.28 86.59 2339.1 86.74 2334.87 110.26 2328.13 126.28 2330.78 146.3 2332.72 153.33 2331.91 153.55"/></g><path class="cls-18" d="m2109.08,74.38c5.47-.22,10.95-.45,16.42-.67,4.74.28,9.71.45,14.89.48,6.94.03,13.52-.2,19.7-.61,5.61.39,11.63.62,18,.58,5.49-.03,10.7-.24,15.61-.58,1.29.23,2.58.46,3.88.69-2.26.96-4.51,1.91-6.77,2.87-6.19-.66-12.95-1.11-20.2-1.22-6.18-.09-12,.08-17.41.42-1.59-.04-3.18-.07-4.78-.11-11.18-.24-22.3-.39-33.34-.46-4.86-.02-9.72-.03-14.57-.05-1.35-.2-2.78-.46-2.77-.69.02-.38,3.8-.6,11.35-.65Z"/><polygon class="cls-18" points="2096.99 100.26 2192.37 106.87 2093.62 103.56 2096.99 100.26"/><path class="cls-39" d="m2224.89,311.45c5.75,3.39,14.22,8.4,24.46,14.52,29.35,17.54,47.38,28.31,65.43,39.92,14.78,9.5,35.26,23.23,59.37,41.23,1.7.79,4.66,1.94,8.38,2.15,31.68,1.81,74.12-66.83,55.05-98.39-4.19-6.94-10.79-11.15-17.02-13.82-17.42-3.24-36.81-8.02-57.49-15.12-39.63-13.6-71.42-31.4-95.21-47.41-8.66-12.56-14.76-23.21-18.65-30.42-9.91-18.38-9.88-22.68-17.46-30.45-5.88-6.02-5.61-3.16-27.26-18.89-10.81-7.86-13.03-10.14-19.36-12.56-10.51-4.03-12.79-.96-20.36-5.4-8.77-5.15-10.94-12.35-17.56-12.02-.41.02-4.46.28-6.46,3.15-4.59,6.58,6.28,20.29,7.31,21.59,2.79,3.52,8.79,9.92,19.72,14.13,3.89,3.41,7.77,6.81,11.66,10.22-13.4-4.6-26.8-9.2-40.21-13.79-14.23-5.76-28.45-11.53-42.68-17.29-10.64-5.07-21.28-10.14-31.92-15.2-5.88-4.05-12.75-4.52-17.28-1.32-.67.47-3.09,2.3-4.02,5.46-1.62,5.52,2.02,12.6,9.37,16.99,12.25,5.82,24.49,11.64,36.74,17.45,12.65,5.82,25.29,11.63,37.94,17.45l-8.84-1.32c-24.13-11.33-48.26-22.67-72.39-34-.92-1.05-4.69-5.07-10.85-5.66-1.33-.13-6.91-.66-11.21,3.27-.75.69-3.87,3.54-3.95,7.84-.07,3.55,1.98,6.04,3.79,8.22,3.89,4.72,8.83,6.94,12.11,8,19.6,10.82,39.2,21.64,58.8,32.45l21.64,12.5c-13.71-6.81-27.43-13.62-41.14-20.44-11.28-6.83-22.56-13.67-33.84-20.5-4.29-2.91-9.73-2.66-13.07.35-3.03,2.72-3.58,7.04-2.7,10.18,1.24,4.42,5.42,6.71,7.89,8.14,13.59,7.84,6.31,7.33,31.6,23.51,6.45,4.13,11.47,7.07,16.93,10.27,8.54,5,15.8,9.01,21.1,11.86-7.96-2.12-13.96-4.8-17.93-6.83-6.28-3.21-12.76-7.49-24.55-13.34-5.43-2.69-8.83-4.15-12.3-2.79-3.34,1.3-6.01,4.92-6.06,8.45-.07,5.67,6.68,9.85,10.34,12.18,28,17.76,17.02,16.39,44.77,31.67,16.56,9.12,29.95,14.83,34.94,16.91,18.44,7.68,32.85,11.82,48,16.12,11.54,3.28,26.58,7.17,44.44,10.79Z"/><path class="cls-36" d="m2044.54,139.61c2.02.85,4.03,1.7,6.05,2.56.12.05.24.08.36.1,1.04.11,5.89.35,6.81-4.97,1.03-5.97-1.25-6.4-1.25-6.4-2.08-1.44-4.16-2.88-6.24-4.31-.34-.24-.78-.31-1.17-.17-3.38,1.19-5.83,3.92-6.31,7.12-.38,2.49.55,4.54,1.12,5.53.14.25.37.44.63.55Z"/><path class="cls-36" d="m2027.95,161.72c1.38-.5,2.76-1,4.14-1.5.45-.16.82-.49,1.01-.93.89-2,1.79-4.36,2.68-6.38.24-.54.21-1.16-.11-1.66-1.14-1.8-2.28-3.24-3.42-5.09-.18-.28-.42-.52-.72-.67-.9-.44-2.26-.92-3.9-.84-3.81.18-7.59,3.29-8.13,7.35-.48,3.67,1.93,6.4,2.57,7.07,1.72,1.81,3.75,2.47,4.88,2.72.34.07.68.05,1-.06Z"/><path class="cls-36" d="m2038.3,187.73l2.16-4.63c.41-.88.46-1.88.14-2.79l-.31-.89c-.24-.69-.67-1.3-1.26-1.73-1.6-1.18-3.67-3.13-5.32-4.41-.81-.63-1.86-.88-2.87-.7-2.54.44-4.76,1.99-5.92,4.24-1.62,3.14-.94,7.14,1.74,9.76.2.2.43.36.68.51,1.53.92,3.07,1.84,4.6,2.76,1.05.63,2.34.7,3.46.19l1.1-.51c.8-.37,1.44-1,1.81-1.8Z"/><path class="cls-36" d="m2052.99,230.97l1.99-3.67c.55-1.02.53-2.25-.06-3.25l-2.16-3.66c-.29-.5-.71-.91-1.21-1.2-1.02-.59-1.93-1.01-2.94-1.59-.81-.46-1.79-.59-2.67-.28-1.7.61-2.78,2.19-3.86,4.02-1.61,2.73-1.28,6.2.85,8.49.18.2.4.36.63.51,1.23.78,2.47,1.56,3.7,2.33.93.59,2.09.67,3.1.22l1.07-.48c.67-.3,1.22-.8,1.56-1.45Z"/><path class="cls-36" d="m2145.27,125.49c.67.97,1.34,1.94,2.01,2.9,1.67,1.08,4.36,2.44,7.83,2.73.89.07,1.73.07,2.49.01-2.69-2.93-5.38-5.86-8.07-8.78-2.46-.3-4.3.55-4.59,1.68-.05.21-.12.71.33,1.45Z"/><polygon class="cls-26" points="1281.99 970.55 1437.5 935.24 1489.46 1005.43 1291.83 1005.43 1281.99 970.55"/><rect class="cls-26" x="1269.78" y="935.18" width="189.78" height="37.83" rx="7" ry="7" transform="translate(-223.9 455.03) rotate(-17.52)"/><rect class="cls-42" x="2273.64" y="301.48" width="119.29" height="34.31" rx="5.95" ry="5.95" transform="translate(1020.31 2273.59) rotate(-63.89)"/><rect class="cls-42" x="2367.71" y="114.26" width="119.29" height="34.31" rx="7.07" ry="7.07" transform="translate(1985.66 2521.87) rotate(-82.63)"/><g class="cls-16"><rect class="cls-42" x="2413.7" y="165.86" width="9.25" height="27.84" transform="translate(1815.31 2528.61) rotate(-79.85)"/></g><g class="cls-16"><rect class="cls-42" x="2417.44" y="143.06" width="9.25" height="30.07" transform="translate(1935.71 2536.09) rotate(-82.18)"/></g><g class="cls-16"><rect class="cls-42" x="2421.56" y="114.46" width="9.25" height="31.73" transform="translate(1928.07 2508.4) rotate(-81.24)"/></g><g class="cls-16"><rect class="cls-42" x="2424.68" y="86.06" width="9.25" height="30.45" transform="translate(1978.51 2490.55) rotate(-81.7)"/></g><g class="cls-16"><rect class="cls-42" x="2427.89" y="65.85" width="9.25" height="31.82" transform="translate(2119.61 2495.45) rotate(-84.54)"/></g><polygon class="cls-15" points="1096.79 436.96 1088.09 469.38 1080.13 511.57 1079.17 514.64 1077.46 502.39 1081.41 460.18 1079.49 451.07 1083.07 455.72 1079.02 505.41 1091.68 449 1096.79 436.96"/><polygon class="cls-40" points="592.23 483.88 600.8 482.95 601.7 489.45 597.02 488.66 592.23 483.88"/><polygon class="cls-40" points="489.47 444.62 492.46 441.36 498.01 445.93 498.86 452.23 498.23 453.71 489.47 444.62"/><polygon class="cls-3" points="562.23 527.57 575.94 527.23 577.42 532.4 574.38 537.51 570.66 541.11 562.23 527.57"/><path class="cls-6" d="m223.05,571.17c31.46-4.68,55.31-11.26,71.59-16.56,15.89-5.18,26.46-9.75,49.41-15.8,22.34-5.89,22.86-4.33,28.85-8,19.66-12.02,18.79-34.96,37.67-44.39,7-3.5,14.62-6.65,14.62-6.65,8.13-3.36,9.98-3.58,15.39-6.32,5.56-2.82,9.58-5.62,13.13-8.12,6.25-4.39,8.05-7.4,12.13-9.51,7.5-3.88,14.99-7.75,22.49-11.63,6.19,2.18,10.41,6.78,10.6,11.71.04,1.1-.09,2.87-1.17,4.98,6.86-2.6,13.71-5.21,20.57-7.81,12.2-1.59,24.4-3.17,36.6-4.76,12.95.25,25.91.49,38.86.74.31.51,2.74,4.58.96,8.6-.56,1.28-1.39,2.18-2.07,2.78,6.03.09,12.07.18,18.1.27.57,1.33,2.29,5.82.32,10.15-1.63,3.59-4.89,5.1-8.22,6.59-5.29,2.37-9.03,2.23-20.5,3.28-4.52.41-8.18.82-10.48,1.09-2.15.92-4.35,1.82-6.6,2.71-6.97,2.75-13.74,5.07-20.24,7.03,9.66-2.04,19.32-4.08,28.97-6.12,7.24-.62,14.49-1.24,21.73-1.86,1.07,1.19,3.65,4.39,3.61,8.8,0,0-.02,2.12-.84,4.2-1.96,4.93-13.4,8.9-28.72,9.87-3.59,2.13-8.78,4.68-15.39,6.32-5.21,1.29-9.83,1.65-13.45,1.67-5.23,3.12-10.54,6.37-15.91,9.75-4.69,2.95-9.26,5.9-13.72,8.85,3.92-.84,7.84-1.67,11.75-2.5,10.56-1.03,21.02-2.05,31.57-3.09l13.58.2c.72-.11,2.11-.21,3.43.52,3.08,1.71,2.74,6.25,2.71,6.6,0,0-.21,2.41-1.94,4.65-4.87,6.32-20.42,4.91-21.15,4.83-3.55,1.55-8.43,3.23-14.42,4-3.84.49-7.28.5-10.15.32-3.28,2.6-7.73,5.58-13.39,8.07-3.47,1.52-6.72,2.57-9.57,3.29-2.33,2.45-6.21,5.95-11.84,8.72-4.92,2.42-9.41,3.42-12.55,3.87-8.01,6.34-20.68,14.55-37.58,18.01-18.91,3.87-28.74-1.14-48.56.67-14,1.28-23.65,5.11-48.96,16.9-22.42,10.45-50.86,24.23-83.83,41.51-5.47-11.48-10.94-22.96-16.41-34.44-6.99-14.67-13.98-29.35-20.97-44.02Z"/><path class="cls-21" d="m497.67,487.26c3.9-.27,9.8-1.16,16.3-4.13,4.91-2.24,8.63-4.96,11.19-7.17,4.86.02,11.66-.49,19.4-2.83,6.66-2.01,11.93-4.75,15.72-7.1,3,.72,6.88,1.3,11.38,1.11,9.88-.42,17.26-4.32,21.02-6.71l-14.33,8.48-18.15-.49s-19.16,8.25-20.91,10.25c-1.75,2-14.05.05-14.05.05l-14.21,10.92-16.88,1.15,1.13-2.71,2.39-.82Z"/><path class="cls-21" d="m547.81,490.43c-4.21,2.25-9.09,4.55-14.62,6.65-4.88,1.85-9.47,3.25-13.65,4.32-4.03,1.66-8.06,3.31-12.1,4.97l-3.04,5.11,7.44-4.18,18.05-6.13,13.45-5.49,26.1-7.97,22.79-3.82-26.06,2.37-18.37,4.17Z"/><g class="cls-22"><path class="cls-33" d="m652.79,639.87l-.82-.2c1.4-5.77,3.44-11.38,6.06-16.7,2.76-5.6,6.18-10.89,10.16-15.71-.91-6.26-1.6-12.62-2.03-18.92-.62-9.07-.75-18.28-.37-27.38-2.41-3.17-5.43-8.4-6.32-15.48-.89-7.1.76-12.93,2.31-16.57l.77.33c-1.5,3.54-3.11,9.22-2.25,16.14.88,6.98,3.88,12.11,6.24,15.19l.09.12v.15c-.39,9.11-.27,18.34.36,27.44.44,6.34,1.13,12.75,2.05,19.04l.03.18-.12.14c-3.99,4.81-7.41,10.09-10.17,15.69-2.59,5.26-4.61,10.82-5.99,16.53Z"/></g><path class="cls-6" d="m549.02,892.2c12.97-24.3,21.78-45.53,27.66-61.33,13.12-35.28,21.66-58.93,15.51-76.42-1.67-4.74-7.87-18.89-9.35-32.14-.15-1.33-.47-4.65-1.74-8.92-2.08-7.02-5.19-11.49-7.42-14.94-10.19-15.73-7.11-17.68-15.95-29.43-5.5-7.32-7.35-7.42-10.72-13.59-3.91-7.13-5.27-14-5.8-18.82-2.73-5.09-5.47-10.18-8.2-15.27,6.19-5.03,11.29-4.81,12.87-4.65,8.17.82,13.29,9.04,17.25,15.4,2.83,4.54,4.41,8.65,5.29,11.32,10.49,11.06,20.98,22.12,31.47,33.18,10.03-11.62,14.17-20.69,16.06-27,.64-2.14,1.99-7.2,5.51-13.19,2.78-4.73,5.81-8.16,7.96-10.34,1.04-4.99,2.29-10.24,3.83-15.71,2.2-7.85,4.66-15.06,7.19-21.59,3.7-13.94,5.07-25.34,5.65-33.17.81-10.93.98-27.36,8.17-34.85,1.18-1.23,3.81-3.96,6.92-3.49,2.62.4,4.23,2.86,4.78,3.82.62,6.33,1.24,12.66,1.86,19l-1.53,49.46,2.59-6.21,5.07-36.14c.42-9.54.83-19.09,1.25-28.63.31-.9.96-2.38,2.4-3.55,2.91-2.38,7.29-2.07,10.15-.32,3.6,2.2,5.33,6.99,4,11.69.36,3.49.73,6.98,1.09,10.48,1.23-2.63,4.12-4.08,6.92-3.49,2.7.57,4.72,2.9,4.91,5.69l2.29,44.68c.52-1.02,3.64-6.97,6.34-6.46,1.85.35,2.7,3.57,3.23,5.9,3.29,14.57,1.68,29.01,1.65,46.23,0,3.54.06,5.16.06,6.4.04,10.73-4.1,35.09-35.31,92.75l-11.59,23.4-4.6,15.39,1.66,24.38-9.33,17.97-25.82,107.64c-.66,1.88-1.95,4.78-4.6,7.19-18.97,17.26-82.34-13.55-80.42-29.94.13-1.12.54-1.97.78-2.41Z"/><path class="cls-40" d="m654.7,519.96l.73,9.94c-.02.36-.2,3.84,2.48,6.05,2.3,1.89,5.74,2.07,8.5.36l1.63-14.81c-.1-3.35-2.63-6.14-5.91-6.57-3.35-.43-6.56,1.72-7.44,5.02Z"/><polygon class="cls-12" points="552.65 544.36 550.85 532.24 550.52 544.6 552.65 544.36"/><polygon class="cls-12" points="526.72 548.58 525.62 538.1 526.03 549.11 526.72 548.58"/><polygon class="cls-12" points="570.55 506.4 566.27 493.13 567.82 508.03 569.81 506.45 570.55 506.4"/><polygon class="cls-12" points="533.53 529.42 521.94 533.83 506.87 539.38 501.63 545.39 506.16 534.53 518 525.81 510.69 534.6 533.53 529.42"/><path class="cls-40" d="m594.23,450.15c-3.28-.15-6.55-.31-9.83-.46l-.14-.82c3.8.02,7.59.04,11.39.05-.01.13-.06.47-.32.78-.41.47-1.02.46-1.1.45Z"/><g class="cls-10"><path class="cls-33" d="m264.69,645.35l-3.59-7.6c22.01-10.4,43.28-21.08,63.21-31.74l3.26-1.75c17.41-9.34,33.85-18.16,58.1-22.75,6.19-1.17,12.51-1.99,18.78-2.44l.72-.05.7.19c8.53,2.37,21.99,4.47,37.61,1.01,16.5-3.65,28.27-11.88,35.23-18.13l1.06-.95,1.42-.11c3.76-.3,7.41-1.22,10.86-2.75,3.83-1.7,7.27-4.07,10.23-7.06l.55-.55,16.43-7.42,3.46,7.66-15.03,6.79c-3.57,3.48-7.68,6.26-12.24,8.27-3.87,1.71-7.96,2.82-12.16,3.3-7.82,6.8-20.5,15.3-37.99,19.16-16.88,3.73-31.47,1.61-40.95-.92-5.72.43-11.47,1.2-17.11,2.26-22.98,4.35-38.86,12.87-55.69,21.9l-3.27,1.75c-20.05,10.72-41.44,21.46-63.58,31.92Z"/></g><path class="cls-40" d="m679.99,511.47l1.35,14.23,8.66,5.44c.13.11.4.31.78.32.58.02,1.15-.43,1.38-1.13-.48-5.4-.96-10.8-1.44-16.2-.6-2.63-2.71-4.6-5.23-4.92-3.21-.4-5.35,2.09-5.5,2.26Z"/><path class="cls-40" d="m694.78,534.95l1.41,14.08,5.5,4.29,2.74,1.15s.93-1.11.97-1.26c.04-.14-1.11-17.02-1.11-17.02-.03-.19-.55-2.97-2.91-3.95-2.22-.92-5.15.13-6.6,2.71Z"/><path class="cls-40" d="m709.38,579.88l2.04,11.21c.42.92,1.27,2.5,2.91,3.95,1.56,1.38,3.14,2.03,4.08,2.34l-1.81-18.7c-.22-.22-1.44-1.42-3.3-1.38-1.64.04-3.15,1.04-3.93,2.58Z"/><path class="cls-3" d="m540.04,619.73l3.61,8.8c.38,2.16.61,4.69.51,7.5-.03.93-.1,1.81-.2,2.65l-3.02-2.52c-3.21-5.78-6.43-11.56-9.64-17.34.52-.41,1.67-1.21,3.3-1.36,3.08-.28,5.17,1.98,5.43,2.27Z"/><polygon class="cls-21" points="654.01 660.94 654.22 636.44 660.51 612.65 666.79 591.09 666.58 588.31 669.54 584.5 671.83 599.73 662.3 638.9 656.8 652.09 655.76 658.94 654.01 660.94"/><polygon class="cls-21" points="692.84 536.87 693.61 553.43 693.19 588.94 687.5 632.28 681.69 665.75 690.89 627.15 699.13 598.71 697.85 579.96 697.65 552.85 694.88 535.96 692.84 536.87"/><polygon class="cls-21" points="706.96 583.76 708.16 605.67 701.9 636.91 699.85 664.6 706.27 642.68 711.18 605.57 709.83 582.39 706.96 583.76"/><polygon class="cls-21" points="494.7 465.98 487.87 474.64 471.54 482.88 436.98 511.64 432.91 521.37 429.92 540.95 421.05 560.02 439.37 535.79 440.42 518.01 456.68 504.14 474.65 486.44 490.61 475.78 494.7 465.98"/><polygon class="cls-40" points="599.58 460.53 612.85 460.66 613.79 466.47 602.05 462.52 599.58 460.53"/><path class="cls-6" d="m2450.51,847.82c.22.52.83,1.81,2.12,2.51,14,7.55,79.99-70.64,68.67-85.7-.68-.91-1.52-1.41-1.74-1.54-26.96-14.21-53.91-28.42-80.87-42.62,0,0-41.5-28.16-49.02-32.98-7.53-4.82-27.99-16.78-27.99-16.78l-22.76-30.16s-12.38-24.06-15.85-27.14-11.77-9.84-11.77-9.84l-3.28-11-4.06-12.93s-11-13.5-14.29-18.91c-3.28-5.4-7.31-12.73-7.31-12.73,0,0-11.41,2.32-13.72,7.72-2.31,5.4-9.09,10.93-4.25,24.38,4.84,13.44,11.79,19.62,11.79,19.62l-12.16-10.8-64.46-38-16.79-11.19-26.44-12.92-17.37-9.84-29.53-9.45-5.98-.96c-1.31.35-3.26,1.12-4.44,2.9-2.09,3.15-.41,7.36.97,10.81.98,2.47,2.97,6.4,7.06,10.3l30.18,15.35,36.1,23.35,33.39,24.69-38.37-24.91-9.88-6.14-22.77-12.15-20.84-12.92-39.56-12.15c-.66.09-6.3.97-8.87,5.79-2.51,4.71-1.08,11.21,3.86,15.24,11.64,5.79,23.29,11.57,34.93,17.36l38.67,26.12,39.5,26.53-7.23-1.29-33.31-20.07-26.42-16.79-34.94-15.07c-.69.07-6.56.8-9.84,6.18-3.62,5.93-.79,12.1-.58,12.54,11.49,7.34,22.97,14.67,34.46,22.01l43.09,30.17,24.74,13.21-30.59-11.93c-3.18-2.69-7.63-5.88-13.42-8.52-9.42-4.29-18.01-5.13-23.35-5.2-3.46-.26-6.73,1.5-8.3,4.44-1.8,3.37-1.03,7.7,1.93,10.42,6.82,3.99,13.64,7.97,20.46,11.96,19.49,11.94,38.98,23.89,58.47,35.83l17.55,13.11,17,5.04s28.71,22.15,49.19,26.51c20.48,4.36,54.06,4.35,54.06,4.35l75.46,55.98,58.69,58.22Z"/><path class="cls-7" d="m2351.23,678.86c-6.72-15.13-25.22-21.86-40.35-32.78-5.04-3.36-7.57-10.09-13.45-11.77-5.04-2.52-8.41-5.88-12.61-9.25-17.2-11.73-31.49-27.1-38.82-46.78l-46.43-27.37-16.79-11.19-26.44-12.92-17.37-9.84-2.98-.95c-8.36,5.82-24.87.69-33.57,5.66-.46.29-.92.6-1.36.92,1.17,2.29,3.03,5.14,6,7.97l30.18,15.35,36.1,23.35,33.39,24.69-38.37-24.91-9.88-6.14-22.77-12.15-20.84-12.92-21.55-6.62c-4.25,6.99-6.3,15.83-5.85,24.04,5.92,2.94,11.84,5.89,17.77,8.83l38.67,26.12,39.5,26.53-7.23-1.29-33.31-20.07-26.42-16.79-26.15-11.28c4.22,9.62,10.59,17.85,13.83,29.2.84,3.36,4.2,6.72,5.88,10.09.18.36.33.72.47,1.09l38.17,26.72,24.74,13.21-30.59-11.93c-3.18-2.69-7.63-5.88-13.42-8.52-6.66-3.03-12.9-4.34-17.88-4.87.04.65.1,1.3.19,1.94,1.23,8.62-7,9.12-12.82,11.75.25.29.51.58.8.84,6.82,3.99,13.64,7.97,20.46,11.96,19.49,11.94,38.98,23.89,58.47,35.83l17.55,13.11,17,5.04s28.71,22.15,49.19,26.51c20.48,4.36,54.06,4.35,54.06,4.35l32.79,24.33c8.88-25.9,11.79-54.79,2.06-79.09Z"/><path class="cls-8" d="m2111.66,624.22c-.09-.64-.15-1.28-.19-1.94-2.06-.22-3.91-.31-5.47-.34-3.46-.26-6.73,1.5-8.3,4.44-1.62,3.04-1.15,6.86,1.14,9.58,5.82-2.62,14.05-3.13,12.82-11.75Z"/><polygon class="cls-37" points="2279.27 573.85 2284.67 576.16 2292.37 570.84 2291.21 563.03 2282.37 547.99 2278.88 556.1 2273.28 561.69 2279.27 573.85"/><polygon class="cls-20" points="2276.19 599.71 2282.95 624.99 2291.78 662.18 2307.55 689.8 2282.66 659.61 2278.46 622.28 2269.18 593.48 2276.19 599.71"/><path class="cls-32" d="m2353.68,975.01s-9.46-26.43-34.95-67.72c-25.48-41.29-39.58-56.91-42.67-64.63-3.09-7.72-11.59-28.94-11.59-28.94,0,0-36.48-21.22-52.11-35.11-15.63-13.89-32.43-36.27-32.43-36.27,0,0-13.9-6.75-19.3-14.66s-26.45-35.31-26.45-35.31l-35.52-43.99c-6.38-5.81-6.15-15.22-1.16-19.68,3.8-3.4,10.2-3.8,15.44-.58,12.48,12.54,24.96,25.08,37.45,37.62l20.21,26.61,2.18,1.36-1.35-6.17-15.45-27.4-52.71-89.72c-2.13-4.55-1.99-9.63.58-12.54,3.71-4.22,12.87-4.37,18.91,2.5,24.26,33.57,48.52,67.14,72.78,100.71l-76.06-111.71c-2.96-5.53-5.92-11.06-8.88-16.59-3.55-5.03-2.33-12.08,2.7-15.63,5.03-3.55,12.08-2.33,15.63,2.7,9.39,10.42,18.79,20.84,28.18,31.25,0,0,11.2,16.79,14.09,21.22,2.9,4.44,11.2,11.19,14.48,16.59,3.28,5.4,14.87,23.15,25.1,34.73,10.23,11.58,22.58,20.06,22.58,20.06l-13.51-22.57s-11.2-11.19-18.72-21.61c-7.53-10.42-20.66-32.03-20.66-32.03l-18.08-20.95c-3.25-3.76-5.96-7.96-8.06-12.46l-4.75-10.19c-2.32-4.37-.97-9.75,2.89-12.35,3.47-2.34,8.29-1.99,11.58.96,7.98,6.88,15.96,13.76,23.93,20.64,0,0,12.16,16.4,18.92,24.89,6.76,8.49,11.97,13.12,17.95,19.68,5.98,6.56,7.72,13.7,16.79,22.38,9.07,8.68,21.81,18.13,33.2,32.6,11.39,14.47,25.87,25.46,25.87,25.46l11.39,3.28,15.81-44.39c-2.3-7.46-1.57-13.4-.97-16.4,1.77-8.91,8-20.08,18.71-23.16,3.08-.89,5.79-.89,7.53-.77-2.67,13.45-1.64,23.54-.18,30.3,1.42,6.57,3.68,12.06,2.51,20.26-.91,6.42-3.01,8.15-5.4,14.47-3.15,8.35-2.81,14.17-1.34,44.19,0,0-3.47,8.11-5.97,27.02s.98,49.98.98,49.98l51.93,87.79,53.47,63.66c1.07,2.05,2.61,5.57,2.9,10.03,2.26,34.75-74.5,75.74-93.57,59.85-3.14-2.61-4.32-6.43-4.83-9.26Z"/><path class="cls-44" d="m2167.34,534.71c1.36-.63,2.16-1.62,2.51-2.12,1.91-2.76,1.48-7-.97-10.81-2.7-3.02-5.4-6.04-8.11-9.07-.36-.28-3.52-2.64-7.33-1.54-3.57,1.03-5.77,4.54-5.79,7.91-.02,3.09,1.79,5.21,2.32,5.79,2.45,2.38,4.89,4.76,7.33,7.14,3.16,2.98,7.09,4.06,10.04,2.7Z"/><path class="cls-44" d="m2123.91,518.51c2.64,3.79,5.28,7.59,7.92,11.38.38.91,1.33,3.55.39,6.56-.92,2.94-3.68,6.29-7.48,6.35-2.82.05-4.84-1.72-5.44-2.3-3.56-4.42-7.12-8.85-10.69-13.27-1.4-3.8-.39-7.96,2.38-10.27,3.51-2.93,9.39-2.51,12.93,1.54Z"/><path class="cls-44" d="m2110.23,576.6c.19.23,2.77,3.33,6.75,2.89.43-.05,3.64-.45,5.3-3.24,1.5-2.53,1.1-5.99-1.06-8.53-2.32-3.92-4.63-7.85-6.95-11.77-3.66-3.95-9.6-3.81-12.54-.58-2.32,2.55-2.6,6.83-.38,10.23,2.96,3.67,5.92,7.33,8.88,11Z"/><path class="cls-44" d="m2093.27,634.88c3.6,3.41,7.21,6.82,10.81,10.22.43.22,2.44,1.19,4.63.38,2.83-1.04,3.52-4.15,3.66-4.83.71-3.2-1.03-5.73-1.35-6.17-2.51-3.47-5.02-6.95-7.53-10.42-2.83-2.62-6.73-3.28-9.65-1.73-2.91,1.55-3.63,4.64-3.66,4.83-.6,2.81.6,5.83,3.09,7.72Z"/><path class="cls-44" d="m2350.17,576.72l4.13-.48c2.03-.24,3.71,1.56,3.33,3.57l-4.25,22.58-3.21-25.67Z"/><polygon class="cls-15" points="540.18 179.38 510.1 194.27 470.29 210.36 467.48 211.91 479.82 211.18 520.43 199.03 529.75 199.11 524.48 196.52 476.55 210.25 529.38 186.76 540.18 179.38"/><path class="cls-15" d="m537.84,130.85c-28.55,7.12-57.1,14.23-85.64,21.35,4.67.69,9.33,1.39,14,2.08,24.23-6.04,48.47-12.08,72.7-18.12,1.36-1.32,2.73-2.64,4.09-3.95-25.79,6.76-51.57,13.53-77.36,20.29-2.68-.12-5.36-.23-8.04-.35,26.75-7.1,53.49-14.2,80.24-21.31Z"/><path class="cls-15" d="m554.96,152.1c-32.31,11.27-64.63,22.55-96.94,33.82,16.46-4.11,32.92-8.23,49.37-12.34,13.26-5.73,26.52-11.46,39.79-17.19l-3.05.33c-12.74,5.21-25.48,10.42-38.21,15.62-13.64,3.86-27.27,7.73-40.91,11.59,13.4-4.58,26.88-9.26,40.44-14.04,16.7-5.89,33.21-11.82,49.53-17.79Z"/><path class="cls-27" d="m1847.87,786.15c-21.62-26.34-37.38-50.12-48.41-68.36-21.56-35.66-35.65-67.76-46.12-91.59-4.81-10.95-2.78-6.9-15.09-35.82-17.91-42.09-20.62-46.94-23.39-59.61-5.42-24.73-3.41-44.07-2.67-50.03,2.05-16.51,6.66-29.72,10.53-38.72l8.57-21.58c-2.12-1.27-5.84-3.07-10.46-2.93-7.29.21-12.58,5.11-18.61,10.69-2.27,2.1-5.65,5.26-9.03,10.14-8.93,12.88-8.98,24.86-12.87,42.84-1.58,7.32-4.27,17.81-9.03,30.31-2.96-4.48-7.84-10.23-15.26-12.48-10.23-3.1-14.29,3.77-33.2,5.68-13.83,1.4-20.13-1.42-26.74,3.9-4.14,3.33-6.02,7.93-6.96,11.31-.32,1.5-.61,3.71-.33,6.35.29,2.82,1.12,5.03,1.78,6.46-.79-.09-10.63-1.18-16.04,2.34-2.04,1.33-3.34,3.01-3.34,3.01-.84,1.09-1.68,2.54-2.4,5.18-.88,3.24-2.45,8.98.28,14.87.83,1.79,1.88,3.24,2.95,4.4-.04.71-.07,1.41-.11,2.12-1.14.44-2.87,1.3-4.4,2.95-4.23,4.57-3.06,11.09-2.79,12.59,1.14,6.34,5.57,9.99,6.85,10.98-1.25,2.05-1.97,3.88-2.4,5.18-.82,2.54-2.11,6.5-.56,10.58.57,1.51,1.33,2.49,1.95,3.29,3.03,3.89,6.36,4.63,10.25,6.91,5.68,3.33,4.66,5.34,10.14,9.03,2.55,1.72,6.55,3.83,12.48,4.9,7.12,7.02,17.89,16.15,32.7,24.01,14.96,7.94,28.69,11.76,38.55,13.71,1.47,5.45,3.84,13.76,7.24,23.73,9.43,27.68,19.56,47.07,22.67,53.21,9.08,17.91,21.47,47.35,35.2,97.38.28.39.96,1.29,2.01,2.23,22.03,19.75,112.66-29.81,107.97-54.81-.39-2.08-1.37-3.61-1.89-4.35Z"/><path class="cls-36" d="m1729.59,419.52c-2.71,5.74-4.75,9.84-6.37,12.98-1.09,2.12-2.76,5.28-1.45,7.35.39.61.93.97,1.34,1.18,4.42-5.45,8.84-10.89,13.26-16.34.35-1,.23-1.71.11-2.12-.59-1.96-3.37-3.33-6.89-3.06Z"/><path class="cls-36" d="m1640.1,559.73c.62-1.91,1.69-4.5,3.57-7.24,1.94-2.82,4.04-4.8,5.63-6.07l3.18.17c.46.24,2.25,1.22,3.01,3.34.75,2.11.2,4.52-1.39,6.3-1.24.66-2.69,1.33-4.35,1.89-3.74,1.28-7.12,1.6-9.64,1.61Z"/><path class="cls-11" d="m1590.57,532.7c3.32,4.07,6.65,8.13,9.97,12.2,1.81,2.74,7.87,11.16,19.39,14.82,7.82,2.48,14.58,1.63,17.99.95-.99.57-2.46,1.31-4.35,1.89-8.32,2.57-15.96-.74-19-2.06-4.11-1.78-6.79-3.86-9.25-5.79-10.63-8.36-18.55-20.4-16.88-22.12.24-.25.79-.38,2.12.11Z"/><polygon class="cls-11" points="1572.02 562.51 1591.52 575.21 1605.72 587.64 1623.97 588.6 1639.65 588.36 1641.76 588.47 1632.07 591.15 1604.61 588.64 1569.43 565.92 1571.91 564.62 1572.02 562.51"/><polygon class="cls-11" points="1571.57 591.14 1595.77 607.28 1620.43 610.7 1618.2 612.71 1597.19 608.41 1584.58 602.44 1571.57 591.14"/><polygon class="cls-11" points="1671.3 511.49 1668.12 531.49 1663.22 564.13 1678.01 606.31 1657.02 566.99 1656.65 535.93 1668.39 507.59 1671.3 511.49"/><path class="cls-11" d="m1637.92,560.67l6.96-1.35,8.08-2.11c.52,3.57,1.04,7.13,1.56,10.7,0,6.72,0,13.44,0,20.17-3.4.9-6.8,1.8-10.2,2.7-1.39,2.74-2.79,5.48-4.18,8.22-.87,3.14-1.75,6.28-2.62,9.41-2.51.58-5.01,1.15-7.52,1.73-1.82.97-3.64,1.93-5.46,2.9-2.14.24-4.27.48-6.41.72,1.65,2.21,3.3,4.42,4.96,6.63-1.58,3.1-3.16,6.2-4.74,9.3-2.25,2.36-4.49,4.72-6.74,7.07-1.37-.78-2.75-1.56-4.12-2.34-1.69-1.5-3.38-3.01-5.07-4.51l7.79-3.02,6.8-14.52,7.13-3.65,3.34-.53,7.29-12.79-.64-3.1,1.23-3.12,4.74-2.55,3.68-16.11,2.4-5.18-8.24-4.68Z"/><path class="cls-36" d="m1647.22,585.58c-3.92.5-7.84,1-11.75,1.5-.18-1.29-.26-3.16.28-5.29,1.19-4.71,4.58-7.36,5.74-8.19,2.82.15,5.65.3,8.47.45,2.21,1.4,3.34,4,2.84,6.52-.53,2.68-2.8,4.73-5.57,5.01Z"/><path class="cls-36" d="m1621.6,608.64c.02-5.93,2.51-10.5,5.91-11.36.7-.18,1.76-.28,3.18.17,2.12.11,4.23.22,6.35.33.04.36.6,6.13-3.68,9.36-2.1,1.58-4.36,1.81-5.4,1.84-2.12-.11-4.23-.22-6.35-.33Z"/><path class="cls-36" d="m1607.89,627.02c1.86-3.52,3.55-5.84,4.62-7.19.53-.66,1.16-1.41,2.23-2.01,1.65-.92,3.34-.92,4.29-.84.25.18.68.54,1,1.11,1.2,2.16-.18,5.67-2.51,7.3-.21.15-.77.52-2.17.95-1.54.47-4.07,1.01-7.47.67Z"/><path class="cls-11" d="m1616.81,518.17l27.05,1.43,24.12-11.02c-2.78,7.49-5.55,14.98-8.33,22.46-1,1.63-2,3.26-3,4.89l-15.02-7.99-11.62,1.54-13.2-11.31Z"/><polygon class="cls-19" points="1704.59 745.69 1708.24 753.17 1794.45 709.33 1789.77 701.13 1704.59 745.69"/></g><g id="Layer_6"><polygon class="cls-26" points="964.5 1005.43 970.97 965.5 1142.36 965.5 1142.36 1005.43 964.5 1005.43"/><path class="cls-7" d="m247.22,103.89c9.81,1.96,19.61,3.92,29.42,5.88-3.85,6.81-7.91,15.54-10.93,26.06-5.87,20.45-5.09,38.31-3.61,49.69-11.19,2.02-22.38,4.04-33.57,6.06l18.68-87.69Z"/><path class="cls-7" d="m266.55,194.68c9.25-3.92,18.49-7.85,27.74-11.77-.45,8.65-.31,18.57,1.02,29.44,2.96,24.3,10.68,43.72,17.48,57.15-9.53,3.64-19.05,7.29-28.58,10.93l-17.65-85.74Z"/><path class="cls-1" d="m1976.93,1005.43h-166.07l-100.66-218.85c-1.18-2.57-.12-5.62,2.41-6.9l103.56-52.27c2.52-1.27,5.6-.33,6.97,2.14l153.79,275.89Z"/><path class="cls-43" d="m634.01,1005.43c-51.56-.28-103.24-.14-154.79-.42.4-8.63,1.98-22.17,8.41-36.99,10.53-24.26,21.06-27.33,31.94-52.96,8.46-19.92,3.4-22.08,12.61-42.87,10.42-23.54,27.1-43.8,33.62-41.19,6.05,2.42.15,23.19,8.41,26.9,6.23,2.8,12.33-7.81,21.01-5.88,10.62,2.35,8.54,19.77,20.17,26.9,15.94,9.76,39.45-10.91,45.39-4.2,5.11,5.77-13.75,19.36-19.33,48.75-3.88,20.45,2.19,29.21-2.52,59.68-1.49,9.67-3.4,17.08-4.92,22.28Z"/><path class="cls-43" d="m2527.42,1005.43h-167.17c-23.82-44.83-47.41-89.24-71.23-134.07,30.54-17.93,61.08-35.87,91.62-53.8,49.03,62.76,97.74,125.11,146.78,187.87Z"/><polygon class="cls-43" points="2621.06 819.24 2621.06 999.97 2382.33 790.66 2438.65 715.85 2621.06 819.24"/><path class="cls-25" d="m.08,213.17V57.66c25.74-1.79,54.84-2,86.58.84,74.45,6.67,135.06,27.61,178.21,47.07-5.46,9.53-11.03,21.92-14.29,36.99-10.14,46.82,9.29,85.78,16.81,99.19-54.38.54-115.77-2.65-182.41-12.61-29.93-4.47-58.26-9.92-84.9-15.97Z"/><path class="cls-42" d="m2621.06,373.72v185.08l-291.51-162.6c-11.75-6.55-16.24-21.21-10.18-33.22l40.62-80.56c6.05-12,20.47-17.1,32.72-11.58l228.35,102.89Z"/><path class="cls-42" d="m2621.06,78.67v154.67l-177.97-30.39c-6.31-1.08-10.65-6.95-9.83-13.3l14.8-114.45c.82-6.34,6.5-10.92,12.87-10.36l160.13,13.84Z"/><path class="cls-43" d="m.08,813.36v-169.8c4.91-3.98,12.57-9.68,22.7-15.13,25.61-13.79,39.88-11.43,68.93-19.33,35.38-9.62,34.98-18.77,72.29-29.42,22.12-6.32,40.93-8.43,52.96-9.25,22.21-13.8,29.51-14.2,31.94-11.77,3.29,3.29-3.48,10.64,0,19.33,3.84,9.59,14.62,6.98,23.54,18.49,6.52,8.42,7.24,18.2,7.57,22.7.89,12.1-3.52,15.65-4.2,25.22-1.61,22.42,20.75,31.8,16.81,42.03-4.49,11.67-33.89.72-75.65,15.97-6.46,2.36-3.15,1.67-35.31,16.81-34.29,16.15-36.61,16.25-49.6,22.7-37.9,18.81-40.32,28.93-75.65,47.91-12.31,6.61-31.22,15.7-56.32,23.54Z"/><path class="cls-35" d="m1713.15,779.41l-9.26-19.78c-.89-1.91-.11-4.18,1.77-5.14l92.46-47.01c1.87-.95,4.17-.25,5.19,1.59l10.78,19.4c-33.64,16.98-67.29,33.97-100.93,50.95Z"/><g class="cls-22"><rect class="cls-1" x="1744.57" y="769.16" width="1.68" height="93.22" transform="translate(-181.21 824.09) rotate(-25.3)"/></g><path class="cls-9" d="m.08,163.62c26.78,8.15,60.9,15.82,100.87,18.45,61.04,4.02,111.86-5.26,146.78-14.69.43,6.9.86,13.79,1.29,20.69l14.72,46.8L.82,219.1.08,163.62Z"/><path class="cls-25" d="m.08,399.78C.36,331.41-.2,263.17.08,194.8c29.74,3.9,63.52,6.39,99.19,6.6,74.11.45,138.48-9.58,189.97-21.86-1.58,9.74-2.67,21.05-2.52,33.62.3,25.65,5.64,46.94,10.93,62.2-24.05,24.58-64.35,59.71-122.73,86.58C102.63,395.23,37.19,399.91.08,399.78Z"/><path class="cls-43" d="m2379.83,821.21l-85.25,53.86c-2.94,1.86-6.84.98-8.7-1.96-1.86-2.94-.98-6.84,1.96-8.7l85.25-53.86c2.94-1.86,6.84-.98,8.7,1.96,1.86,2.94.98,6.84-1.96,8.7Z"/><path class="cls-43" d="m2358.92,744.08h93.85c3.48,0,6.3,2.82,6.3,6.3h0c0,3.48-2.82,6.3-6.3,6.3h-93.85c-3.48,0-6.3-2.82-6.3-6.3h0c0-3.48,2.82-6.3,6.3-6.3Z" transform="translate(338.92 2192.26) rotate(-52.22)"/><g class="cls-31"><polygon class="cls-43" points="2621.06 856.37 2429.75 730.42 2434.83 722.69 2621.06 845.3 2621.06 856.37"/></g><g class="cls-31"><polygon class="cls-43" points="2621.06 914.88 2410.22 755.26 2415.8 747.89 2621.06 903.28 2621.06 914.88"/></g><g class="cls-31"><polygon class="cls-43" points="2621.06 991.17 2393.02 775.95 2399.37 769.22 2621.06 978.46 2621.06 991.17"/></g><circle class="cls-4" cx="78.68" cy="692.73" r="11.35"/><circle class="cls-4" cx="22.36" cy="660.79" r="11.35"/><circle class="cls-4" cx="34.12" cy="757.46" r="11.35"/><circle class="cls-4" cx="129.95" cy="634.73" r="11.35"/><circle class="cls-4" cx="129.95" cy="696.93" r="11.35"/><circle class="cls-4" cx="186.27" cy="649.86" r="11.35"/><circle class="cls-4" cx="522.51" cy="982.74" r="11.35"/><circle class="cls-4" cx="541" cy="918.01" r="11.35"/><circle class="cls-4" cx="619.18" cy="938.18" r="11.35"/><circle class="cls-4" cx="586.4" cy="976.85" r="11.35"/><circle class="cls-4" cx="584.72" cy="889.43" r="11.35"/><circle class="cls-4" cx="219.06" cy="605.31" r="11.35"/><circle class="cls-4" cx="245.96" cy="672.56" r="11.35"/><path class="cls-9" d="m184.51,76.4l33.37,10.44c-4.32,1.45-35.59,12.55-46.76,44.5-5.99,17.12-3.43,32.33-1.7,39.51-2.56-3.15-17.58-22.3-13.83-49.3,3.96-28.53,25.7-43.08,28.92-45.15Z"/><path class="cls-9" d="m53.13,199.78c-7.35,8.18-27.82,33.12-30.36,70.55-3.75,55.51,35.08,91.9,40.35,96.67-4.38-6.51-30.87-47.33-17.65-98.58,9.85-38.19,35.93-59.61,44.55-66.11l-36.89-2.53Z"/><circle class="cls-2" cx="1750.62" cy="792.76" r="7.15"/><circle class="cls-2" cx="1765.75" cy="823.02" r="7.15"/><g class="cls-31"><polygon class="cls-43" points="2484.44 1005.43 2362.16 832.41 2369.71 827.08 2495.76 1005.43 2484.44 1005.43"/></g><g class="cls-31"><polygon class="cls-43" points="2426.93 1005.43 2332.57 850.65 2340.46 845.83 2437.76 1005.43 2426.93 1005.43"/></g><g class="cls-31"><polygon class="cls-43" points="2377.5 1005.43 2303.87 868.93 2312.01 864.54 2388 1005.43 2377.5 1005.43"/></g><g class="cls-16"><rect class="cls-42" x="2304.57" y="347.61" width="9.25" height="27.84" transform="translate(877.12 2208.77) rotate(-61.11)"/></g><g class="cls-16"><rect class="cls-42" x="2315.08" y="327.16" width="9.25" height="30.07" transform="translate(976.23 2263.97) rotate(-63.43)"/></g><polygon class="cls-23" points="967.93 984.48 1142.36 984.48 1142.36 993.95 966.41 993.95 967.93 984.48"/><path class="cls-23" d="m1289.55,997.45c52.4-16.53,104.79-33.06,157.19-49.6,1.4,1.96,2.8,3.92,4.2,5.88-53.24,16.53-106.48,33.06-159.71,49.6-.56-1.96-1.12-3.92-1.68-5.88Z"/><g class="cls-16"><rect class="cls-42" x="2327.91" y="301.36" width="9.25" height="31.73" transform="translate(974.22 2239.81) rotate(-62.5)"/></g><g class="cls-16"><rect class="cls-42" x="2340.19" y="275.5" width="9.25" height="30.45" transform="translate(1019.94 2247.1) rotate(-62.96)"/></g><g class="cls-16"><rect class="cls-42" x="2349.5" y="257.36" width="9.25" height="31.82" transform="translate(1139.83 2308.47) rotate(-65.8)"/></g><rect class="cls-26" x="964.24" y="947.85" width="183.25" height="37.83" rx="9.32" ry="9.32"/><polygon class="cls-13" points="1809.79 720.73 1814.09 728.46 1713.15 779.41 1709.13 770.82 1809.79 720.73"/><polygon class="cls-15" points="1146.07 430.46 1141.04 521.87 1135.24 508.51 1140.66 430.46 1144.18 425.59 1136.85 506.83 1138.97 511.93 1146.07 430.46"/><polygon class="cls-15" points="1120.65 417.12 1107.63 518.98 1103.17 510.4 1117.97 425.59 1118.25 428.65 1105.72 509.98 1107.09 511.57 1120.65 417.12"/><polygon class="cls-24" points="1090 479.32 1099.2 479.32 1095.17 482.85 1090 479.32"/><polygon class="cls-24" points="1063.23 492.56 1072.43 492.56 1068.4 494.69 1063.23 492.56"/><polygon class="cls-24" points="1121.78 473.23 1128.81 472.39 1128.23 474.24 1124.5 473.8 1121.32 475.06 1121.78 473.23"/><polygon class="cls-24" points="1125.67 435.13 1132.7 434.29 1132.12 436.14 1128.39 435.7 1125.21 436.96 1125.67 435.13"/><polygon class="cls-24" points="1100.91 439.99 1107.94 439.15 1107.36 440.99 1103.63 440.55 1100.45 441.82 1100.91 439.99"/><polygon class="cls-24" points="1065.57 467.55 1072.6 466.71 1072.02 468.56 1068.29 468.11 1065.11 469.38 1065.57 467.55"/><polygon class="cls-24" points="1152.67 441.32 1159.71 440.48 1159.13 442.33 1155.39 441.89 1152.22 443.15 1152.67 441.32"/><polygon class="cls-24" points="1151.33 482.08 1155.15 483.63 1151.33 483.63 1151.33 482.08"/><g class="cls-30"><path class="cls-38" d="m2102.68,453.67c-.92,0-1.77-.61-2.03-1.55l-16.77-61.53c-.31-1.12.36-2.27,1.48-2.58,1.12-.3,2.27.35,2.58,1.48l16.77,61.53c.31,1.12-.36,2.27-1.48,2.58-.18.05-.37.07-.55.07Z"/></g><g class="cls-30"><path class="cls-38" d="m2202.78,519.55c-.32,0-.64-.07-.94-.22-1.04-.52-1.45-1.78-.93-2.82l22.39-44.54c.52-1.04,1.78-1.46,2.82-.93,1.04.52,1.45,1.78.93,2.82l-22.39,44.54c-.37.73-1.11,1.16-1.88,1.16Z"/></g><g class="cls-30"><path class="cls-38" d="m2187.99,492.3c-1.12,0-2.05-.89-2.1-2.02l-1.91-49.82c-.04-1.16.86-2.14,2.02-2.18,1.17-.02,2.14.86,2.18,2.02l1.91,49.82c.04,1.16-.86,2.14-2.02,2.18-.03,0-.05,0-.08,0Z"/></g><g class="cls-30"><path class="cls-38" d="m2219.18,522.02c-.62,0-1.23-.27-1.65-.8-.72-.91-.57-2.23.34-2.95l39.41-31.2c.91-.72,2.23-.57,2.95.34.72.91.57,2.23-.34,2.95l-39.41,31.2c-.39.31-.85.45-1.3.45Z"/></g><g class="cls-30"><path class="cls-38" d="m2315.37,536.93c-.38,0-.76-.1-1.11-.32-.99-.61-1.29-1.91-.68-2.89l20.72-33.43c.61-.99,1.91-1.29,2.89-.68.99.61,1.29,1.91.68,2.89l-20.72,33.43c-.4.64-1.09.99-1.79.99Z"/></g><g class="cls-30"><path class="cls-38" d="m2327.99,539.33c-.67,0-1.33-.32-1.73-.91-.66-.96-.41-2.27.54-2.92l33.03-22.69c.96-.66,2.27-.41,2.92.54.66.96.41,2.27-.54,2.92l-33.03,22.69c-.36.25-.78.37-1.19.37Z"/></g><g class="cls-30"><path class="cls-38" d="m2058.09,449.14c-.76,0-1.49-.41-1.86-1.13l-43.59-83.29c-.54-1.03-.14-2.3.89-2.84,1.03-.54,2.3-.14,2.84.89l43.59,83.29c.54,1.03.14,2.3-.89,2.84-.31.16-.64.24-.97.24Z"/></g><g class="cls-30"><path class="cls-38" d="m2016.94,462.75c-.56,0-1.13-.23-1.54-.67l-71.52-77.17c-.79-.85-.74-2.18.11-2.97.85-.79,2.18-.74,2.97.11l71.52,77.17c.79.85.74,2.18-.11,2.97-.4.37-.92.56-1.43.56Z"/></g><g class="cls-30"><path class="cls-38" d="m2029.73,513.5c-.26,0-.51-.05-.77-.15l-79.63-31.25c-1.08-.42-1.61-1.64-1.19-2.72.42-1.08,1.64-1.61,2.72-1.19l79.63,31.25c1.08.42,1.61,1.64,1.19,2.72-.33.83-1.12,1.33-1.96,1.33Z"/></g><g class="cls-30"><path class="cls-38" d="m1975.78,562.2c-1.14,0-2.08-.91-2.1-2.06-.02-1.16.9-2.12,2.06-2.14l61.06-1.18c1.16,0,2.12.9,2.14,2.06.02,1.16-.9,2.12-2.06,2.14l-61.06,1.18h-.04Z"/></g><g class="cls-30"><path class="cls-38" d="m641.71,192.58c-.18,0-.36-.02-.54-.07l-53.03-14.16c-1.12-.3-1.79-1.45-1.49-2.57.3-1.12,1.45-1.79,2.57-1.49l53.03,14.16c1.12.3,1.79,1.45,1.49,2.57-.25.94-1.1,1.56-2.03,1.56Z"/></g><g class="cls-30"><path class="cls-38" d="m587.48,146.73c-1.09,0-2.01-.84-2.09-1.94-.09-1.16.77-2.17,1.93-2.26l72.56-5.73c1.15-.09,2.17.77,2.26,1.93.09,1.16-.77,2.17-1.93,2.26l-72.56,5.73c-.06,0-.11,0-.17,0Z"/></g><g class="cls-30"><path class="cls-38" d="m575.86,103.49c-.64,0-1.27-.29-1.68-.84-.7-.93-.51-2.25.42-2.94l68.82-51.48c.93-.7,2.25-.51,2.94.42.7.93.51,2.25-.42,2.94l-68.82,51.48c-.38.28-.82.42-1.26.42Z"/></g><g class="cls-30"><path class="cls-38" d="m552.01,92.62c-.45,0-.91-.15-1.29-.45-.91-.72-1.07-2.04-.36-2.95l36.68-46.86c.72-.91,2.04-1.08,2.95-.36.91.72,1.08,2.04.36,2.95l-36.68,46.86c-.41.53-1.03.81-1.66.81Z"/></g><g class="cls-30"><path class="cls-38" d="m523.1,85.95c-.13,0-.25-.01-.38-.04-1.14-.21-1.9-1.31-1.69-2.45l7.4-40.19c.21-1.14,1.31-1.9,2.45-1.69,1.14.21,1.9,1.31,1.69,2.45l-7.4,40.19c-.19,1.01-1.07,1.72-2.06,1.72Z"/></g><g class="cls-30"><path class="cls-38" d="m451.7,63.1c-1.09,0-2.01-.84-2.09-1.95l-2.98-40.76c-.08-1.16.78-2.16,1.94-2.25,1.16-.1,2.16.78,2.25,1.94l2.98,40.76c.08,1.16-.78,2.16-1.94,2.25-.05,0-.1,0-.16,0Z"/></g><g class="cls-30"><path class="cls-38" d="m430.03,65.85c-.67,0-1.32-.32-1.73-.9l-23.27-33.59c-.66-.95-.42-2.26.53-2.92.95-.66,2.26-.42,2.92.53l23.27,33.59c.66.95.42,2.26-.53,2.92-.36.25-.78.37-1.19.37Z"/></g><g class="cls-30"><path class="cls-38" d="m1043.5,429.25c-.56,0-1.11-.22-1.53-.66l-46.72-49.3c-.8-.84-.76-2.17.08-2.97.84-.8,2.17-.76,2.97.08l46.72,49.3c.8.84.76,2.17-.08,2.97-.41.38-.93.58-1.45.58Z"/></g><g class="cls-30"><path class="cls-38" d="m1053.49,415.53c-.73,0-1.43-.38-1.82-1.05l-40.98-71.16c-.58-1.01-.23-2.29.77-2.87,1.01-.58,2.29-.23,2.87.77l40.98,71.16c.58,1.01.23,2.29-.77,2.87-.33.19-.69.28-1.05.28Z"/></g><g class="cls-30"><path class="cls-38" d="m1198.16,436.09c-.77,0-1.5-.42-1.87-1.15-.53-1.04-.11-2.3.92-2.83l50.8-25.84c1.03-.53,2.3-.11,2.83.92.53,1.04.11,2.3-.92,2.83l-50.8,25.84c-.3.16-.63.23-.95.23Z"/></g><g class="cls-30"><path class="cls-38" d="m1187.9,429.25c-.47,0-.94-.16-1.33-.47-.9-.73-1.03-2.06-.3-2.96l55.21-67.52c.74-.9,2.06-1.03,2.96-.3.9.73,1.03,2.06.3,2.96l-55.21,67.52c-.42.51-1.02.77-1.63.77Z"/></g><g class="cls-30"><path class="cls-38" d="m1093.84,380.84c-1.01,0-1.9-.72-2.07-1.75l-11.65-68.8c-.19-1.14.58-2.23,1.72-2.42,1.14-.2,2.23.58,2.42,1.72l11.65,68.8c.19,1.14-.58,2.23-1.72,2.42-.12.02-.24.03-.35.03Z"/></g><g class="cls-30"><path class="cls-38" d="m1105.53,375.58c-1.16,0-2.1-.94-2.1-2.1v-108.14c0-1.16.94-2.1,2.1-2.1s2.1.94,2.1,2.1v108.14c0,1.16-.94,2.1-2.1,2.1Z"/></g><g class="cls-30"><path class="cls-38" d="m1154.36,387.64c-.08,0-.16,0-.23-.01-1.15-.13-1.98-1.17-1.86-2.32l10.06-90.47c.13-1.15,1.17-1.99,2.32-1.86,1.15.13,1.98,1.17,1.86,2.32l-10.07,90.47c-.12,1.07-1.03,1.87-2.09,1.87Z"/></g><g class="cls-30"><path class="cls-38" d="m1166.07,391.47c-.28,0-.56-.06-.84-.17-1.06-.46-1.55-1.7-1.09-2.76l18.89-43.55c.46-1.06,1.7-1.55,2.76-1.09,1.06.46,1.55,1.7,1.09,2.76l-18.89,43.55c-.34.79-1.12,1.27-1.93,1.27Z"/></g></g></g></svg>