<?xml version="1.0" encoding="utf-8"?>
<!-- Generator: Adobe Illustrator 24.1.1, SVG Export Plug-In . SVG Version: 6.00 Build 0)  -->
<svg version="1.1" id="Layer_1" xmlns="http://www.w3.org/2000/svg" xmlns:xlink="http://www.w3.org/1999/xlink" x="0px" y="0px"
	 viewBox="0 0 121 121" style="enable-background:new 0 0 121 121;" xml:space="preserve">
<style type="text/css">
	.st0{fill:#666666;}
	.st1{fill:#1F497D;}
	.st2{fill:#FEBE10;}
	.st3{fill:#4F81BD;}
</style>
<path class="st0" d="M98,20.6H46c0.1,0.6,0.2,1.7,0.2,2.7c0,1.2-0.1,2.3-0.3,3.4h50.7v35.6H32.9V40.5c-1.4,0.3-2.8,0.5-4.1,0.5
	c-0.4,0-0.7,0-1.1,0c-0.3,0-0.6,0-0.9-0.1v30.2c0,2.6,2.2,4.8,4.8,4.8H98c2.6,0,4.8-2.1,4.8-4.8V25.4C102.8,22.8,100.6,20.6,98,20.6
	z M58.9,69.6c-0.6,0-1.2-0.5-1.2-1.2c0-0.6,0.5-1.2,1.1-1.2h0.1c0.6,0,1.2,0.5,1.2,1.2C60,69.1,59.5,69.6,58.9,69.6z M64.8,69.6
	c-0.6,0-1.2-0.5-1.2-1.2c0-0.6,0.5-1.2,1.1-1.2h0.1c0.6,0,1.2,0.5,1.2,1.2C65.9,69.1,65.4,69.6,64.8,69.6z M70.7,69.6
	c-0.6,0-1.2-0.5-1.2-1.2c0-0.6,0.5-1.2,1.1-1.2h0.1c0.6,0,1.2,0.5,1.2,1.2C71.8,69.1,71.3,69.6,70.7,69.6z"/>
<g>
	<path class="st0" d="M84.6,84.1v3.7H44.9v-3.7c0-0.6,0.5-1.2,1.2-1.2h4.5l3.9-4.7h20.4l3.9,4.7h4.6C84.1,82.9,84.6,83.4,84.6,84.1z
		"/>
</g>
<path class="st1" d="M77.3,53.5V60H52.2v-6.5c0-4.2,3.4-7.5,7.5-7.5h10.1C73.9,46,77.3,49.4,77.3,53.5z"/>
<circle class="st1" cx="64.7" cy="37.3" r="5.9"/>
<g>
	<g>
		<path class="st2" d="M46.1,38.9l-3.8-8.6c1.1-2.1,1.7-4.5,1.7-6.9C43.9,14.9,37.1,8,28.6,8c-8.5,0-15.3,6.9-15.3,15.4
			c0,8.2,6.4,14.9,14.5,15.3c2.8,0.2,5.7-0.5,8.2-1.8l8.7,3.8c0.2,0.1,0.3,0.1,0.5,0.1c0,0,0,0,0,0c0.6,0,1.2-0.5,1.2-1.2
			C46.3,39.3,46.2,39.1,46.1,38.9z M36.7,24.3l-11.8,7.1c-0.3,0.2-0.8,0.2-1.2,0c-0.4-0.2-0.6-0.6-0.6-1V16.2c0-0.4,0.2-0.8,0.6-1
			c0.4-0.2,0.8-0.2,1.2,0l11.8,7.1c0.3,0.2,0.6,0.6,0.6,1C37.2,23.8,37,24.1,36.7,24.3z"/>
	</g>
</g>
<path class="st3" d="M94.5,106c-3-4.6-2.9-9.2,0.2-14.2c0.2-0.4,0.2-0.8,0-1.2c-0.2-0.4-0.6-0.6-1-0.6H41c-2.4,0-4.7,1-6.4,2.6
	C33,94.4,32,96.7,32,99c0,4.9,4,9,9,9h52.7c0,0,0,0,0,0c0.6,0,1.2-0.5,1.2-1.2C94.9,106.5,94.7,106.2,94.5,106z M85.8,102.8H41.1
	c-0.6,0-1.2-0.5-1.2-1.2s0.5-1.2,1.2-1.2h44.7c0.6,0,1.2,0.5,1.2,1.2S86.4,102.8,85.8,102.8z M85.8,97.6H41.1
	c-0.6,0-1.2-0.5-1.2-1.2s0.5-1.2,1.2-1.2h44.7c0.6,0,1.2,0.5,1.2,1.2S86.4,97.6,85.8,97.6z"/>
</svg>
